G04 #@! TF.FileFunction,Copper,L2,Bot,Signal*
%FSLAX46Y46*%
G04 Gerber Fmt 4.6, Leading zero omitted, Abs format (unit mm)*
G04 Created by KiCad (PCBNEW 4.0.2-stable) date 19/05/2017 15:16:31*
%MOMM*%
G01*
G04 APERTURE LIST*
%ADD10C,0.100000*%
%ADD11R,1.727200X2.032000*%
%ADD12O,1.727200X2.032000*%
%ADD13C,2.200000*%
%ADD14C,3.000000*%
%ADD15C,1.000000*%
%ADD16C,0.600000*%
%ADD17C,0.300000*%
%ADD18C,0.200000*%
%ADD19C,0.254000*%
G04 APERTURE END LIST*
D10*
D11*
X147320000Y-70612000D03*
D12*
X149860000Y-70612000D03*
X152400000Y-70612000D03*
X154940000Y-70612000D03*
X157480000Y-70612000D03*
X160020000Y-70612000D03*
X162560000Y-70612000D03*
X165100000Y-70612000D03*
X167640000Y-70612000D03*
X170180000Y-70612000D03*
D13*
X106500000Y-47800000D03*
D14*
X109000000Y-58000000D03*
D13*
X111500000Y-47800000D03*
X120182000Y-47886000D03*
D14*
X122682000Y-58086000D03*
D13*
X125182000Y-47886000D03*
X130342000Y-47886000D03*
D14*
X132842000Y-58086000D03*
D13*
X135342000Y-47886000D03*
X140502000Y-47886000D03*
D14*
X143002000Y-58086000D03*
D13*
X145502000Y-47886000D03*
X150662000Y-47886000D03*
D14*
X153162000Y-58086000D03*
D13*
X155662000Y-47886000D03*
X160822000Y-47886000D03*
D14*
X163322000Y-58086000D03*
D13*
X165822000Y-47886000D03*
X170982000Y-47886000D03*
D14*
X173482000Y-58086000D03*
D13*
X175982000Y-47886000D03*
X181142000Y-47886000D03*
D14*
X183642000Y-58086000D03*
D13*
X186142000Y-47886000D03*
X191302000Y-47886000D03*
D14*
X193802000Y-58086000D03*
D13*
X196302000Y-47886000D03*
D15*
X205740000Y-48260000D03*
X205740000Y-60960000D03*
X205740000Y-68580000D03*
X200660000Y-76200000D03*
X185420000Y-76200000D03*
X170180000Y-76200000D03*
X154940000Y-76200000D03*
X137160000Y-76200000D03*
X121920000Y-76200000D03*
X106680000Y-76200000D03*
X91440000Y-76200000D03*
X91440000Y-60960000D03*
X91440000Y-48260000D03*
D16*
X119126000Y-63500000D03*
X144653000Y-68072000D03*
X137922000Y-59182000D03*
X137795000Y-49530000D03*
X188849000Y-51181000D03*
X181610000Y-64770000D03*
X181610000Y-62738000D03*
X175006000Y-64770000D03*
X175006000Y-62103000D03*
X141351000Y-64770000D03*
X141351000Y-62738000D03*
X134874000Y-64770000D03*
X134874000Y-62484000D03*
X182118000Y-65405000D03*
X177292000Y-67945000D03*
X178181000Y-67945000D03*
X181483000Y-66040000D03*
X136652000Y-68199000D03*
X141605000Y-65532000D03*
X137541000Y-68199000D03*
X140843000Y-66167000D03*
X138303000Y-69723000D03*
D17*
X106500000Y-47800000D02*
X91900000Y-47800000D01*
X208280000Y-50800000D02*
X205740000Y-48260000D01*
X208280000Y-58420000D02*
X208280000Y-50800000D01*
X205740000Y-60960000D02*
X208280000Y-58420000D01*
X208280000Y-71120000D02*
X205740000Y-68580000D01*
X208280000Y-73660000D02*
X208280000Y-71120000D01*
X205740000Y-76200000D02*
X208280000Y-73660000D01*
X200660000Y-76200000D02*
X205740000Y-76200000D01*
X170180000Y-76200000D02*
X185420000Y-76200000D01*
X137160000Y-76200000D02*
X154940000Y-76200000D01*
X106680000Y-76200000D02*
X121920000Y-76200000D01*
X91440000Y-60960000D02*
X91440000Y-76200000D01*
X91900000Y-47800000D02*
X91440000Y-48260000D01*
X186142000Y-47886000D02*
X186142000Y-48474000D01*
X186142000Y-48474000D02*
X188849000Y-51181000D01*
D18*
X181610000Y-62738000D02*
X181610000Y-64770000D01*
X175006000Y-62103000D02*
X175006000Y-64770000D01*
X141351000Y-62738000D02*
X141351000Y-64770000D01*
X134874000Y-62484000D02*
X134874000Y-64770000D01*
X182118000Y-65405000D02*
X178435000Y-65405000D01*
X178435000Y-65405000D02*
X177292000Y-66548000D01*
X177292000Y-66548000D02*
X177292000Y-67945000D01*
X178181000Y-66548000D02*
X178181000Y-67945000D01*
X178689000Y-66040000D02*
X178181000Y-66548000D01*
X181483000Y-66040000D02*
X178689000Y-66040000D01*
D17*
X136652000Y-66675000D02*
X136652000Y-68199000D01*
X137795000Y-65532000D02*
X136652000Y-66675000D01*
X141605000Y-65532000D02*
X137795000Y-65532000D01*
X147066000Y-65532000D02*
X141605000Y-65532000D01*
X149860000Y-68326000D02*
X147066000Y-65532000D01*
X149860000Y-70612000D02*
X149860000Y-68326000D01*
X137541000Y-66929000D02*
X137541000Y-68199000D01*
X138303000Y-66167000D02*
X137541000Y-66929000D01*
X140843000Y-68707000D02*
X140843000Y-66167000D01*
X140843000Y-66167000D02*
X138303000Y-66167000D01*
X144526000Y-72390000D02*
X140843000Y-68707000D01*
X151892000Y-72390000D02*
X144526000Y-72390000D01*
X152400000Y-71882000D02*
X151892000Y-72390000D01*
X152400000Y-70612000D02*
X152400000Y-71882000D01*
X154940000Y-70612000D02*
X154940000Y-72263000D01*
X138303000Y-71374000D02*
X138303000Y-69723000D01*
X140208000Y-73279000D02*
X138303000Y-71374000D01*
X153924000Y-73279000D02*
X140208000Y-73279000D01*
X154940000Y-72263000D02*
X153924000Y-73279000D01*
D19*
G36*
X105275130Y-46754738D02*
X104997901Y-46865641D01*
X104754677Y-47511593D01*
X104777164Y-48201453D01*
X104997901Y-48734359D01*
X105275132Y-48845263D01*
X106320395Y-47800000D01*
X106306253Y-47785858D01*
X106485858Y-47606253D01*
X106500000Y-47620395D01*
X106514143Y-47606253D01*
X106693748Y-47785858D01*
X106679605Y-47800000D01*
X107724868Y-48845263D01*
X108002099Y-48734359D01*
X108245323Y-48088407D01*
X108222836Y-47398547D01*
X108002099Y-46865641D01*
X107724870Y-46754738D01*
X107769608Y-46710000D01*
X110230392Y-46710000D01*
X110275130Y-46754738D01*
X109997901Y-46865641D01*
X109754677Y-47511593D01*
X109777164Y-48201453D01*
X109997901Y-48734359D01*
X110275132Y-48845263D01*
X111320395Y-47800000D01*
X111306253Y-47785858D01*
X111485858Y-47606253D01*
X111500000Y-47620395D01*
X111514143Y-47606253D01*
X111693748Y-47785858D01*
X111679605Y-47800000D01*
X112724868Y-48845263D01*
X113002099Y-48734359D01*
X113245323Y-48088407D01*
X113222836Y-47398547D01*
X113002099Y-46865641D01*
X112724870Y-46754738D01*
X112769608Y-46710000D01*
X118859788Y-46710000D01*
X118843090Y-46726698D01*
X118957130Y-46840738D01*
X118679901Y-46951641D01*
X118436677Y-47597593D01*
X118459164Y-48287453D01*
X118679901Y-48820359D01*
X118957132Y-48931263D01*
X120002395Y-47886000D01*
X119988253Y-47871858D01*
X120167858Y-47692253D01*
X120182000Y-47706395D01*
X120196143Y-47692253D01*
X120375748Y-47871858D01*
X120361605Y-47886000D01*
X121406868Y-48931263D01*
X121684099Y-48820359D01*
X121927323Y-48174407D01*
X121904836Y-47484547D01*
X121684099Y-46951641D01*
X121406870Y-46840738D01*
X121520910Y-46726698D01*
X121504212Y-46710000D01*
X123859788Y-46710000D01*
X123843090Y-46726698D01*
X123957130Y-46840738D01*
X123679901Y-46951641D01*
X123436677Y-47597593D01*
X123459164Y-48287453D01*
X123679901Y-48820359D01*
X123957132Y-48931263D01*
X125002395Y-47886000D01*
X124988253Y-47871858D01*
X125167858Y-47692253D01*
X125182000Y-47706395D01*
X125196143Y-47692253D01*
X125375748Y-47871858D01*
X125361605Y-47886000D01*
X126406868Y-48931263D01*
X126684099Y-48820359D01*
X126927323Y-48174407D01*
X126904836Y-47484547D01*
X126684099Y-46951641D01*
X126406870Y-46840738D01*
X126520910Y-46726698D01*
X126504212Y-46710000D01*
X129019788Y-46710000D01*
X129003090Y-46726698D01*
X129117130Y-46840738D01*
X128839901Y-46951641D01*
X128596677Y-47597593D01*
X128619164Y-48287453D01*
X128839901Y-48820359D01*
X129117132Y-48931263D01*
X130162395Y-47886000D01*
X130148253Y-47871858D01*
X130327858Y-47692253D01*
X130342000Y-47706395D01*
X130356143Y-47692253D01*
X130535748Y-47871858D01*
X130521605Y-47886000D01*
X131566868Y-48931263D01*
X131844099Y-48820359D01*
X132087323Y-48174407D01*
X132064836Y-47484547D01*
X131844099Y-46951641D01*
X131566870Y-46840738D01*
X131680910Y-46726698D01*
X131664212Y-46710000D01*
X134019788Y-46710000D01*
X134003090Y-46726698D01*
X134117130Y-46840738D01*
X133839901Y-46951641D01*
X133596677Y-47597593D01*
X133619164Y-48287453D01*
X133839901Y-48820359D01*
X134117132Y-48931263D01*
X135162395Y-47886000D01*
X135148253Y-47871858D01*
X135327858Y-47692253D01*
X135342000Y-47706395D01*
X135356143Y-47692253D01*
X135535748Y-47871858D01*
X135521605Y-47886000D01*
X136566868Y-48931263D01*
X136844099Y-48820359D01*
X137087323Y-48174407D01*
X137064836Y-47484547D01*
X136844099Y-46951641D01*
X136566870Y-46840738D01*
X136680910Y-46726698D01*
X136664212Y-46710000D01*
X139179788Y-46710000D01*
X139163090Y-46726698D01*
X139277130Y-46840738D01*
X138999901Y-46951641D01*
X138756677Y-47597593D01*
X138779164Y-48287453D01*
X138999901Y-48820359D01*
X139277132Y-48931263D01*
X140322395Y-47886000D01*
X140308253Y-47871858D01*
X140487858Y-47692253D01*
X140502000Y-47706395D01*
X140516143Y-47692253D01*
X140695748Y-47871858D01*
X140681605Y-47886000D01*
X141726868Y-48931263D01*
X142004099Y-48820359D01*
X142247323Y-48174407D01*
X142224836Y-47484547D01*
X142004099Y-46951641D01*
X141726870Y-46840738D01*
X141840910Y-46726698D01*
X141824212Y-46710000D01*
X144179788Y-46710000D01*
X144163090Y-46726698D01*
X144277130Y-46840738D01*
X143999901Y-46951641D01*
X143756677Y-47597593D01*
X143779164Y-48287453D01*
X143999901Y-48820359D01*
X144277132Y-48931263D01*
X145322395Y-47886000D01*
X145308253Y-47871858D01*
X145487858Y-47692253D01*
X145502000Y-47706395D01*
X145516143Y-47692253D01*
X145695748Y-47871858D01*
X145681605Y-47886000D01*
X146726868Y-48931263D01*
X147004099Y-48820359D01*
X147247323Y-48174407D01*
X147224836Y-47484547D01*
X147004099Y-46951641D01*
X146726870Y-46840738D01*
X146840910Y-46726698D01*
X146824212Y-46710000D01*
X149339788Y-46710000D01*
X149323090Y-46726698D01*
X149437130Y-46840738D01*
X149159901Y-46951641D01*
X148916677Y-47597593D01*
X148939164Y-48287453D01*
X149159901Y-48820359D01*
X149437132Y-48931263D01*
X150482395Y-47886000D01*
X150468253Y-47871858D01*
X150647858Y-47692253D01*
X150662000Y-47706395D01*
X150676143Y-47692253D01*
X150855748Y-47871858D01*
X150841605Y-47886000D01*
X151886868Y-48931263D01*
X152164099Y-48820359D01*
X152407323Y-48174407D01*
X152384836Y-47484547D01*
X152164099Y-46951641D01*
X151886870Y-46840738D01*
X152000910Y-46726698D01*
X151984212Y-46710000D01*
X154339788Y-46710000D01*
X154323090Y-46726698D01*
X154437130Y-46840738D01*
X154159901Y-46951641D01*
X153916677Y-47597593D01*
X153939164Y-48287453D01*
X154159901Y-48820359D01*
X154437132Y-48931263D01*
X155482395Y-47886000D01*
X155468253Y-47871858D01*
X155647858Y-47692253D01*
X155662000Y-47706395D01*
X155676143Y-47692253D01*
X155855748Y-47871858D01*
X155841605Y-47886000D01*
X156886868Y-48931263D01*
X157164099Y-48820359D01*
X157407323Y-48174407D01*
X157384836Y-47484547D01*
X157164099Y-46951641D01*
X156886870Y-46840738D01*
X157000910Y-46726698D01*
X156984212Y-46710000D01*
X159499788Y-46710000D01*
X159483090Y-46726698D01*
X159597130Y-46840738D01*
X159319901Y-46951641D01*
X159076677Y-47597593D01*
X159099164Y-48287453D01*
X159319901Y-48820359D01*
X159597132Y-48931263D01*
X160642395Y-47886000D01*
X160628253Y-47871858D01*
X160807858Y-47692253D01*
X160822000Y-47706395D01*
X160836143Y-47692253D01*
X161015748Y-47871858D01*
X161001605Y-47886000D01*
X162046868Y-48931263D01*
X162324099Y-48820359D01*
X162567323Y-48174407D01*
X162544836Y-47484547D01*
X162324099Y-46951641D01*
X162046870Y-46840738D01*
X162160910Y-46726698D01*
X162144212Y-46710000D01*
X164499788Y-46710000D01*
X164483090Y-46726698D01*
X164597130Y-46840738D01*
X164319901Y-46951641D01*
X164076677Y-47597593D01*
X164099164Y-48287453D01*
X164319901Y-48820359D01*
X164597132Y-48931263D01*
X165642395Y-47886000D01*
X165628253Y-47871858D01*
X165807858Y-47692253D01*
X165822000Y-47706395D01*
X165836143Y-47692253D01*
X166015748Y-47871858D01*
X166001605Y-47886000D01*
X167046868Y-48931263D01*
X167324099Y-48820359D01*
X167567323Y-48174407D01*
X167544836Y-47484547D01*
X167324099Y-46951641D01*
X167046870Y-46840738D01*
X167160910Y-46726698D01*
X167144212Y-46710000D01*
X169659788Y-46710000D01*
X169643090Y-46726698D01*
X169757130Y-46840738D01*
X169479901Y-46951641D01*
X169236677Y-47597593D01*
X169259164Y-48287453D01*
X169479901Y-48820359D01*
X169757132Y-48931263D01*
X170802395Y-47886000D01*
X170788253Y-47871858D01*
X170967858Y-47692253D01*
X170982000Y-47706395D01*
X170996143Y-47692253D01*
X171175748Y-47871858D01*
X171161605Y-47886000D01*
X172206868Y-48931263D01*
X172484099Y-48820359D01*
X172727323Y-48174407D01*
X172704836Y-47484547D01*
X172484099Y-46951641D01*
X172206870Y-46840738D01*
X172320910Y-46726698D01*
X172304212Y-46710000D01*
X174659788Y-46710000D01*
X174643090Y-46726698D01*
X174757130Y-46840738D01*
X174479901Y-46951641D01*
X174236677Y-47597593D01*
X174259164Y-48287453D01*
X174479901Y-48820359D01*
X174757132Y-48931263D01*
X175802395Y-47886000D01*
X175788253Y-47871858D01*
X175967858Y-47692253D01*
X175982000Y-47706395D01*
X175996143Y-47692253D01*
X176175748Y-47871858D01*
X176161605Y-47886000D01*
X177206868Y-48931263D01*
X177484099Y-48820359D01*
X177727323Y-48174407D01*
X177704836Y-47484547D01*
X177484099Y-46951641D01*
X177206870Y-46840738D01*
X177320910Y-46726698D01*
X177304212Y-46710000D01*
X179819788Y-46710000D01*
X179803090Y-46726698D01*
X179917130Y-46840738D01*
X179639901Y-46951641D01*
X179396677Y-47597593D01*
X179419164Y-48287453D01*
X179639901Y-48820359D01*
X179917132Y-48931263D01*
X180962395Y-47886000D01*
X180948253Y-47871858D01*
X181127858Y-47692253D01*
X181142000Y-47706395D01*
X181156143Y-47692253D01*
X181335748Y-47871858D01*
X181321605Y-47886000D01*
X182366868Y-48931263D01*
X182644099Y-48820359D01*
X182887323Y-48174407D01*
X182864836Y-47484547D01*
X182644099Y-46951641D01*
X182366870Y-46840738D01*
X182480910Y-46726698D01*
X182464212Y-46710000D01*
X184819788Y-46710000D01*
X184803090Y-46726698D01*
X184917130Y-46840738D01*
X184639901Y-46951641D01*
X184396677Y-47597593D01*
X184419164Y-48287453D01*
X184639901Y-48820359D01*
X184917132Y-48931263D01*
X185962395Y-47886000D01*
X185948253Y-47871858D01*
X186127858Y-47692253D01*
X186142000Y-47706395D01*
X186156143Y-47692253D01*
X186335748Y-47871858D01*
X186321605Y-47886000D01*
X187366868Y-48931263D01*
X187644099Y-48820359D01*
X187887323Y-48174407D01*
X187864836Y-47484547D01*
X187644099Y-46951641D01*
X187366870Y-46840738D01*
X187480910Y-46726698D01*
X187464212Y-46710000D01*
X189979788Y-46710000D01*
X189963090Y-46726698D01*
X190077130Y-46840738D01*
X189799901Y-46951641D01*
X189556677Y-47597593D01*
X189579164Y-48287453D01*
X189799901Y-48820359D01*
X190077132Y-48931263D01*
X191122395Y-47886000D01*
X191108253Y-47871858D01*
X191287858Y-47692253D01*
X191302000Y-47706395D01*
X191316143Y-47692253D01*
X191495748Y-47871858D01*
X191481605Y-47886000D01*
X192526868Y-48931263D01*
X192804099Y-48820359D01*
X193047323Y-48174407D01*
X193024836Y-47484547D01*
X192804099Y-46951641D01*
X192526870Y-46840738D01*
X192640910Y-46726698D01*
X192624212Y-46710000D01*
X194979788Y-46710000D01*
X194963090Y-46726698D01*
X195077130Y-46840738D01*
X194799901Y-46951641D01*
X194556677Y-47597593D01*
X194579164Y-48287453D01*
X194799901Y-48820359D01*
X195077132Y-48931263D01*
X196122395Y-47886000D01*
X196108253Y-47871858D01*
X196287858Y-47692253D01*
X196302000Y-47706395D01*
X196316143Y-47692253D01*
X196495748Y-47871858D01*
X196481605Y-47886000D01*
X197526868Y-48931263D01*
X197804099Y-48820359D01*
X198047323Y-48174407D01*
X198024836Y-47484547D01*
X197804099Y-46951641D01*
X197526870Y-46840738D01*
X197640910Y-46726698D01*
X197624212Y-46710000D01*
X208290000Y-46710000D01*
X208290000Y-78290000D01*
X89710000Y-78290000D01*
X89710000Y-73472325D01*
X98614587Y-73472325D01*
X98976916Y-74349229D01*
X99647242Y-75020726D01*
X100523513Y-75384585D01*
X101472325Y-75385413D01*
X102349229Y-75023084D01*
X103020726Y-74352758D01*
X103384585Y-73476487D01*
X103385413Y-72527675D01*
X103023084Y-71650771D01*
X102352758Y-70979274D01*
X101476487Y-70615415D01*
X100527675Y-70614587D01*
X99650771Y-70976916D01*
X98979274Y-71647242D01*
X98615415Y-72523513D01*
X98614587Y-73472325D01*
X89710000Y-73472325D01*
X89710000Y-68384167D01*
X135716838Y-68384167D01*
X135858883Y-68727943D01*
X136121673Y-68991192D01*
X136465201Y-69133838D01*
X136837167Y-69134162D01*
X137096714Y-69026920D01*
X137354201Y-69133838D01*
X137569558Y-69134026D01*
X137510808Y-69192673D01*
X137368162Y-69536201D01*
X137367838Y-69908167D01*
X137509883Y-70251943D01*
X137518000Y-70260074D01*
X137518000Y-71374000D01*
X137577755Y-71674407D01*
X137747921Y-71929079D01*
X139652921Y-73834079D01*
X139907594Y-74004245D01*
X140208000Y-74064000D01*
X153924000Y-74064000D01*
X154224407Y-74004245D01*
X154479079Y-73834079D01*
X154840833Y-73472325D01*
X201614587Y-73472325D01*
X201976916Y-74349229D01*
X202647242Y-75020726D01*
X203523513Y-75384585D01*
X204472325Y-75385413D01*
X205349229Y-75023084D01*
X206020726Y-74352758D01*
X206384585Y-73476487D01*
X206385413Y-72527675D01*
X206023084Y-71650771D01*
X205352758Y-70979274D01*
X204476487Y-70615415D01*
X203527675Y-70614587D01*
X202650771Y-70976916D01*
X201979274Y-71647242D01*
X201615415Y-72523513D01*
X201614587Y-73472325D01*
X154840833Y-73472325D01*
X155495079Y-72818079D01*
X155665245Y-72563407D01*
X155725000Y-72263000D01*
X155725000Y-72039944D01*
X155999670Y-71856415D01*
X156210000Y-71541634D01*
X156420330Y-71856415D01*
X156906511Y-72181271D01*
X157480000Y-72295345D01*
X158053489Y-72181271D01*
X158539670Y-71856415D01*
X158750000Y-71541634D01*
X158960330Y-71856415D01*
X159446511Y-72181271D01*
X160020000Y-72295345D01*
X160593489Y-72181271D01*
X161079670Y-71856415D01*
X161290000Y-71541634D01*
X161500330Y-71856415D01*
X161986511Y-72181271D01*
X162560000Y-72295345D01*
X163133489Y-72181271D01*
X163619670Y-71856415D01*
X163830000Y-71541634D01*
X164040330Y-71856415D01*
X164526511Y-72181271D01*
X165100000Y-72295345D01*
X165673489Y-72181271D01*
X166159670Y-71856415D01*
X166370000Y-71541634D01*
X166580330Y-71856415D01*
X167066511Y-72181271D01*
X167640000Y-72295345D01*
X168213489Y-72181271D01*
X168699670Y-71856415D01*
X168906461Y-71546931D01*
X169277964Y-71962732D01*
X169805209Y-72216709D01*
X169820974Y-72219358D01*
X170053000Y-72098217D01*
X170053000Y-70739000D01*
X170307000Y-70739000D01*
X170307000Y-72098217D01*
X170539026Y-72219358D01*
X170554791Y-72216709D01*
X171082036Y-71962732D01*
X171471954Y-71526320D01*
X171665184Y-70973913D01*
X171520924Y-70739000D01*
X170307000Y-70739000D01*
X170053000Y-70739000D01*
X170033000Y-70739000D01*
X170033000Y-70485000D01*
X170053000Y-70485000D01*
X170053000Y-69125783D01*
X170307000Y-69125783D01*
X170307000Y-70485000D01*
X171520924Y-70485000D01*
X171665184Y-70250087D01*
X171471954Y-69697680D01*
X171082036Y-69261268D01*
X170554791Y-69007291D01*
X170539026Y-69004642D01*
X170307000Y-69125783D01*
X170053000Y-69125783D01*
X169820974Y-69004642D01*
X169805209Y-69007291D01*
X169277964Y-69261268D01*
X168906461Y-69677069D01*
X168699670Y-69367585D01*
X168213489Y-69042729D01*
X167640000Y-68928655D01*
X167066511Y-69042729D01*
X166580330Y-69367585D01*
X166370000Y-69682366D01*
X166159670Y-69367585D01*
X165673489Y-69042729D01*
X165100000Y-68928655D01*
X164526511Y-69042729D01*
X164040330Y-69367585D01*
X163830000Y-69682366D01*
X163619670Y-69367585D01*
X163133489Y-69042729D01*
X162560000Y-68928655D01*
X161986511Y-69042729D01*
X161500330Y-69367585D01*
X161290000Y-69682366D01*
X161079670Y-69367585D01*
X160593489Y-69042729D01*
X160020000Y-68928655D01*
X159446511Y-69042729D01*
X158960330Y-69367585D01*
X158750000Y-69682366D01*
X158539670Y-69367585D01*
X158053489Y-69042729D01*
X157480000Y-68928655D01*
X156906511Y-69042729D01*
X156420330Y-69367585D01*
X156210000Y-69682366D01*
X155999670Y-69367585D01*
X155513489Y-69042729D01*
X154940000Y-68928655D01*
X154366511Y-69042729D01*
X153880330Y-69367585D01*
X153670000Y-69682366D01*
X153459670Y-69367585D01*
X152973489Y-69042729D01*
X152400000Y-68928655D01*
X151826511Y-69042729D01*
X151340330Y-69367585D01*
X151130000Y-69682366D01*
X150919670Y-69367585D01*
X150645000Y-69184056D01*
X150645000Y-68326000D01*
X150606047Y-68130167D01*
X176356838Y-68130167D01*
X176498883Y-68473943D01*
X176761673Y-68737192D01*
X177105201Y-68879838D01*
X177477167Y-68880162D01*
X177736714Y-68772920D01*
X177994201Y-68879838D01*
X178366167Y-68880162D01*
X178709943Y-68738117D01*
X178973192Y-68475327D01*
X179115838Y-68131799D01*
X179116162Y-67759833D01*
X178974117Y-67416057D01*
X178916000Y-67357838D01*
X178916000Y-66852446D01*
X178993447Y-66775000D01*
X180895581Y-66775000D01*
X180952673Y-66832192D01*
X181296201Y-66974838D01*
X181668167Y-66975162D01*
X182011943Y-66833117D01*
X182275192Y-66570327D01*
X182384765Y-66306446D01*
X182646943Y-66198117D01*
X182910192Y-65935327D01*
X183052838Y-65591799D01*
X183053162Y-65219833D01*
X182911117Y-64876057D01*
X182648327Y-64612808D01*
X182537749Y-64566892D01*
X182403117Y-64241057D01*
X182345000Y-64182838D01*
X182345000Y-63325419D01*
X182402192Y-63268327D01*
X182544838Y-62924799D01*
X182545162Y-62552833D01*
X182403117Y-62209057D01*
X182140327Y-61945808D01*
X181796799Y-61803162D01*
X181424833Y-61802838D01*
X181081057Y-61944883D01*
X180817808Y-62207673D01*
X180675162Y-62551201D01*
X180674838Y-62923167D01*
X180816883Y-63266943D01*
X180875000Y-63325162D01*
X180875000Y-64182581D01*
X180817808Y-64239673D01*
X180675162Y-64583201D01*
X180675086Y-64670000D01*
X178435000Y-64670000D01*
X178153728Y-64725949D01*
X177915276Y-64885277D01*
X176772277Y-66028277D01*
X176612949Y-66266728D01*
X176557000Y-66548000D01*
X176557000Y-67357581D01*
X176499808Y-67414673D01*
X176357162Y-67758201D01*
X176356838Y-68130167D01*
X150606047Y-68130167D01*
X150585245Y-68025594D01*
X150415079Y-67770921D01*
X147621079Y-64976921D01*
X147366407Y-64806755D01*
X147066000Y-64747000D01*
X142286021Y-64747000D01*
X142286162Y-64584833D01*
X142144117Y-64241057D01*
X142086000Y-64182838D01*
X142086000Y-63325419D01*
X142143192Y-63268327D01*
X142285838Y-62924799D01*
X142286162Y-62552833D01*
X142176805Y-62288167D01*
X174070838Y-62288167D01*
X174212883Y-62631943D01*
X174271000Y-62690162D01*
X174271000Y-64182581D01*
X174213808Y-64239673D01*
X174071162Y-64583201D01*
X174070838Y-64955167D01*
X174212883Y-65298943D01*
X174475673Y-65562192D01*
X174819201Y-65704838D01*
X175191167Y-65705162D01*
X175534943Y-65563117D01*
X175798192Y-65300327D01*
X175940838Y-64956799D01*
X175941162Y-64584833D01*
X175799117Y-64241057D01*
X175741000Y-64182838D01*
X175741000Y-62690419D01*
X175798192Y-62633327D01*
X175940838Y-62289799D01*
X175941162Y-61917833D01*
X175799117Y-61574057D01*
X175536327Y-61310808D01*
X175192799Y-61168162D01*
X174820833Y-61167838D01*
X174477057Y-61309883D01*
X174213808Y-61572673D01*
X174071162Y-61916201D01*
X174070838Y-62288167D01*
X142176805Y-62288167D01*
X142144117Y-62209057D01*
X141881327Y-61945808D01*
X141537799Y-61803162D01*
X141165833Y-61802838D01*
X140822057Y-61944883D01*
X140558808Y-62207673D01*
X140416162Y-62551201D01*
X140415838Y-62923167D01*
X140557883Y-63266943D01*
X140616000Y-63325162D01*
X140616000Y-64182581D01*
X140558808Y-64239673D01*
X140416162Y-64583201D01*
X140416019Y-64747000D01*
X137795000Y-64747000D01*
X137494593Y-64806755D01*
X137239921Y-64976921D01*
X136096921Y-66119921D01*
X135926755Y-66374593D01*
X135926755Y-66374594D01*
X135867000Y-66675000D01*
X135867000Y-67661494D01*
X135859808Y-67668673D01*
X135717162Y-68012201D01*
X135716838Y-68384167D01*
X89710000Y-68384167D01*
X89710000Y-62669167D01*
X133938838Y-62669167D01*
X134080883Y-63012943D01*
X134139000Y-63071162D01*
X134139000Y-64182581D01*
X134081808Y-64239673D01*
X133939162Y-64583201D01*
X133938838Y-64955167D01*
X134080883Y-65298943D01*
X134343673Y-65562192D01*
X134687201Y-65704838D01*
X135059167Y-65705162D01*
X135402943Y-65563117D01*
X135666192Y-65300327D01*
X135808838Y-64956799D01*
X135809162Y-64584833D01*
X135667117Y-64241057D01*
X135609000Y-64182838D01*
X135609000Y-63071419D01*
X135666192Y-63014327D01*
X135808838Y-62670799D01*
X135809162Y-62298833D01*
X135667117Y-61955057D01*
X135404327Y-61691808D01*
X135060799Y-61549162D01*
X134688833Y-61548838D01*
X134345057Y-61690883D01*
X134081808Y-61953673D01*
X133939162Y-62297201D01*
X133938838Y-62669167D01*
X89710000Y-62669167D01*
X89710000Y-58422815D01*
X106864630Y-58422815D01*
X107188980Y-59207800D01*
X107789041Y-59808909D01*
X108573459Y-60134628D01*
X109422815Y-60135370D01*
X110207800Y-59811020D01*
X110808909Y-59210959D01*
X111100464Y-58508815D01*
X120546630Y-58508815D01*
X120870980Y-59293800D01*
X121471041Y-59894909D01*
X122255459Y-60220628D01*
X123104815Y-60221370D01*
X123889800Y-59897020D01*
X124490909Y-59296959D01*
X124816628Y-58512541D01*
X124816631Y-58508815D01*
X130706630Y-58508815D01*
X131030980Y-59293800D01*
X131631041Y-59894909D01*
X132415459Y-60220628D01*
X133264815Y-60221370D01*
X134049800Y-59897020D01*
X134650909Y-59296959D01*
X134976628Y-58512541D01*
X134976631Y-58508815D01*
X140866630Y-58508815D01*
X141190980Y-59293800D01*
X141791041Y-59894909D01*
X142575459Y-60220628D01*
X143424815Y-60221370D01*
X144209800Y-59897020D01*
X144810909Y-59296959D01*
X145136628Y-58512541D01*
X145136631Y-58508815D01*
X151026630Y-58508815D01*
X151350980Y-59293800D01*
X151951041Y-59894909D01*
X152735459Y-60220628D01*
X153584815Y-60221370D01*
X154369800Y-59897020D01*
X154970909Y-59296959D01*
X155296628Y-58512541D01*
X155296631Y-58508815D01*
X161186630Y-58508815D01*
X161510980Y-59293800D01*
X162111041Y-59894909D01*
X162895459Y-60220628D01*
X163744815Y-60221370D01*
X164529800Y-59897020D01*
X165130909Y-59296959D01*
X165456628Y-58512541D01*
X165456631Y-58508815D01*
X171346630Y-58508815D01*
X171670980Y-59293800D01*
X172271041Y-59894909D01*
X173055459Y-60220628D01*
X173904815Y-60221370D01*
X174689800Y-59897020D01*
X175290909Y-59296959D01*
X175616628Y-58512541D01*
X175616631Y-58508815D01*
X181506630Y-58508815D01*
X181830980Y-59293800D01*
X182431041Y-59894909D01*
X183215459Y-60220628D01*
X184064815Y-60221370D01*
X184849800Y-59897020D01*
X185450909Y-59296959D01*
X185776628Y-58512541D01*
X185776631Y-58508815D01*
X191666630Y-58508815D01*
X191990980Y-59293800D01*
X192591041Y-59894909D01*
X193375459Y-60220628D01*
X194224815Y-60221370D01*
X195009800Y-59897020D01*
X195610909Y-59296959D01*
X195936628Y-58512541D01*
X195937370Y-57663185D01*
X195613020Y-56878200D01*
X195012959Y-56277091D01*
X194228541Y-55951372D01*
X193379185Y-55950630D01*
X192594200Y-56274980D01*
X191993091Y-56875041D01*
X191667372Y-57659459D01*
X191666630Y-58508815D01*
X185776631Y-58508815D01*
X185777370Y-57663185D01*
X185453020Y-56878200D01*
X184852959Y-56277091D01*
X184068541Y-55951372D01*
X183219185Y-55950630D01*
X182434200Y-56274980D01*
X181833091Y-56875041D01*
X181507372Y-57659459D01*
X181506630Y-58508815D01*
X175616631Y-58508815D01*
X175617370Y-57663185D01*
X175293020Y-56878200D01*
X174692959Y-56277091D01*
X173908541Y-55951372D01*
X173059185Y-55950630D01*
X172274200Y-56274980D01*
X171673091Y-56875041D01*
X171347372Y-57659459D01*
X171346630Y-58508815D01*
X165456631Y-58508815D01*
X165457370Y-57663185D01*
X165133020Y-56878200D01*
X164532959Y-56277091D01*
X163748541Y-55951372D01*
X162899185Y-55950630D01*
X162114200Y-56274980D01*
X161513091Y-56875041D01*
X161187372Y-57659459D01*
X161186630Y-58508815D01*
X155296631Y-58508815D01*
X155297370Y-57663185D01*
X154973020Y-56878200D01*
X154372959Y-56277091D01*
X153588541Y-55951372D01*
X152739185Y-55950630D01*
X151954200Y-56274980D01*
X151353091Y-56875041D01*
X151027372Y-57659459D01*
X151026630Y-58508815D01*
X145136631Y-58508815D01*
X145137370Y-57663185D01*
X144813020Y-56878200D01*
X144212959Y-56277091D01*
X143428541Y-55951372D01*
X142579185Y-55950630D01*
X141794200Y-56274980D01*
X141193091Y-56875041D01*
X140867372Y-57659459D01*
X140866630Y-58508815D01*
X134976631Y-58508815D01*
X134977370Y-57663185D01*
X134653020Y-56878200D01*
X134052959Y-56277091D01*
X133268541Y-55951372D01*
X132419185Y-55950630D01*
X131634200Y-56274980D01*
X131033091Y-56875041D01*
X130707372Y-57659459D01*
X130706630Y-58508815D01*
X124816631Y-58508815D01*
X124817370Y-57663185D01*
X124493020Y-56878200D01*
X123892959Y-56277091D01*
X123108541Y-55951372D01*
X122259185Y-55950630D01*
X121474200Y-56274980D01*
X120873091Y-56875041D01*
X120547372Y-57659459D01*
X120546630Y-58508815D01*
X111100464Y-58508815D01*
X111134628Y-58426541D01*
X111135370Y-57577185D01*
X110811020Y-56792200D01*
X110210959Y-56191091D01*
X109426541Y-55865372D01*
X108577185Y-55864630D01*
X107792200Y-56188980D01*
X107191091Y-56789041D01*
X106865372Y-57573459D01*
X106864630Y-58422815D01*
X89710000Y-58422815D01*
X89710000Y-52472325D01*
X98614587Y-52472325D01*
X98976916Y-53349229D01*
X99647242Y-54020726D01*
X100523513Y-54384585D01*
X101472325Y-54385413D01*
X102349229Y-54023084D01*
X103020726Y-53352758D01*
X103384585Y-52476487D01*
X103384588Y-52472325D01*
X201614587Y-52472325D01*
X201976916Y-53349229D01*
X202647242Y-54020726D01*
X203523513Y-54384585D01*
X204472325Y-54385413D01*
X205349229Y-54023084D01*
X206020726Y-53352758D01*
X206384585Y-52476487D01*
X206385413Y-51527675D01*
X206023084Y-50650771D01*
X205352758Y-49979274D01*
X204476487Y-49615415D01*
X203527675Y-49614587D01*
X202650771Y-49976916D01*
X201979274Y-50647242D01*
X201615415Y-51523513D01*
X201614587Y-52472325D01*
X103384588Y-52472325D01*
X103385413Y-51527675D01*
X103023084Y-50650771D01*
X102352758Y-49979274D01*
X101476487Y-49615415D01*
X100527675Y-49614587D01*
X99650771Y-49976916D01*
X98979274Y-50647242D01*
X98615415Y-51523513D01*
X98614587Y-52472325D01*
X89710000Y-52472325D01*
X89710000Y-49024868D01*
X105454737Y-49024868D01*
X105565641Y-49302099D01*
X106211593Y-49545323D01*
X106901453Y-49522836D01*
X107434359Y-49302099D01*
X107545263Y-49024868D01*
X110454737Y-49024868D01*
X110565641Y-49302099D01*
X111211593Y-49545323D01*
X111901453Y-49522836D01*
X112434359Y-49302099D01*
X112510859Y-49110868D01*
X119136737Y-49110868D01*
X119247641Y-49388099D01*
X119893593Y-49631323D01*
X120583453Y-49608836D01*
X121116359Y-49388099D01*
X121227263Y-49110868D01*
X124136737Y-49110868D01*
X124247641Y-49388099D01*
X124893593Y-49631323D01*
X125583453Y-49608836D01*
X126116359Y-49388099D01*
X126227263Y-49110868D01*
X129296737Y-49110868D01*
X129407641Y-49388099D01*
X130053593Y-49631323D01*
X130743453Y-49608836D01*
X131276359Y-49388099D01*
X131387263Y-49110868D01*
X134296737Y-49110868D01*
X134407641Y-49388099D01*
X135053593Y-49631323D01*
X135743453Y-49608836D01*
X136276359Y-49388099D01*
X136387263Y-49110868D01*
X139456737Y-49110868D01*
X139567641Y-49388099D01*
X140213593Y-49631323D01*
X140903453Y-49608836D01*
X141436359Y-49388099D01*
X141547263Y-49110868D01*
X144456737Y-49110868D01*
X144567641Y-49388099D01*
X145213593Y-49631323D01*
X145903453Y-49608836D01*
X146436359Y-49388099D01*
X146547263Y-49110868D01*
X149616737Y-49110868D01*
X149727641Y-49388099D01*
X150373593Y-49631323D01*
X151063453Y-49608836D01*
X151596359Y-49388099D01*
X151707263Y-49110868D01*
X154616737Y-49110868D01*
X154727641Y-49388099D01*
X155373593Y-49631323D01*
X156063453Y-49608836D01*
X156596359Y-49388099D01*
X156707263Y-49110868D01*
X159776737Y-49110868D01*
X159887641Y-49388099D01*
X160533593Y-49631323D01*
X161223453Y-49608836D01*
X161756359Y-49388099D01*
X161867263Y-49110868D01*
X164776737Y-49110868D01*
X164887641Y-49388099D01*
X165533593Y-49631323D01*
X166223453Y-49608836D01*
X166756359Y-49388099D01*
X166867263Y-49110868D01*
X169936737Y-49110868D01*
X170047641Y-49388099D01*
X170693593Y-49631323D01*
X171383453Y-49608836D01*
X171916359Y-49388099D01*
X172027263Y-49110868D01*
X174936737Y-49110868D01*
X175047641Y-49388099D01*
X175693593Y-49631323D01*
X176383453Y-49608836D01*
X176916359Y-49388099D01*
X177027263Y-49110868D01*
X180096737Y-49110868D01*
X180207641Y-49388099D01*
X180853593Y-49631323D01*
X181543453Y-49608836D01*
X182076359Y-49388099D01*
X182187263Y-49110868D01*
X185096737Y-49110868D01*
X185207641Y-49388099D01*
X185853593Y-49631323D01*
X186543453Y-49608836D01*
X187076359Y-49388099D01*
X187187263Y-49110868D01*
X190256737Y-49110868D01*
X190367641Y-49388099D01*
X191013593Y-49631323D01*
X191703453Y-49608836D01*
X192236359Y-49388099D01*
X192347263Y-49110868D01*
X195256737Y-49110868D01*
X195367641Y-49388099D01*
X196013593Y-49631323D01*
X196703453Y-49608836D01*
X197236359Y-49388099D01*
X197347263Y-49110868D01*
X196302000Y-48065605D01*
X195256737Y-49110868D01*
X192347263Y-49110868D01*
X191302000Y-48065605D01*
X190256737Y-49110868D01*
X187187263Y-49110868D01*
X186142000Y-48065605D01*
X185096737Y-49110868D01*
X182187263Y-49110868D01*
X181142000Y-48065605D01*
X180096737Y-49110868D01*
X177027263Y-49110868D01*
X175982000Y-48065605D01*
X174936737Y-49110868D01*
X172027263Y-49110868D01*
X170982000Y-48065605D01*
X169936737Y-49110868D01*
X166867263Y-49110868D01*
X165822000Y-48065605D01*
X164776737Y-49110868D01*
X161867263Y-49110868D01*
X160822000Y-48065605D01*
X159776737Y-49110868D01*
X156707263Y-49110868D01*
X155662000Y-48065605D01*
X154616737Y-49110868D01*
X151707263Y-49110868D01*
X150662000Y-48065605D01*
X149616737Y-49110868D01*
X146547263Y-49110868D01*
X145502000Y-48065605D01*
X144456737Y-49110868D01*
X141547263Y-49110868D01*
X140502000Y-48065605D01*
X139456737Y-49110868D01*
X136387263Y-49110868D01*
X135342000Y-48065605D01*
X134296737Y-49110868D01*
X131387263Y-49110868D01*
X130342000Y-48065605D01*
X129296737Y-49110868D01*
X126227263Y-49110868D01*
X125182000Y-48065605D01*
X124136737Y-49110868D01*
X121227263Y-49110868D01*
X120182000Y-48065605D01*
X119136737Y-49110868D01*
X112510859Y-49110868D01*
X112545263Y-49024868D01*
X111500000Y-47979605D01*
X110454737Y-49024868D01*
X107545263Y-49024868D01*
X106500000Y-47979605D01*
X105454737Y-49024868D01*
X89710000Y-49024868D01*
X89710000Y-46710000D01*
X105230392Y-46710000D01*
X105275130Y-46754738D01*
X105275130Y-46754738D01*
G37*
X105275130Y-46754738D02*
X104997901Y-46865641D01*
X104754677Y-47511593D01*
X104777164Y-48201453D01*
X104997901Y-48734359D01*
X105275132Y-48845263D01*
X106320395Y-47800000D01*
X106306253Y-47785858D01*
X106485858Y-47606253D01*
X106500000Y-47620395D01*
X106514143Y-47606253D01*
X106693748Y-47785858D01*
X106679605Y-47800000D01*
X107724868Y-48845263D01*
X108002099Y-48734359D01*
X108245323Y-48088407D01*
X108222836Y-47398547D01*
X108002099Y-46865641D01*
X107724870Y-46754738D01*
X107769608Y-46710000D01*
X110230392Y-46710000D01*
X110275130Y-46754738D01*
X109997901Y-46865641D01*
X109754677Y-47511593D01*
X109777164Y-48201453D01*
X109997901Y-48734359D01*
X110275132Y-48845263D01*
X111320395Y-47800000D01*
X111306253Y-47785858D01*
X111485858Y-47606253D01*
X111500000Y-47620395D01*
X111514143Y-47606253D01*
X111693748Y-47785858D01*
X111679605Y-47800000D01*
X112724868Y-48845263D01*
X113002099Y-48734359D01*
X113245323Y-48088407D01*
X113222836Y-47398547D01*
X113002099Y-46865641D01*
X112724870Y-46754738D01*
X112769608Y-46710000D01*
X118859788Y-46710000D01*
X118843090Y-46726698D01*
X118957130Y-46840738D01*
X118679901Y-46951641D01*
X118436677Y-47597593D01*
X118459164Y-48287453D01*
X118679901Y-48820359D01*
X118957132Y-48931263D01*
X120002395Y-47886000D01*
X119988253Y-47871858D01*
X120167858Y-47692253D01*
X120182000Y-47706395D01*
X120196143Y-47692253D01*
X120375748Y-47871858D01*
X120361605Y-47886000D01*
X121406868Y-48931263D01*
X121684099Y-48820359D01*
X121927323Y-48174407D01*
X121904836Y-47484547D01*
X121684099Y-46951641D01*
X121406870Y-46840738D01*
X121520910Y-46726698D01*
X121504212Y-46710000D01*
X123859788Y-46710000D01*
X123843090Y-46726698D01*
X123957130Y-46840738D01*
X123679901Y-46951641D01*
X123436677Y-47597593D01*
X123459164Y-48287453D01*
X123679901Y-48820359D01*
X123957132Y-48931263D01*
X125002395Y-47886000D01*
X124988253Y-47871858D01*
X125167858Y-47692253D01*
X125182000Y-47706395D01*
X125196143Y-47692253D01*
X125375748Y-47871858D01*
X125361605Y-47886000D01*
X126406868Y-48931263D01*
X126684099Y-48820359D01*
X126927323Y-48174407D01*
X126904836Y-47484547D01*
X126684099Y-46951641D01*
X126406870Y-46840738D01*
X126520910Y-46726698D01*
X126504212Y-46710000D01*
X129019788Y-46710000D01*
X129003090Y-46726698D01*
X129117130Y-46840738D01*
X128839901Y-46951641D01*
X128596677Y-47597593D01*
X128619164Y-48287453D01*
X128839901Y-48820359D01*
X129117132Y-48931263D01*
X130162395Y-47886000D01*
X130148253Y-47871858D01*
X130327858Y-47692253D01*
X130342000Y-47706395D01*
X130356143Y-47692253D01*
X130535748Y-47871858D01*
X130521605Y-47886000D01*
X131566868Y-48931263D01*
X131844099Y-48820359D01*
X132087323Y-48174407D01*
X132064836Y-47484547D01*
X131844099Y-46951641D01*
X131566870Y-46840738D01*
X131680910Y-46726698D01*
X131664212Y-46710000D01*
X134019788Y-46710000D01*
X134003090Y-46726698D01*
X134117130Y-46840738D01*
X133839901Y-46951641D01*
X133596677Y-47597593D01*
X133619164Y-48287453D01*
X133839901Y-48820359D01*
X134117132Y-48931263D01*
X135162395Y-47886000D01*
X135148253Y-47871858D01*
X135327858Y-47692253D01*
X135342000Y-47706395D01*
X135356143Y-47692253D01*
X135535748Y-47871858D01*
X135521605Y-47886000D01*
X136566868Y-48931263D01*
X136844099Y-48820359D01*
X137087323Y-48174407D01*
X137064836Y-47484547D01*
X136844099Y-46951641D01*
X136566870Y-46840738D01*
X136680910Y-46726698D01*
X136664212Y-46710000D01*
X139179788Y-46710000D01*
X139163090Y-46726698D01*
X139277130Y-46840738D01*
X138999901Y-46951641D01*
X138756677Y-47597593D01*
X138779164Y-48287453D01*
X138999901Y-48820359D01*
X139277132Y-48931263D01*
X140322395Y-47886000D01*
X140308253Y-47871858D01*
X140487858Y-47692253D01*
X140502000Y-47706395D01*
X140516143Y-47692253D01*
X140695748Y-47871858D01*
X140681605Y-47886000D01*
X141726868Y-48931263D01*
X142004099Y-48820359D01*
X142247323Y-48174407D01*
X142224836Y-47484547D01*
X142004099Y-46951641D01*
X141726870Y-46840738D01*
X141840910Y-46726698D01*
X141824212Y-46710000D01*
X144179788Y-46710000D01*
X144163090Y-46726698D01*
X144277130Y-46840738D01*
X143999901Y-46951641D01*
X143756677Y-47597593D01*
X143779164Y-48287453D01*
X143999901Y-48820359D01*
X144277132Y-48931263D01*
X145322395Y-47886000D01*
X145308253Y-47871858D01*
X145487858Y-47692253D01*
X145502000Y-47706395D01*
X145516143Y-47692253D01*
X145695748Y-47871858D01*
X145681605Y-47886000D01*
X146726868Y-48931263D01*
X147004099Y-48820359D01*
X147247323Y-48174407D01*
X147224836Y-47484547D01*
X147004099Y-46951641D01*
X146726870Y-46840738D01*
X146840910Y-46726698D01*
X146824212Y-46710000D01*
X149339788Y-46710000D01*
X149323090Y-46726698D01*
X149437130Y-46840738D01*
X149159901Y-46951641D01*
X148916677Y-47597593D01*
X148939164Y-48287453D01*
X149159901Y-48820359D01*
X149437132Y-48931263D01*
X150482395Y-47886000D01*
X150468253Y-47871858D01*
X150647858Y-47692253D01*
X150662000Y-47706395D01*
X150676143Y-47692253D01*
X150855748Y-47871858D01*
X150841605Y-47886000D01*
X151886868Y-48931263D01*
X152164099Y-48820359D01*
X152407323Y-48174407D01*
X152384836Y-47484547D01*
X152164099Y-46951641D01*
X151886870Y-46840738D01*
X152000910Y-46726698D01*
X151984212Y-46710000D01*
X154339788Y-46710000D01*
X154323090Y-46726698D01*
X154437130Y-46840738D01*
X154159901Y-46951641D01*
X153916677Y-47597593D01*
X153939164Y-48287453D01*
X154159901Y-48820359D01*
X154437132Y-48931263D01*
X155482395Y-47886000D01*
X155468253Y-47871858D01*
X155647858Y-47692253D01*
X155662000Y-47706395D01*
X155676143Y-47692253D01*
X155855748Y-47871858D01*
X155841605Y-47886000D01*
X156886868Y-48931263D01*
X157164099Y-48820359D01*
X157407323Y-48174407D01*
X157384836Y-47484547D01*
X157164099Y-46951641D01*
X156886870Y-46840738D01*
X157000910Y-46726698D01*
X156984212Y-46710000D01*
X159499788Y-46710000D01*
X159483090Y-46726698D01*
X159597130Y-46840738D01*
X159319901Y-46951641D01*
X159076677Y-47597593D01*
X159099164Y-48287453D01*
X159319901Y-48820359D01*
X159597132Y-48931263D01*
X160642395Y-47886000D01*
X160628253Y-47871858D01*
X160807858Y-47692253D01*
X160822000Y-47706395D01*
X160836143Y-47692253D01*
X161015748Y-47871858D01*
X161001605Y-47886000D01*
X162046868Y-48931263D01*
X162324099Y-48820359D01*
X162567323Y-48174407D01*
X162544836Y-47484547D01*
X162324099Y-46951641D01*
X162046870Y-46840738D01*
X162160910Y-46726698D01*
X162144212Y-46710000D01*
X164499788Y-46710000D01*
X164483090Y-46726698D01*
X164597130Y-46840738D01*
X164319901Y-46951641D01*
X164076677Y-47597593D01*
X164099164Y-48287453D01*
X164319901Y-48820359D01*
X164597132Y-48931263D01*
X165642395Y-47886000D01*
X165628253Y-47871858D01*
X165807858Y-47692253D01*
X165822000Y-47706395D01*
X165836143Y-47692253D01*
X166015748Y-47871858D01*
X166001605Y-47886000D01*
X167046868Y-48931263D01*
X167324099Y-48820359D01*
X167567323Y-48174407D01*
X167544836Y-47484547D01*
X167324099Y-46951641D01*
X167046870Y-46840738D01*
X167160910Y-46726698D01*
X167144212Y-46710000D01*
X169659788Y-46710000D01*
X169643090Y-46726698D01*
X169757130Y-46840738D01*
X169479901Y-46951641D01*
X169236677Y-47597593D01*
X169259164Y-48287453D01*
X169479901Y-48820359D01*
X169757132Y-48931263D01*
X170802395Y-47886000D01*
X170788253Y-47871858D01*
X170967858Y-47692253D01*
X170982000Y-47706395D01*
X170996143Y-47692253D01*
X171175748Y-47871858D01*
X171161605Y-47886000D01*
X172206868Y-48931263D01*
X172484099Y-48820359D01*
X172727323Y-48174407D01*
X172704836Y-47484547D01*
X172484099Y-46951641D01*
X172206870Y-46840738D01*
X172320910Y-46726698D01*
X172304212Y-46710000D01*
X174659788Y-46710000D01*
X174643090Y-46726698D01*
X174757130Y-46840738D01*
X174479901Y-46951641D01*
X174236677Y-47597593D01*
X174259164Y-48287453D01*
X174479901Y-48820359D01*
X174757132Y-48931263D01*
X175802395Y-47886000D01*
X175788253Y-47871858D01*
X175967858Y-47692253D01*
X175982000Y-47706395D01*
X175996143Y-47692253D01*
X176175748Y-47871858D01*
X176161605Y-47886000D01*
X177206868Y-48931263D01*
X177484099Y-48820359D01*
X177727323Y-48174407D01*
X177704836Y-47484547D01*
X177484099Y-46951641D01*
X177206870Y-46840738D01*
X177320910Y-46726698D01*
X177304212Y-46710000D01*
X179819788Y-46710000D01*
X179803090Y-46726698D01*
X179917130Y-46840738D01*
X179639901Y-46951641D01*
X179396677Y-47597593D01*
X179419164Y-48287453D01*
X179639901Y-48820359D01*
X179917132Y-48931263D01*
X180962395Y-47886000D01*
X180948253Y-47871858D01*
X181127858Y-47692253D01*
X181142000Y-47706395D01*
X181156143Y-47692253D01*
X181335748Y-47871858D01*
X181321605Y-47886000D01*
X182366868Y-48931263D01*
X182644099Y-48820359D01*
X182887323Y-48174407D01*
X182864836Y-47484547D01*
X182644099Y-46951641D01*
X182366870Y-46840738D01*
X182480910Y-46726698D01*
X182464212Y-46710000D01*
X184819788Y-46710000D01*
X184803090Y-46726698D01*
X184917130Y-46840738D01*
X184639901Y-46951641D01*
X184396677Y-47597593D01*
X184419164Y-48287453D01*
X184639901Y-48820359D01*
X184917132Y-48931263D01*
X185962395Y-47886000D01*
X185948253Y-47871858D01*
X186127858Y-47692253D01*
X186142000Y-47706395D01*
X186156143Y-47692253D01*
X186335748Y-47871858D01*
X186321605Y-47886000D01*
X187366868Y-48931263D01*
X187644099Y-48820359D01*
X187887323Y-48174407D01*
X187864836Y-47484547D01*
X187644099Y-46951641D01*
X187366870Y-46840738D01*
X187480910Y-46726698D01*
X187464212Y-46710000D01*
X189979788Y-46710000D01*
X189963090Y-46726698D01*
X190077130Y-46840738D01*
X189799901Y-46951641D01*
X189556677Y-47597593D01*
X189579164Y-48287453D01*
X189799901Y-48820359D01*
X190077132Y-48931263D01*
X191122395Y-47886000D01*
X191108253Y-47871858D01*
X191287858Y-47692253D01*
X191302000Y-47706395D01*
X191316143Y-47692253D01*
X191495748Y-47871858D01*
X191481605Y-47886000D01*
X192526868Y-48931263D01*
X192804099Y-48820359D01*
X193047323Y-48174407D01*
X193024836Y-47484547D01*
X192804099Y-46951641D01*
X192526870Y-46840738D01*
X192640910Y-46726698D01*
X192624212Y-46710000D01*
X194979788Y-46710000D01*
X194963090Y-46726698D01*
X195077130Y-46840738D01*
X194799901Y-46951641D01*
X194556677Y-47597593D01*
X194579164Y-48287453D01*
X194799901Y-48820359D01*
X195077132Y-48931263D01*
X196122395Y-47886000D01*
X196108253Y-47871858D01*
X196287858Y-47692253D01*
X196302000Y-47706395D01*
X196316143Y-47692253D01*
X196495748Y-47871858D01*
X196481605Y-47886000D01*
X197526868Y-48931263D01*
X197804099Y-48820359D01*
X198047323Y-48174407D01*
X198024836Y-47484547D01*
X197804099Y-46951641D01*
X197526870Y-46840738D01*
X197640910Y-46726698D01*
X197624212Y-46710000D01*
X208290000Y-46710000D01*
X208290000Y-78290000D01*
X89710000Y-78290000D01*
X89710000Y-73472325D01*
X98614587Y-73472325D01*
X98976916Y-74349229D01*
X99647242Y-75020726D01*
X100523513Y-75384585D01*
X101472325Y-75385413D01*
X102349229Y-75023084D01*
X103020726Y-74352758D01*
X103384585Y-73476487D01*
X103385413Y-72527675D01*
X103023084Y-71650771D01*
X102352758Y-70979274D01*
X101476487Y-70615415D01*
X100527675Y-70614587D01*
X99650771Y-70976916D01*
X98979274Y-71647242D01*
X98615415Y-72523513D01*
X98614587Y-73472325D01*
X89710000Y-73472325D01*
X89710000Y-68384167D01*
X135716838Y-68384167D01*
X135858883Y-68727943D01*
X136121673Y-68991192D01*
X136465201Y-69133838D01*
X136837167Y-69134162D01*
X137096714Y-69026920D01*
X137354201Y-69133838D01*
X137569558Y-69134026D01*
X137510808Y-69192673D01*
X137368162Y-69536201D01*
X137367838Y-69908167D01*
X137509883Y-70251943D01*
X137518000Y-70260074D01*
X137518000Y-71374000D01*
X137577755Y-71674407D01*
X137747921Y-71929079D01*
X139652921Y-73834079D01*
X139907594Y-74004245D01*
X140208000Y-74064000D01*
X153924000Y-74064000D01*
X154224407Y-74004245D01*
X154479079Y-73834079D01*
X154840833Y-73472325D01*
X201614587Y-73472325D01*
X201976916Y-74349229D01*
X202647242Y-75020726D01*
X203523513Y-75384585D01*
X204472325Y-75385413D01*
X205349229Y-75023084D01*
X206020726Y-74352758D01*
X206384585Y-73476487D01*
X206385413Y-72527675D01*
X206023084Y-71650771D01*
X205352758Y-70979274D01*
X204476487Y-70615415D01*
X203527675Y-70614587D01*
X202650771Y-70976916D01*
X201979274Y-71647242D01*
X201615415Y-72523513D01*
X201614587Y-73472325D01*
X154840833Y-73472325D01*
X155495079Y-72818079D01*
X155665245Y-72563407D01*
X155725000Y-72263000D01*
X155725000Y-72039944D01*
X155999670Y-71856415D01*
X156210000Y-71541634D01*
X156420330Y-71856415D01*
X156906511Y-72181271D01*
X157480000Y-72295345D01*
X158053489Y-72181271D01*
X158539670Y-71856415D01*
X158750000Y-71541634D01*
X158960330Y-71856415D01*
X159446511Y-72181271D01*
X160020000Y-72295345D01*
X160593489Y-72181271D01*
X161079670Y-71856415D01*
X161290000Y-71541634D01*
X161500330Y-71856415D01*
X161986511Y-72181271D01*
X162560000Y-72295345D01*
X163133489Y-72181271D01*
X163619670Y-71856415D01*
X163830000Y-71541634D01*
X164040330Y-71856415D01*
X164526511Y-72181271D01*
X165100000Y-72295345D01*
X165673489Y-72181271D01*
X166159670Y-71856415D01*
X166370000Y-71541634D01*
X166580330Y-71856415D01*
X167066511Y-72181271D01*
X167640000Y-72295345D01*
X168213489Y-72181271D01*
X168699670Y-71856415D01*
X168906461Y-71546931D01*
X169277964Y-71962732D01*
X169805209Y-72216709D01*
X169820974Y-72219358D01*
X170053000Y-72098217D01*
X170053000Y-70739000D01*
X170307000Y-70739000D01*
X170307000Y-72098217D01*
X170539026Y-72219358D01*
X170554791Y-72216709D01*
X171082036Y-71962732D01*
X171471954Y-71526320D01*
X171665184Y-70973913D01*
X171520924Y-70739000D01*
X170307000Y-70739000D01*
X170053000Y-70739000D01*
X170033000Y-70739000D01*
X170033000Y-70485000D01*
X170053000Y-70485000D01*
X170053000Y-69125783D01*
X170307000Y-69125783D01*
X170307000Y-70485000D01*
X171520924Y-70485000D01*
X171665184Y-70250087D01*
X171471954Y-69697680D01*
X171082036Y-69261268D01*
X170554791Y-69007291D01*
X170539026Y-69004642D01*
X170307000Y-69125783D01*
X170053000Y-69125783D01*
X169820974Y-69004642D01*
X169805209Y-69007291D01*
X169277964Y-69261268D01*
X168906461Y-69677069D01*
X168699670Y-69367585D01*
X168213489Y-69042729D01*
X167640000Y-68928655D01*
X167066511Y-69042729D01*
X166580330Y-69367585D01*
X166370000Y-69682366D01*
X166159670Y-69367585D01*
X165673489Y-69042729D01*
X165100000Y-68928655D01*
X164526511Y-69042729D01*
X164040330Y-69367585D01*
X163830000Y-69682366D01*
X163619670Y-69367585D01*
X163133489Y-69042729D01*
X162560000Y-68928655D01*
X161986511Y-69042729D01*
X161500330Y-69367585D01*
X161290000Y-69682366D01*
X161079670Y-69367585D01*
X160593489Y-69042729D01*
X160020000Y-68928655D01*
X159446511Y-69042729D01*
X158960330Y-69367585D01*
X158750000Y-69682366D01*
X158539670Y-69367585D01*
X158053489Y-69042729D01*
X157480000Y-68928655D01*
X156906511Y-69042729D01*
X156420330Y-69367585D01*
X156210000Y-69682366D01*
X155999670Y-69367585D01*
X155513489Y-69042729D01*
X154940000Y-68928655D01*
X154366511Y-69042729D01*
X153880330Y-69367585D01*
X153670000Y-69682366D01*
X153459670Y-69367585D01*
X152973489Y-69042729D01*
X152400000Y-68928655D01*
X151826511Y-69042729D01*
X151340330Y-69367585D01*
X151130000Y-69682366D01*
X150919670Y-69367585D01*
X150645000Y-69184056D01*
X150645000Y-68326000D01*
X150606047Y-68130167D01*
X176356838Y-68130167D01*
X176498883Y-68473943D01*
X176761673Y-68737192D01*
X177105201Y-68879838D01*
X177477167Y-68880162D01*
X177736714Y-68772920D01*
X177994201Y-68879838D01*
X178366167Y-68880162D01*
X178709943Y-68738117D01*
X178973192Y-68475327D01*
X179115838Y-68131799D01*
X179116162Y-67759833D01*
X178974117Y-67416057D01*
X178916000Y-67357838D01*
X178916000Y-66852446D01*
X178993447Y-66775000D01*
X180895581Y-66775000D01*
X180952673Y-66832192D01*
X181296201Y-66974838D01*
X181668167Y-66975162D01*
X182011943Y-66833117D01*
X182275192Y-66570327D01*
X182384765Y-66306446D01*
X182646943Y-66198117D01*
X182910192Y-65935327D01*
X183052838Y-65591799D01*
X183053162Y-65219833D01*
X182911117Y-64876057D01*
X182648327Y-64612808D01*
X182537749Y-64566892D01*
X182403117Y-64241057D01*
X182345000Y-64182838D01*
X182345000Y-63325419D01*
X182402192Y-63268327D01*
X182544838Y-62924799D01*
X182545162Y-62552833D01*
X182403117Y-62209057D01*
X182140327Y-61945808D01*
X181796799Y-61803162D01*
X181424833Y-61802838D01*
X181081057Y-61944883D01*
X180817808Y-62207673D01*
X180675162Y-62551201D01*
X180674838Y-62923167D01*
X180816883Y-63266943D01*
X180875000Y-63325162D01*
X180875000Y-64182581D01*
X180817808Y-64239673D01*
X180675162Y-64583201D01*
X180675086Y-64670000D01*
X178435000Y-64670000D01*
X178153728Y-64725949D01*
X177915276Y-64885277D01*
X176772277Y-66028277D01*
X176612949Y-66266728D01*
X176557000Y-66548000D01*
X176557000Y-67357581D01*
X176499808Y-67414673D01*
X176357162Y-67758201D01*
X176356838Y-68130167D01*
X150606047Y-68130167D01*
X150585245Y-68025594D01*
X150415079Y-67770921D01*
X147621079Y-64976921D01*
X147366407Y-64806755D01*
X147066000Y-64747000D01*
X142286021Y-64747000D01*
X142286162Y-64584833D01*
X142144117Y-64241057D01*
X142086000Y-64182838D01*
X142086000Y-63325419D01*
X142143192Y-63268327D01*
X142285838Y-62924799D01*
X142286162Y-62552833D01*
X142176805Y-62288167D01*
X174070838Y-62288167D01*
X174212883Y-62631943D01*
X174271000Y-62690162D01*
X174271000Y-64182581D01*
X174213808Y-64239673D01*
X174071162Y-64583201D01*
X174070838Y-64955167D01*
X174212883Y-65298943D01*
X174475673Y-65562192D01*
X174819201Y-65704838D01*
X175191167Y-65705162D01*
X175534943Y-65563117D01*
X175798192Y-65300327D01*
X175940838Y-64956799D01*
X175941162Y-64584833D01*
X175799117Y-64241057D01*
X175741000Y-64182838D01*
X175741000Y-62690419D01*
X175798192Y-62633327D01*
X175940838Y-62289799D01*
X175941162Y-61917833D01*
X175799117Y-61574057D01*
X175536327Y-61310808D01*
X175192799Y-61168162D01*
X174820833Y-61167838D01*
X174477057Y-61309883D01*
X174213808Y-61572673D01*
X174071162Y-61916201D01*
X174070838Y-62288167D01*
X142176805Y-62288167D01*
X142144117Y-62209057D01*
X141881327Y-61945808D01*
X141537799Y-61803162D01*
X141165833Y-61802838D01*
X140822057Y-61944883D01*
X140558808Y-62207673D01*
X140416162Y-62551201D01*
X140415838Y-62923167D01*
X140557883Y-63266943D01*
X140616000Y-63325162D01*
X140616000Y-64182581D01*
X140558808Y-64239673D01*
X140416162Y-64583201D01*
X140416019Y-64747000D01*
X137795000Y-64747000D01*
X137494593Y-64806755D01*
X137239921Y-64976921D01*
X136096921Y-66119921D01*
X135926755Y-66374593D01*
X135926755Y-66374594D01*
X135867000Y-66675000D01*
X135867000Y-67661494D01*
X135859808Y-67668673D01*
X135717162Y-68012201D01*
X135716838Y-68384167D01*
X89710000Y-68384167D01*
X89710000Y-62669167D01*
X133938838Y-62669167D01*
X134080883Y-63012943D01*
X134139000Y-63071162D01*
X134139000Y-64182581D01*
X134081808Y-64239673D01*
X133939162Y-64583201D01*
X133938838Y-64955167D01*
X134080883Y-65298943D01*
X134343673Y-65562192D01*
X134687201Y-65704838D01*
X135059167Y-65705162D01*
X135402943Y-65563117D01*
X135666192Y-65300327D01*
X135808838Y-64956799D01*
X135809162Y-64584833D01*
X135667117Y-64241057D01*
X135609000Y-64182838D01*
X135609000Y-63071419D01*
X135666192Y-63014327D01*
X135808838Y-62670799D01*
X135809162Y-62298833D01*
X135667117Y-61955057D01*
X135404327Y-61691808D01*
X135060799Y-61549162D01*
X134688833Y-61548838D01*
X134345057Y-61690883D01*
X134081808Y-61953673D01*
X133939162Y-62297201D01*
X133938838Y-62669167D01*
X89710000Y-62669167D01*
X89710000Y-58422815D01*
X106864630Y-58422815D01*
X107188980Y-59207800D01*
X107789041Y-59808909D01*
X108573459Y-60134628D01*
X109422815Y-60135370D01*
X110207800Y-59811020D01*
X110808909Y-59210959D01*
X111100464Y-58508815D01*
X120546630Y-58508815D01*
X120870980Y-59293800D01*
X121471041Y-59894909D01*
X122255459Y-60220628D01*
X123104815Y-60221370D01*
X123889800Y-59897020D01*
X124490909Y-59296959D01*
X124816628Y-58512541D01*
X124816631Y-58508815D01*
X130706630Y-58508815D01*
X131030980Y-59293800D01*
X131631041Y-59894909D01*
X132415459Y-60220628D01*
X133264815Y-60221370D01*
X134049800Y-59897020D01*
X134650909Y-59296959D01*
X134976628Y-58512541D01*
X134976631Y-58508815D01*
X140866630Y-58508815D01*
X141190980Y-59293800D01*
X141791041Y-59894909D01*
X142575459Y-60220628D01*
X143424815Y-60221370D01*
X144209800Y-59897020D01*
X144810909Y-59296959D01*
X145136628Y-58512541D01*
X145136631Y-58508815D01*
X151026630Y-58508815D01*
X151350980Y-59293800D01*
X151951041Y-59894909D01*
X152735459Y-60220628D01*
X153584815Y-60221370D01*
X154369800Y-59897020D01*
X154970909Y-59296959D01*
X155296628Y-58512541D01*
X155296631Y-58508815D01*
X161186630Y-58508815D01*
X161510980Y-59293800D01*
X162111041Y-59894909D01*
X162895459Y-60220628D01*
X163744815Y-60221370D01*
X164529800Y-59897020D01*
X165130909Y-59296959D01*
X165456628Y-58512541D01*
X165456631Y-58508815D01*
X171346630Y-58508815D01*
X171670980Y-59293800D01*
X172271041Y-59894909D01*
X173055459Y-60220628D01*
X173904815Y-60221370D01*
X174689800Y-59897020D01*
X175290909Y-59296959D01*
X175616628Y-58512541D01*
X175616631Y-58508815D01*
X181506630Y-58508815D01*
X181830980Y-59293800D01*
X182431041Y-59894909D01*
X183215459Y-60220628D01*
X184064815Y-60221370D01*
X184849800Y-59897020D01*
X185450909Y-59296959D01*
X185776628Y-58512541D01*
X185776631Y-58508815D01*
X191666630Y-58508815D01*
X191990980Y-59293800D01*
X192591041Y-59894909D01*
X193375459Y-60220628D01*
X194224815Y-60221370D01*
X195009800Y-59897020D01*
X195610909Y-59296959D01*
X195936628Y-58512541D01*
X195937370Y-57663185D01*
X195613020Y-56878200D01*
X195012959Y-56277091D01*
X194228541Y-55951372D01*
X193379185Y-55950630D01*
X192594200Y-56274980D01*
X191993091Y-56875041D01*
X191667372Y-57659459D01*
X191666630Y-58508815D01*
X185776631Y-58508815D01*
X185777370Y-57663185D01*
X185453020Y-56878200D01*
X184852959Y-56277091D01*
X184068541Y-55951372D01*
X183219185Y-55950630D01*
X182434200Y-56274980D01*
X181833091Y-56875041D01*
X181507372Y-57659459D01*
X181506630Y-58508815D01*
X175616631Y-58508815D01*
X175617370Y-57663185D01*
X175293020Y-56878200D01*
X174692959Y-56277091D01*
X173908541Y-55951372D01*
X173059185Y-55950630D01*
X172274200Y-56274980D01*
X171673091Y-56875041D01*
X171347372Y-57659459D01*
X171346630Y-58508815D01*
X165456631Y-58508815D01*
X165457370Y-57663185D01*
X165133020Y-56878200D01*
X164532959Y-56277091D01*
X163748541Y-55951372D01*
X162899185Y-55950630D01*
X162114200Y-56274980D01*
X161513091Y-56875041D01*
X161187372Y-57659459D01*
X161186630Y-58508815D01*
X155296631Y-58508815D01*
X155297370Y-57663185D01*
X154973020Y-56878200D01*
X154372959Y-56277091D01*
X153588541Y-55951372D01*
X152739185Y-55950630D01*
X151954200Y-56274980D01*
X151353091Y-56875041D01*
X151027372Y-57659459D01*
X151026630Y-58508815D01*
X145136631Y-58508815D01*
X145137370Y-57663185D01*
X144813020Y-56878200D01*
X144212959Y-56277091D01*
X143428541Y-55951372D01*
X142579185Y-55950630D01*
X141794200Y-56274980D01*
X141193091Y-56875041D01*
X140867372Y-57659459D01*
X140866630Y-58508815D01*
X134976631Y-58508815D01*
X134977370Y-57663185D01*
X134653020Y-56878200D01*
X134052959Y-56277091D01*
X133268541Y-55951372D01*
X132419185Y-55950630D01*
X131634200Y-56274980D01*
X131033091Y-56875041D01*
X130707372Y-57659459D01*
X130706630Y-58508815D01*
X124816631Y-58508815D01*
X124817370Y-57663185D01*
X124493020Y-56878200D01*
X123892959Y-56277091D01*
X123108541Y-55951372D01*
X122259185Y-55950630D01*
X121474200Y-56274980D01*
X120873091Y-56875041D01*
X120547372Y-57659459D01*
X120546630Y-58508815D01*
X111100464Y-58508815D01*
X111134628Y-58426541D01*
X111135370Y-57577185D01*
X110811020Y-56792200D01*
X110210959Y-56191091D01*
X109426541Y-55865372D01*
X108577185Y-55864630D01*
X107792200Y-56188980D01*
X107191091Y-56789041D01*
X106865372Y-57573459D01*
X106864630Y-58422815D01*
X89710000Y-58422815D01*
X89710000Y-52472325D01*
X98614587Y-52472325D01*
X98976916Y-53349229D01*
X99647242Y-54020726D01*
X100523513Y-54384585D01*
X101472325Y-54385413D01*
X102349229Y-54023084D01*
X103020726Y-53352758D01*
X103384585Y-52476487D01*
X103384588Y-52472325D01*
X201614587Y-52472325D01*
X201976916Y-53349229D01*
X202647242Y-54020726D01*
X203523513Y-54384585D01*
X204472325Y-54385413D01*
X205349229Y-54023084D01*
X206020726Y-53352758D01*
X206384585Y-52476487D01*
X206385413Y-51527675D01*
X206023084Y-50650771D01*
X205352758Y-49979274D01*
X204476487Y-49615415D01*
X203527675Y-49614587D01*
X202650771Y-49976916D01*
X201979274Y-50647242D01*
X201615415Y-51523513D01*
X201614587Y-52472325D01*
X103384588Y-52472325D01*
X103385413Y-51527675D01*
X103023084Y-50650771D01*
X102352758Y-49979274D01*
X101476487Y-49615415D01*
X100527675Y-49614587D01*
X99650771Y-49976916D01*
X98979274Y-50647242D01*
X98615415Y-51523513D01*
X98614587Y-52472325D01*
X89710000Y-52472325D01*
X89710000Y-49024868D01*
X105454737Y-49024868D01*
X105565641Y-49302099D01*
X106211593Y-49545323D01*
X106901453Y-49522836D01*
X107434359Y-49302099D01*
X107545263Y-49024868D01*
X110454737Y-49024868D01*
X110565641Y-49302099D01*
X111211593Y-49545323D01*
X111901453Y-49522836D01*
X112434359Y-49302099D01*
X112510859Y-49110868D01*
X119136737Y-49110868D01*
X119247641Y-49388099D01*
X119893593Y-49631323D01*
X120583453Y-49608836D01*
X121116359Y-49388099D01*
X121227263Y-49110868D01*
X124136737Y-49110868D01*
X124247641Y-49388099D01*
X124893593Y-49631323D01*
X125583453Y-49608836D01*
X126116359Y-49388099D01*
X126227263Y-49110868D01*
X129296737Y-49110868D01*
X129407641Y-49388099D01*
X130053593Y-49631323D01*
X130743453Y-49608836D01*
X131276359Y-49388099D01*
X131387263Y-49110868D01*
X134296737Y-49110868D01*
X134407641Y-49388099D01*
X135053593Y-49631323D01*
X135743453Y-49608836D01*
X136276359Y-49388099D01*
X136387263Y-49110868D01*
X139456737Y-49110868D01*
X139567641Y-49388099D01*
X140213593Y-49631323D01*
X140903453Y-49608836D01*
X141436359Y-49388099D01*
X141547263Y-49110868D01*
X144456737Y-49110868D01*
X144567641Y-49388099D01*
X145213593Y-49631323D01*
X145903453Y-49608836D01*
X146436359Y-49388099D01*
X146547263Y-49110868D01*
X149616737Y-49110868D01*
X149727641Y-49388099D01*
X150373593Y-49631323D01*
X151063453Y-49608836D01*
X151596359Y-49388099D01*
X151707263Y-49110868D01*
X154616737Y-49110868D01*
X154727641Y-49388099D01*
X155373593Y-49631323D01*
X156063453Y-49608836D01*
X156596359Y-49388099D01*
X156707263Y-49110868D01*
X159776737Y-49110868D01*
X159887641Y-49388099D01*
X160533593Y-49631323D01*
X161223453Y-49608836D01*
X161756359Y-49388099D01*
X161867263Y-49110868D01*
X164776737Y-49110868D01*
X164887641Y-49388099D01*
X165533593Y-49631323D01*
X166223453Y-49608836D01*
X166756359Y-49388099D01*
X166867263Y-49110868D01*
X169936737Y-49110868D01*
X170047641Y-49388099D01*
X170693593Y-49631323D01*
X171383453Y-49608836D01*
X171916359Y-49388099D01*
X172027263Y-49110868D01*
X174936737Y-49110868D01*
X175047641Y-49388099D01*
X175693593Y-49631323D01*
X176383453Y-49608836D01*
X176916359Y-49388099D01*
X177027263Y-49110868D01*
X180096737Y-49110868D01*
X180207641Y-49388099D01*
X180853593Y-49631323D01*
X181543453Y-49608836D01*
X182076359Y-49388099D01*
X182187263Y-49110868D01*
X185096737Y-49110868D01*
X185207641Y-49388099D01*
X185853593Y-49631323D01*
X186543453Y-49608836D01*
X187076359Y-49388099D01*
X187187263Y-49110868D01*
X190256737Y-49110868D01*
X190367641Y-49388099D01*
X191013593Y-49631323D01*
X191703453Y-49608836D01*
X192236359Y-49388099D01*
X192347263Y-49110868D01*
X195256737Y-49110868D01*
X195367641Y-49388099D01*
X196013593Y-49631323D01*
X196703453Y-49608836D01*
X197236359Y-49388099D01*
X197347263Y-49110868D01*
X196302000Y-48065605D01*
X195256737Y-49110868D01*
X192347263Y-49110868D01*
X191302000Y-48065605D01*
X190256737Y-49110868D01*
X187187263Y-49110868D01*
X186142000Y-48065605D01*
X185096737Y-49110868D01*
X182187263Y-49110868D01*
X181142000Y-48065605D01*
X180096737Y-49110868D01*
X177027263Y-49110868D01*
X175982000Y-48065605D01*
X174936737Y-49110868D01*
X172027263Y-49110868D01*
X170982000Y-48065605D01*
X169936737Y-49110868D01*
X166867263Y-49110868D01*
X165822000Y-48065605D01*
X164776737Y-49110868D01*
X161867263Y-49110868D01*
X160822000Y-48065605D01*
X159776737Y-49110868D01*
X156707263Y-49110868D01*
X155662000Y-48065605D01*
X154616737Y-49110868D01*
X151707263Y-49110868D01*
X150662000Y-48065605D01*
X149616737Y-49110868D01*
X146547263Y-49110868D01*
X145502000Y-48065605D01*
X144456737Y-49110868D01*
X141547263Y-49110868D01*
X140502000Y-48065605D01*
X139456737Y-49110868D01*
X136387263Y-49110868D01*
X135342000Y-48065605D01*
X134296737Y-49110868D01*
X131387263Y-49110868D01*
X130342000Y-48065605D01*
X129296737Y-49110868D01*
X126227263Y-49110868D01*
X125182000Y-48065605D01*
X124136737Y-49110868D01*
X121227263Y-49110868D01*
X120182000Y-48065605D01*
X119136737Y-49110868D01*
X112510859Y-49110868D01*
X112545263Y-49024868D01*
X111500000Y-47979605D01*
X110454737Y-49024868D01*
X107545263Y-49024868D01*
X106500000Y-47979605D01*
X105454737Y-49024868D01*
X89710000Y-49024868D01*
X89710000Y-46710000D01*
X105230392Y-46710000D01*
X105275130Y-46754738D01*
G36*
X149075000Y-68651158D02*
X149075000Y-69184056D01*
X148800330Y-69367585D01*
X148790757Y-69381913D01*
X148786762Y-69360683D01*
X148647690Y-69144559D01*
X148435490Y-68999569D01*
X148183600Y-68948560D01*
X146456400Y-68948560D01*
X146221083Y-68992838D01*
X146004959Y-69131910D01*
X145859969Y-69344110D01*
X145808960Y-69596000D01*
X145808960Y-71605000D01*
X144851158Y-71605000D01*
X141628000Y-68381842D01*
X141628000Y-66704506D01*
X141635192Y-66697327D01*
X141730787Y-66467110D01*
X141790167Y-66467162D01*
X142133943Y-66325117D01*
X142142074Y-66317000D01*
X146740842Y-66317000D01*
X149075000Y-68651158D01*
X149075000Y-68651158D01*
G37*
X149075000Y-68651158D02*
X149075000Y-69184056D01*
X148800330Y-69367585D01*
X148790757Y-69381913D01*
X148786762Y-69360683D01*
X148647690Y-69144559D01*
X148435490Y-68999569D01*
X148183600Y-68948560D01*
X146456400Y-68948560D01*
X146221083Y-68992838D01*
X146004959Y-69131910D01*
X145859969Y-69344110D01*
X145808960Y-69596000D01*
X145808960Y-71605000D01*
X144851158Y-71605000D01*
X141628000Y-68381842D01*
X141628000Y-66704506D01*
X141635192Y-66697327D01*
X141730787Y-66467110D01*
X141790167Y-66467162D01*
X142133943Y-66325117D01*
X142142074Y-66317000D01*
X146740842Y-66317000D01*
X149075000Y-68651158D01*
M02*
