M48
;DRILL file {KiCad 4.0.2-stable} date 19/05/2017 15:16:34
;FORMAT={3:3/ absolute / metric / suppress leading zeros}
FMAT,2
METRIC,TZ
T1C0.300
T2C0.500
T3C1.000
T4C1.300
T5C1.700
T6C3.500
%
G90
G05
M71
T1
X119126Y-63500
X134874Y-62484
X134874Y-64770
X136652Y-68199
X137541Y-68199
X137795Y-49530
X137922Y-59182
X138303Y-69723
X140843Y-66167
X141351Y-62738
X141351Y-64770
X141605Y-65532
X144653Y-68072
X175006Y-62103
X175006Y-64770
X177292Y-67945
X178181Y-67945
X181483Y-66040
X181610Y-62738
X181610Y-64770
X182118Y-65405
X188849Y-51181
T2
X91440Y-48260
X91440Y-60960
X91440Y-76200
X106680Y-76200
X121920Y-76200
X137160Y-76200
X154940Y-76200
X170180Y-76200
X185420Y-76200
X200660Y-76200
X205740Y-48260
X205740Y-60960
X205740Y-68580
T3
X147320Y-70612
X149860Y-70612
X152400Y-70612
X154940Y-70612
X157480Y-70612
X160020Y-70612
X162560Y-70612
X165100Y-70612
X167640Y-70612
X170180Y-70612
T4
X106500Y-47800
X111500Y-47800
X120182Y-47886
X125182Y-47886
X130342Y-47886
X135342Y-47886
X140502Y-47886
X145502Y-47886
X150662Y-47886
X155662Y-47886
X160822Y-47886
X165822Y-47886
X170982Y-47886
X175982Y-47886
X181142Y-47886
X186142Y-47886
X191302Y-47886
X196302Y-47886
T5
X109000Y-58000
X122682Y-58086
X132842Y-58086
X143002Y-58086
X153162Y-58086
X163322Y-58086
X173482Y-58086
X183642Y-58086
X193802Y-58086
T6
X101000Y-52000
X101000Y-73000
X204000Y-52000
X204000Y-73000
T0
M30
