M48
;DRILL file {KiCad 4.0.1-stable} date 23/05/2016 10:26:20
;FORMAT={-:-/ absolute / metric / decimal}
FMAT,2
METRIC,TZ
T1C0.200
T2C0.500
T3C0.800
T4C0.990
T5C1.016
T6C1.300
T7C1.700
T8C2.500
T9C3.500
%
G90
G05
M71
T1
X94.107Y-120.396
X94.488Y-116.586
X97.485Y-121.564
X98.298Y-120.396
X99.187Y-119.38
X100.584Y-116.459
X119.126Y-63.5
X134.874Y-62.484
X134.874Y-64.77
X136.652Y-68.199
X137.541Y-68.199
X137.795Y-49.53
X140.716Y-60.452
X140.843Y-66.167
X141.351Y-62.738
X141.351Y-64.77
X141.605Y-65.532
X144.653Y-68.326
X145.542Y-116.332
X146.431Y-117.348
X149.606Y-121.666
X149.86Y-93.218
X150.876Y-113.03
X151.257Y-103.115
X152.146Y-96.774
X152.146Y-101.346
X152.908Y-96.012
X153.797Y-96.774
X154.432Y-93.218
X154.432Y-122.682
X154.686Y-97.028
X155.448Y-93.98
X156.845Y-95.758
X158.369Y-95.123
X158.369Y-101.346
X160.147Y-93.218
X160.147Y-106.807
X165.354Y-102.87
X167.386Y-106.807
X167.894Y-104.267
X175.006Y-62.103
X175.006Y-64.77
X177.292Y-67.945
X178.181Y-67.945
X181.483Y-66.04
X181.61Y-62.738
X181.61Y-64.77
X182.118Y-65.405
X188.849Y-51.181
T2
X91.567Y-92.075
X93.599Y-74.168
X93.98Y-54.483
X94.996Y-66.802
X96.774Y-74.676
X96.837Y-76.263
X98.349Y-122.682
X99.123Y-97.218
X100.266Y-98.171
X100.584Y-64.262
X101.219Y-92.075
X102.235Y-96.393
X103.505Y-123.673
X108.585Y-100.457
X120.078Y-93.027
X120.078Y-95.567
X125.095Y-91.567
X130.048Y-104.775
X131.826Y-86.868
X136.779Y-97.79
X139.573Y-112.776
X140.462Y-120.142
X140.97Y-111.697
X142.558Y-109.855
X143.51Y-109.156
X143.573Y-112.776
X145.034Y-97.917
X151.13Y-66.802
X151.13Y-77.978
X151.765Y-109.982
X154.305Y-86.741
X156.591Y-89.027
X159.067Y-83.629
X159.957Y-84.836
X160.02Y-108.458
X160.655Y-85.852
X161.29Y-86.868
X162.433Y-96.647
X163.068Y-92.964
X163.83Y-91.694
X165.608Y-85.471
X166.37Y-89.154
X166.853Y-82.626
X167.513Y-85.471
X170.434Y-115.951
X177.546Y-123.952
T3
X117.221Y-128.651
X117.221Y-137.541
X121.666Y-129.921
X124.206Y-129.921
X128.651Y-128.651
X128.651Y-137.541
X164.211Y-128.651
X164.211Y-137.541
X167.386Y-131.191
X168.656Y-127.381
X168.656Y-129.921
X168.656Y-132.461
X169.926Y-128.651
X169.926Y-131.191
X171.196Y-127.381
X171.196Y-129.921
X171.196Y-132.461
X172.466Y-131.191
X175.641Y-128.651
X175.641Y-137.541
X193.675Y-128.651
X193.675Y-137.541
X198.12Y-129.921
X198.12Y-132.461
X200.66Y-129.921
X200.66Y-132.461
X205.105Y-128.651
X205.105Y-137.541
T4
X151.71Y-139.7
X156.21Y-139.7
T5
X91.45Y-49.95
X93.99Y-49.95
X96.53Y-49.95
X142.24Y-116.332
X142.24Y-118.872
X142.24Y-121.412
X142.24Y-123.952
X142.24Y-126.492
X142.24Y-129.032
X142.24Y-131.572
X142.24Y-134.112
X147.32Y-70.612
X149.86Y-70.612
X152.4Y-70.612
X154.94Y-70.612
X157.48Y-70.612
X160.02Y-70.612
X162.56Y-70.612
X165.1Y-70.612
X167.64Y-70.612
X170.18Y-70.612
X171.069Y-111.379
X173.609Y-111.379
X176.149Y-111.379
X179.768Y-78.93
X179.768Y-81.471
X179.768Y-84.01
X179.768Y-86.55
X179.768Y-89.09
X183.Y-119.5
X183.Y-122.04
X183.Y-124.58
X183.007Y-104.521
X183.007Y-107.061
X183.007Y-109.601
X183.007Y-112.141
X183.007Y-114.681
T6
X106.5Y-47.8
X111.5Y-47.8
X120.182Y-47.886
X125.182Y-47.886
X130.342Y-47.886
X135.342Y-47.886
X140.502Y-47.886
X145.502Y-47.886
X150.45Y-137.21
X150.662Y-47.886
X155.662Y-47.886
X157.46Y-137.21
X160.822Y-47.886
X165.822Y-47.886
X170.982Y-47.886
X175.982Y-47.886
X181.142Y-47.886
X186.142Y-47.886
X191.302Y-47.886
X196.302Y-47.886
T7
X109.Y-58.
X122.682Y-58.086
X132.842Y-58.086
X143.002Y-58.086
X153.162Y-58.086
X163.322Y-58.086
X173.482Y-58.086
X183.642Y-58.086
X193.802Y-58.086
T8
X92.Y-130.
X99.Y-81.
X152.Y-130.
X187.Y-130.
X199.Y-81.
T9
X101.Y-52.
X101.Y-73.
X204.Y-52.
X204.Y-73.
T0
M30
