G04 #@! TF.FileFunction,Copper,L2,Bot,Signal*
%FSLAX46Y46*%
G04 Gerber Fmt 4.6, Leading zero omitted, Abs format (unit mm)*
G04 Created by KiCad (PCBNEW 4.0.2-stable) date 19/05/2017 15:30:42*
%MOMM*%
G01*
G04 APERTURE LIST*
%ADD10C,0.100000*%
%ADD11C,2.200000*%
%ADD12C,3.000000*%
%ADD13O,1.727200X2.032000*%
%ADD14R,2.032000X1.727200*%
%ADD15O,2.032000X1.727200*%
%ADD16R,1.727200X2.032000*%
%ADD17C,2.100000*%
%ADD18C,1.750000*%
%ADD19C,1.900000*%
%ADD20C,1.270000*%
%ADD21C,0.900000*%
%ADD22C,1.000000*%
%ADD23C,0.600000*%
%ADD24C,0.200000*%
%ADD25C,0.300000*%
%ADD26C,0.500000*%
%ADD27C,0.700000*%
%ADD28C,0.254000*%
G04 APERTURE END LIST*
D10*
D11*
X150662000Y-47886000D03*
D12*
X153162000Y-58086000D03*
D11*
X155662000Y-47886000D03*
D13*
X91430000Y-55181500D03*
X93970000Y-55181500D03*
X96510000Y-55181500D03*
D14*
X142240000Y-134112000D03*
D15*
X142240000Y-131572000D03*
X142240000Y-129032000D03*
X142240000Y-126492000D03*
X142240000Y-123952000D03*
X142240000Y-121412000D03*
X142240000Y-118872000D03*
X142240000Y-116332000D03*
D16*
X171069000Y-111379000D03*
D13*
X173609000Y-111379000D03*
X176149000Y-111379000D03*
D14*
X186944000Y-93980000D03*
D15*
X186944000Y-91440000D03*
X186944000Y-88900000D03*
X186944000Y-86360000D03*
X186944000Y-83820000D03*
D14*
X183000000Y-119500000D03*
D15*
X183000000Y-122040000D03*
X183000000Y-124580000D03*
D14*
X183007000Y-114681000D03*
D15*
X183007000Y-112141000D03*
X183007000Y-109601000D03*
X183007000Y-107061000D03*
X183007000Y-104521000D03*
D16*
X147320000Y-70612000D03*
D13*
X149860000Y-70612000D03*
X152400000Y-70612000D03*
X154940000Y-70612000D03*
X157480000Y-70612000D03*
X160020000Y-70612000D03*
X162560000Y-70612000D03*
X165100000Y-70612000D03*
X167640000Y-70612000D03*
X170180000Y-70612000D03*
D17*
X180930000Y-137210000D03*
D18*
X182190000Y-139700000D03*
X186690000Y-139700000D03*
D17*
X187940000Y-137210000D03*
D19*
X121666000Y-131572000D03*
X121666000Y-129032000D03*
D20*
X170053000Y-129032000D03*
X170053000Y-126492000D03*
X171323000Y-123952000D03*
X172593000Y-126492000D03*
X172593000Y-129032000D03*
X171323000Y-131572000D03*
X167513000Y-129032000D03*
X167513000Y-126492000D03*
X168783000Y-131572000D03*
X168783000Y-123952000D03*
X200406000Y-131572000D03*
X197866000Y-131572000D03*
X200406000Y-129032000D03*
X197866000Y-129032000D03*
D11*
X160822000Y-47886000D03*
D12*
X163322000Y-58086000D03*
D11*
X165822000Y-47886000D03*
X170982000Y-47886000D03*
D12*
X173482000Y-58086000D03*
D11*
X175982000Y-47886000D03*
X181142000Y-47886000D03*
D12*
X183642000Y-58086000D03*
D11*
X186142000Y-47886000D03*
X191302000Y-47886000D03*
D12*
X193802000Y-58086000D03*
D11*
X196302000Y-47886000D03*
X140502000Y-47886000D03*
D12*
X143002000Y-58086000D03*
D11*
X145502000Y-47886000D03*
X130342000Y-47886000D03*
D12*
X132842000Y-58086000D03*
D11*
X135342000Y-47886000D03*
X120182000Y-47886000D03*
D12*
X122682000Y-58086000D03*
D11*
X125182000Y-47886000D03*
X106500000Y-47800000D03*
D12*
X109000000Y-58000000D03*
D11*
X111500000Y-47800000D03*
D21*
X169545000Y-92837000D03*
X175768000Y-88773000D03*
X175514000Y-81534000D03*
D22*
X170434000Y-80264000D03*
D21*
X189611000Y-125857000D03*
X189611000Y-116205000D03*
X189611000Y-108712000D03*
X189738000Y-100584000D03*
X189738000Y-98679000D03*
X183388000Y-98679000D03*
X176530000Y-98679000D03*
D22*
X164846000Y-91186000D03*
D21*
X136525000Y-91313000D03*
X136525000Y-91313000D03*
X130111500Y-106680000D03*
X136652000Y-113030000D03*
D22*
X137604500Y-97472500D03*
D21*
X123825000Y-102235000D03*
X153162000Y-113411000D03*
D22*
X189611000Y-134747000D03*
X189611000Y-142240000D03*
X177800000Y-142240000D03*
X167640000Y-142240000D03*
X158750000Y-142240000D03*
X150622000Y-142240000D03*
X142240000Y-142240000D03*
X144843500Y-97472500D03*
D21*
X156591000Y-89535000D03*
X149606000Y-121666000D03*
X154432000Y-122682000D03*
X151257000Y-103115500D03*
X125095000Y-91313000D03*
X94996000Y-66802000D03*
X100584000Y-64262000D03*
X170434000Y-115951000D03*
X177546000Y-123952000D03*
X167513000Y-93218000D03*
X163068000Y-93218000D03*
X173228000Y-81534000D03*
X172339000Y-96012000D03*
X172212000Y-89662000D03*
X139573000Y-112776000D03*
X140462000Y-120142000D03*
X160147000Y-93218000D03*
D23*
X154432000Y-93218000D03*
D21*
X149860000Y-93218000D03*
D22*
X101092000Y-114173000D03*
X93091000Y-114173000D03*
D21*
X101092000Y-116205000D03*
X90170000Y-117348000D03*
X91440000Y-117348000D03*
X92583000Y-116205000D03*
X93726000Y-117348000D03*
X94869000Y-116205000D03*
X96012000Y-117348000D03*
D22*
X90360500Y-134937500D03*
X90360500Y-125476000D03*
D21*
X91440000Y-112776000D03*
X90170000Y-116205000D03*
X90170000Y-114554000D03*
X90170000Y-112776000D03*
X91440000Y-114554000D03*
X91440000Y-116205000D03*
X92583000Y-117348000D03*
X93726000Y-116205000D03*
X94869000Y-117348000D03*
X96012000Y-116205000D03*
D22*
X109347000Y-113030000D03*
X109347000Y-111760000D03*
X107950000Y-114300000D03*
X106680000Y-114300000D03*
X105410000Y-114300000D03*
X107950000Y-113030000D03*
X107950000Y-111760000D03*
X110680500Y-111760000D03*
D21*
X117094000Y-111125000D03*
X125222000Y-119126000D03*
X132588000Y-126365000D03*
X132588000Y-134112000D03*
X132715000Y-142621000D03*
X123063000Y-142621000D03*
X113284000Y-142621000D03*
D22*
X104140000Y-113030000D03*
X105410000Y-113030000D03*
X106680000Y-113030000D03*
X106680000Y-111760000D03*
X105410000Y-111760000D03*
D23*
X97485200Y-121564400D03*
D21*
X93599000Y-74168000D03*
X97155000Y-96647000D03*
X95758000Y-96647000D03*
X104140000Y-95631000D03*
X102743000Y-95631000D03*
X101346000Y-95631000D03*
X99949000Y-95631000D03*
X98552000Y-95631000D03*
X97155000Y-95631000D03*
X207518000Y-47752000D03*
X207518000Y-56642000D03*
X207518000Y-64516000D03*
X207518000Y-75692000D03*
X207518000Y-84836000D03*
X207518000Y-100584000D03*
X207518000Y-113030000D03*
D22*
X207518000Y-125857000D03*
X207645000Y-134620000D03*
X207645000Y-142240000D03*
X192278000Y-142240000D03*
X179832000Y-75946000D03*
X192278000Y-75946000D03*
X192278000Y-85344000D03*
X192278000Y-96266000D03*
X192278000Y-100584000D03*
X192278000Y-108712000D03*
X192278000Y-116205000D03*
X192278000Y-125857000D03*
X192278000Y-134747000D03*
X169164000Y-75946000D03*
X144653000Y-68516500D03*
X109347000Y-102362000D03*
X109347000Y-101092000D03*
X109347000Y-99822000D03*
X106553000Y-102362000D03*
X105156000Y-102362000D03*
X107950000Y-102362000D03*
X107950000Y-101092000D03*
X107950000Y-99822000D03*
D21*
X181102000Y-59944000D03*
X96647000Y-92075000D03*
X90043000Y-74295000D03*
X90043000Y-83312000D03*
X90043000Y-92075000D03*
X90043000Y-102235000D03*
X95758000Y-95631000D03*
D22*
X106553000Y-99822000D03*
X106553000Y-101092000D03*
X105156000Y-101092000D03*
X105156000Y-99822000D03*
D21*
X154305000Y-86741000D03*
D23*
X119126000Y-63500000D03*
X140716000Y-60452000D03*
D21*
X188849000Y-51181000D03*
X120078500Y-93027500D03*
X120078500Y-95567500D03*
D22*
X103505000Y-123672600D03*
X98348800Y-122682000D03*
D23*
X98298000Y-120396000D03*
X94107000Y-120396000D03*
D22*
X151130000Y-66802000D03*
X151130000Y-77978000D03*
D21*
X167513000Y-85471000D03*
X165608000Y-85471000D03*
X166370000Y-89154000D03*
X131826000Y-86868000D03*
D23*
X181610000Y-64770000D03*
X181610000Y-62738000D03*
X175006000Y-64770000D03*
X175006000Y-62103000D03*
X141351000Y-64770000D03*
X141351000Y-62738000D03*
X134874000Y-64770000D03*
X134874000Y-62484000D03*
D21*
X146431000Y-117348000D03*
X145542000Y-116332000D03*
X150876000Y-113030000D03*
X167894000Y-81026000D03*
X161290000Y-86868000D03*
X169164000Y-80645000D03*
X160655000Y-85852000D03*
X159893000Y-84709000D03*
X170815000Y-77978000D03*
X172339000Y-79375000D03*
X159067500Y-83629500D03*
X158369000Y-101346000D03*
D23*
X152146000Y-96774000D03*
D21*
X152146000Y-101346000D03*
D23*
X157480000Y-96012000D03*
X156464000Y-96012000D03*
D21*
X161163000Y-106807000D03*
X167386000Y-106807000D03*
X165354000Y-102870000D03*
D23*
X153797000Y-96774000D03*
X154813000Y-96774000D03*
X152908000Y-96012000D03*
X155448000Y-93980000D03*
D21*
X166243000Y-82677000D03*
X96837500Y-76263500D03*
X142557500Y-109855000D03*
X96774000Y-74676000D03*
X143510000Y-109156500D03*
X160020000Y-108458000D03*
X151765000Y-109982000D03*
X162433000Y-96647000D03*
D23*
X178181000Y-67945000D03*
X181483000Y-66040000D03*
X177292000Y-67945000D03*
X182118000Y-65405000D03*
X137541000Y-68199000D03*
X140843000Y-66167000D03*
X136652000Y-68199000D03*
X141605000Y-65532000D03*
D22*
X100266500Y-98171000D03*
D21*
X140970000Y-111696500D03*
D22*
X99123500Y-97218500D03*
D21*
X143573500Y-112776000D03*
X165100000Y-87630000D03*
X170688000Y-101854000D03*
X167894000Y-104267000D03*
D22*
X184150000Y-94869000D03*
D24*
X170434000Y-80264000D02*
X171958000Y-80645000D01*
D25*
X189611000Y-132080000D02*
X189611000Y-131572000D01*
X189611000Y-131572000D02*
X189611000Y-125857000D01*
X189611000Y-116205000D02*
X189611000Y-108712000D01*
X176530000Y-98679000D02*
X183388000Y-98679000D01*
X189611000Y-132080000D02*
X189611000Y-134747000D01*
X136779000Y-91567000D02*
X136525000Y-91313000D01*
X136525000Y-91313000D02*
X136779000Y-91567000D01*
X130111500Y-106680000D02*
X130365500Y-106680000D01*
X130365500Y-106680000D02*
X136652000Y-113030000D01*
D10*
X137731500Y-97599500D02*
X137604500Y-97472500D01*
X144843500Y-97472500D02*
X137731500Y-97599500D01*
X177800000Y-142240000D02*
X189611000Y-142240000D01*
X158750000Y-142240000D02*
X167640000Y-142240000D01*
X142240000Y-142240000D02*
X150622000Y-142240000D01*
X145542000Y-97536000D02*
X145415000Y-97536000D01*
X145415000Y-97536000D02*
X144843500Y-97472500D01*
D24*
X151257000Y-103115500D02*
X151257000Y-103124000D01*
D25*
X94996000Y-66802000D02*
X99568000Y-66802000D01*
D26*
X125095000Y-88773000D02*
X125095000Y-91313000D01*
D25*
X100584000Y-65786000D02*
X100584000Y-64262000D01*
X99568000Y-66802000D02*
X100584000Y-65786000D01*
D26*
X100584000Y-64262000D02*
X125095000Y-88773000D01*
D25*
X170434000Y-116078000D02*
X177546000Y-123190000D01*
X177546000Y-123190000D02*
X177546000Y-123952000D01*
D24*
X170434000Y-116078000D02*
X170434000Y-115951000D01*
D25*
X166370000Y-93218000D02*
X163068000Y-93218000D01*
X167513000Y-93218000D02*
X166370000Y-93218000D01*
X160147000Y-93218000D02*
X163068000Y-93218000D01*
D24*
X172212000Y-82169000D02*
X172212000Y-81915000D01*
X172212000Y-89662000D02*
X172212000Y-82169000D01*
X172593000Y-81534000D02*
X173228000Y-81534000D01*
X172212000Y-81915000D02*
X172593000Y-81534000D01*
X172212000Y-89662000D02*
X172212000Y-95885000D01*
X172212000Y-95885000D02*
X172339000Y-96012000D01*
D25*
X140462000Y-113665000D02*
X139573000Y-112776000D01*
X140462000Y-120142000D02*
X140462000Y-113665000D01*
X160147000Y-93218000D02*
X154432000Y-93218000D01*
X154432000Y-93218000D02*
X149860000Y-93218000D01*
D24*
X93091000Y-114173000D02*
X101092000Y-114173000D01*
X91440000Y-117348000D02*
X90170000Y-117348000D01*
D25*
X93726000Y-117348000D02*
X92583000Y-116205000D01*
X96012000Y-117348000D02*
X94869000Y-116205000D01*
X90360500Y-134937500D02*
X90043000Y-134620000D01*
X90043000Y-134620000D02*
X90043000Y-125793500D01*
X90043000Y-125793500D02*
X90360500Y-125476000D01*
D24*
X90424000Y-113030000D02*
X90170000Y-114554000D01*
X90170000Y-112776000D02*
X90424000Y-113030000D01*
X91567000Y-116078000D02*
X91440000Y-114554000D01*
X91440000Y-116205000D02*
X91567000Y-116078000D01*
X93726000Y-116205000D02*
X92583000Y-117348000D01*
X96012000Y-116205000D02*
X94869000Y-117348000D01*
X107950000Y-111760000D02*
X109347000Y-111760000D01*
X105410000Y-114300000D02*
X106680000Y-114300000D01*
X107950000Y-111760000D02*
X107950000Y-113030000D01*
D25*
X116967000Y-110998000D02*
X110680500Y-111760000D01*
X117094000Y-111125000D02*
X116967000Y-110998000D01*
X125349000Y-119126000D02*
X125222000Y-119126000D01*
X132588000Y-126365000D02*
X125349000Y-119126000D01*
X132588000Y-142494000D02*
X132588000Y-134112000D01*
X132715000Y-142621000D02*
X132588000Y-142494000D01*
X113284000Y-142621000D02*
X123063000Y-142621000D01*
D10*
X104140000Y-113030000D02*
X104140000Y-112395000D01*
X106680000Y-113030000D02*
X105410000Y-113030000D01*
X105410000Y-111760000D02*
X106680000Y-111760000D01*
D25*
X93599000Y-55552500D02*
X93599000Y-74168000D01*
X93599000Y-55552500D02*
X93970000Y-55181500D01*
D26*
X93980000Y-54483000D02*
X93599000Y-54864000D01*
D24*
X97028000Y-96393000D02*
X97028000Y-96647000D01*
X97155000Y-95631000D02*
X97028000Y-96393000D01*
D25*
X97028000Y-96647000D02*
X97155000Y-96647000D01*
X95758000Y-96647000D02*
X97028000Y-96647000D01*
D24*
X95758000Y-95631000D02*
X97155000Y-95631000D01*
X101346000Y-95631000D02*
X102743000Y-95631000D01*
X100711000Y-95758000D02*
X99949000Y-95631000D01*
X100584000Y-95631000D02*
X100711000Y-95758000D01*
X98552000Y-95631000D02*
X100584000Y-95631000D01*
X207384000Y-47886000D02*
X207518000Y-47752000D01*
X207518000Y-56642000D02*
X207518000Y-64516000D01*
X207518000Y-75692000D02*
X207518000Y-84836000D01*
X207518000Y-100584000D02*
X207518000Y-113030000D01*
X207384000Y-47886000D02*
X196302000Y-47886000D01*
D25*
X207645000Y-134620000D02*
X207518000Y-125857000D01*
X192278000Y-142240000D02*
X207645000Y-142240000D01*
X169164000Y-75946000D02*
X179832000Y-75946000D01*
X192278000Y-75946000D02*
X192278000Y-85344000D01*
X192278000Y-96266000D02*
X192278000Y-100584000D01*
X192278000Y-108712000D02*
X192278000Y-116205000D01*
X192278000Y-125857000D02*
X192532000Y-126111000D01*
X192532000Y-126111000D02*
X192278000Y-134747000D01*
D24*
X109347000Y-99822000D02*
X109347000Y-101092000D01*
X107950000Y-102362000D02*
X106553000Y-102362000D01*
X105156000Y-102362000D02*
X105156000Y-101092000D01*
D25*
X107950000Y-99822000D02*
X107950000Y-101092000D01*
D10*
X96647000Y-92075000D02*
X90043000Y-102235000D01*
X96647000Y-92456000D02*
X96647000Y-92075000D01*
X95758000Y-95631000D02*
X96647000Y-92456000D01*
X90043000Y-92075000D02*
X90043000Y-83312000D01*
X95758000Y-95631000D02*
X95758000Y-95758000D01*
D27*
X106680000Y-99949000D02*
X106553000Y-99822000D01*
X106680000Y-100965000D02*
X106680000Y-99949000D01*
X106553000Y-101092000D02*
X106680000Y-100965000D01*
X105156000Y-99822000D02*
X105156000Y-101092000D01*
D25*
X186142000Y-47886000D02*
X186142000Y-48474000D01*
X186142000Y-48474000D02*
X188849000Y-51181000D01*
D26*
X120078500Y-95567500D02*
X120078500Y-93027500D01*
D24*
X99339400Y-123672600D02*
X103505000Y-123672600D01*
X98348800Y-122682000D02*
X99339400Y-123672600D01*
D25*
X98298000Y-120396000D02*
X94107000Y-120396000D01*
D24*
X151130000Y-77978000D02*
X151130000Y-66802000D01*
X165608000Y-85471000D02*
X167513000Y-85471000D01*
X166370000Y-89154000D02*
X158877000Y-89154000D01*
X132715000Y-88011000D02*
X131826000Y-87122000D01*
X131826000Y-87122000D02*
X131826000Y-86868000D01*
X157734000Y-88011000D02*
X132715000Y-88011000D01*
X158877000Y-89154000D02*
X157734000Y-88011000D01*
X181610000Y-62738000D02*
X181610000Y-64770000D01*
X175006000Y-62103000D02*
X175006000Y-64770000D01*
X141351000Y-62738000D02*
X141351000Y-64770000D01*
X134874000Y-62484000D02*
X134874000Y-64770000D01*
D25*
X144526000Y-126492000D02*
X142240000Y-126492000D01*
X146431000Y-124587000D02*
X144526000Y-126492000D01*
X146431000Y-117348000D02*
X146431000Y-124587000D01*
X143637000Y-123952000D02*
X142240000Y-123952000D01*
X145288000Y-122301000D02*
X143637000Y-123952000D01*
X145288000Y-116586000D02*
X145288000Y-122301000D01*
X145542000Y-116332000D02*
X145288000Y-116586000D01*
X142240000Y-121412000D02*
X143510000Y-121412000D01*
X146939000Y-113030000D02*
X150876000Y-113030000D01*
X144145000Y-115824000D02*
X146939000Y-113030000D01*
X144145000Y-120777000D02*
X144145000Y-115824000D01*
X143510000Y-121412000D02*
X144145000Y-120777000D01*
D24*
X167767000Y-81026000D02*
X167894000Y-81026000D01*
X167386000Y-81026000D02*
X167767000Y-81026000D01*
X166116000Y-81026000D02*
X167386000Y-81026000D01*
X163322000Y-84836000D02*
X163322000Y-83820000D01*
X163322000Y-83820000D02*
X166116000Y-81026000D01*
X161290000Y-86868000D02*
X163322000Y-84836000D01*
X169164000Y-80518000D02*
X168783000Y-80137000D01*
X166243000Y-80137000D02*
X168783000Y-80137000D01*
X169164000Y-80645000D02*
X169164000Y-80518000D01*
X160655000Y-85725000D02*
X166243000Y-80137000D01*
X160655000Y-85852000D02*
X160655000Y-85725000D01*
X170815000Y-77978000D02*
X166624000Y-77978000D01*
X159893000Y-84709000D02*
X165989000Y-78613000D01*
X166624000Y-77978000D02*
X165989000Y-78613000D01*
X170688000Y-77851000D02*
X170815000Y-77978000D01*
X172339000Y-79375000D02*
X172339000Y-78232000D01*
X159194500Y-83629500D02*
X165735000Y-77089000D01*
X159067500Y-83629500D02*
X159194500Y-83629500D01*
X165735000Y-77089000D02*
X171196000Y-77089000D01*
X172339000Y-78232000D02*
X171196000Y-77089000D01*
D25*
X158369000Y-101346000D02*
X158369000Y-108712000D01*
X172593000Y-122936000D02*
X172593000Y-126492000D01*
X158369000Y-108712000D02*
X172593000Y-122936000D01*
D24*
X152146000Y-101346000D02*
X152146000Y-96774000D01*
D25*
X157480000Y-96012000D02*
X157480000Y-110109000D01*
X157607000Y-110236000D02*
X171270000Y-123899000D01*
X157480000Y-110109000D02*
X157607000Y-110236000D01*
X157607000Y-95885000D02*
X157480000Y-96012000D01*
X171259500Y-123888500D02*
X171270000Y-123899000D01*
D24*
X170053000Y-126492000D02*
X170053000Y-123825000D01*
X156464000Y-110236000D02*
X170053000Y-123825000D01*
X156464000Y-110236000D02*
X156464000Y-96012000D01*
X167386000Y-106807000D02*
X161163000Y-106807000D01*
D25*
X171323000Y-131572000D02*
X175895000Y-131572000D01*
X178689000Y-107188000D02*
X174371000Y-102870000D01*
X174371000Y-102870000D02*
X165354000Y-102870000D01*
X178689000Y-128778000D02*
X178689000Y-107188000D01*
X175895000Y-131572000D02*
X178689000Y-128778000D01*
X166116000Y-123825000D02*
X166116000Y-128651000D01*
X166116000Y-123825000D02*
X153797000Y-111506000D01*
X153797000Y-101600000D02*
X153797000Y-111506000D01*
X166497000Y-129032000D02*
X167513000Y-129032000D01*
X166116000Y-128651000D02*
X166497000Y-129032000D01*
X153797000Y-96774000D02*
X153797000Y-101600000D01*
D24*
X153797000Y-101600000D02*
X153797000Y-102108000D01*
X167513000Y-124333000D02*
X167513000Y-126492000D01*
X154813000Y-111633000D02*
X167513000Y-124333000D01*
X154813000Y-97409000D02*
X154813000Y-111633000D01*
X154813000Y-96774000D02*
X154813000Y-97409000D01*
D25*
X165354000Y-123952000D02*
X165354000Y-129921000D01*
X152908000Y-96012000D02*
X152908000Y-97282000D01*
X152908000Y-111506000D02*
X152908000Y-97282000D01*
X165354000Y-123952000D02*
X152908000Y-111506000D01*
X167005000Y-131572000D02*
X168783000Y-131572000D01*
X165354000Y-129921000D02*
X167005000Y-131572000D01*
D24*
X168783000Y-123952000D02*
X168783000Y-123825000D01*
X168783000Y-123825000D02*
X155448000Y-110490000D01*
X155448000Y-110490000D02*
X155448000Y-93980000D01*
D25*
X197866000Y-129032000D02*
X197866000Y-108966000D01*
X175514000Y-102108000D02*
X191008000Y-102108000D01*
X175514000Y-102108000D02*
X172212000Y-98806000D01*
X197802500Y-108902500D02*
X191008000Y-102108000D01*
X197866000Y-108966000D02*
X197802500Y-108902500D01*
X166243000Y-82677000D02*
X167640000Y-82677000D01*
X167640000Y-82677000D02*
X170180000Y-85217000D01*
X170180000Y-85217000D02*
X170180000Y-90932000D01*
X170180000Y-90932000D02*
X171323000Y-92075000D01*
X171323000Y-92075000D02*
X171323000Y-97917000D01*
X171323000Y-97917000D02*
X172212000Y-98806000D01*
X172085000Y-98679000D02*
X172212000Y-98806000D01*
X166370000Y-82804000D02*
X166243000Y-82677000D01*
D24*
X166243000Y-82677000D02*
X166370000Y-82804000D01*
D26*
X98742500Y-78168500D02*
X96837500Y-76263500D01*
X106997500Y-78168500D02*
X98742500Y-78168500D01*
X124523500Y-95694500D02*
X106997500Y-78168500D01*
X128397000Y-95694500D02*
X124523500Y-95694500D01*
X142557500Y-109855000D02*
X128397000Y-95694500D01*
X99314000Y-77216000D02*
X96774000Y-74676000D01*
X107823000Y-77216000D02*
X99314000Y-77216000D01*
X125031500Y-94424500D02*
X107823000Y-77216000D01*
X128778000Y-94424500D02*
X125031500Y-94424500D01*
X143510000Y-109156500D02*
X128778000Y-94424500D01*
D25*
X160020000Y-99060000D02*
X160020000Y-108458000D01*
X151765000Y-109982000D02*
X152019000Y-110236000D01*
X152019000Y-110236000D02*
X152019000Y-118491000D01*
X152019000Y-122936000D02*
X152019000Y-118491000D01*
X152019000Y-122936000D02*
X152019000Y-123190000D01*
X186690000Y-139700000D02*
X185674000Y-139700000D01*
X152654000Y-124460000D02*
X152400000Y-124206000D01*
X152400000Y-124206000D02*
X152019000Y-123825000D01*
X162814000Y-134620000D02*
X163830000Y-135636000D01*
X162814000Y-134620000D02*
X152654000Y-124460000D01*
X183388000Y-135636000D02*
X163830000Y-135636000D01*
X184912000Y-137160000D02*
X183388000Y-135636000D01*
X184912000Y-138938000D02*
X184912000Y-137160000D01*
X185674000Y-139700000D02*
X184912000Y-138938000D01*
X152019000Y-123317000D02*
X152019000Y-123063000D01*
X152019000Y-123825000D02*
X152019000Y-123317000D01*
X152146000Y-123952000D02*
X152019000Y-123825000D01*
X152019000Y-123825000D02*
X152146000Y-123952000D01*
X162433000Y-96647000D02*
X160020000Y-99060000D01*
D24*
X178181000Y-66548000D02*
X178181000Y-67945000D01*
X178689000Y-66040000D02*
X178181000Y-66548000D01*
X181483000Y-66040000D02*
X178689000Y-66040000D01*
X177292000Y-66548000D02*
X177292000Y-67945000D01*
X178435000Y-65405000D02*
X177292000Y-66548000D01*
X182118000Y-65405000D02*
X178435000Y-65405000D01*
X137541000Y-66929000D02*
X137541000Y-68199000D01*
X138303000Y-66167000D02*
X137541000Y-66929000D01*
X140843000Y-66167000D02*
X138303000Y-66167000D01*
X136652000Y-66675000D02*
X136652000Y-68199000D01*
X137795000Y-65532000D02*
X136652000Y-66675000D01*
X141605000Y-65532000D02*
X137795000Y-65532000D01*
D26*
X127444500Y-98171000D02*
X100266500Y-98171000D01*
X140970000Y-111696500D02*
X127444500Y-98171000D01*
X128016000Y-97218500D02*
X99123500Y-97218500D01*
X143573500Y-112776000D02*
X128016000Y-97218500D01*
D24*
X165163500Y-87566500D02*
X166052500Y-87566500D01*
X165100000Y-87630000D02*
X165163500Y-87566500D01*
X166052500Y-87566500D02*
X170688000Y-92202000D01*
X170688000Y-101346000D02*
X170688000Y-101854000D01*
X170688000Y-92202000D02*
X170688000Y-101346000D01*
D25*
X173990000Y-123317000D02*
X174879000Y-124206000D01*
X173990000Y-128778000D02*
X173736000Y-129032000D01*
X172593000Y-129032000D02*
X173736000Y-129032000D01*
X168402000Y-104775000D02*
X167894000Y-104267000D01*
X168402000Y-117729000D02*
X168402000Y-104775000D01*
X173990000Y-123317000D02*
X168402000Y-117729000D01*
X174879000Y-127889000D02*
X173990000Y-128778000D01*
X174879000Y-124206000D02*
X174879000Y-127889000D01*
D28*
G36*
X133223000Y-125782606D02*
X133223000Y-143290000D01*
X89710000Y-143290000D01*
X89710000Y-140440383D01*
X95609769Y-140440383D01*
X95812582Y-140931229D01*
X96187796Y-141307098D01*
X96678287Y-141510768D01*
X97209383Y-141511231D01*
X97700229Y-141308418D01*
X98076098Y-140933204D01*
X98279768Y-140442713D01*
X98279770Y-140440383D01*
X101109769Y-140440383D01*
X101312582Y-140931229D01*
X101687796Y-141307098D01*
X102178287Y-141510768D01*
X102709383Y-141511231D01*
X103200229Y-141308418D01*
X103576098Y-140933204D01*
X103779768Y-140442713D01*
X103780231Y-139911617D01*
X103577418Y-139420771D01*
X103202204Y-139044902D01*
X102711713Y-138841232D01*
X102180617Y-138840769D01*
X101689771Y-139043582D01*
X101313902Y-139418796D01*
X101110232Y-139909287D01*
X101109769Y-140440383D01*
X98279770Y-140440383D01*
X98280231Y-139911617D01*
X98077418Y-139420771D01*
X97702204Y-139044902D01*
X97211713Y-138841232D01*
X96680617Y-138840769D01*
X96189771Y-139043582D01*
X95813902Y-139418796D01*
X95610232Y-139909287D01*
X95609769Y-140440383D01*
X89710000Y-140440383D01*
X89710000Y-132688350D01*
X120729255Y-132688350D01*
X120821792Y-132950019D01*
X121413398Y-133168188D01*
X122043461Y-133143352D01*
X122510208Y-132950019D01*
X122602745Y-132688350D01*
X121666000Y-131751605D01*
X120729255Y-132688350D01*
X89710000Y-132688350D01*
X89710000Y-130373305D01*
X90114674Y-130373305D01*
X90401043Y-131066372D01*
X90930839Y-131597093D01*
X91623405Y-131884672D01*
X92373305Y-131885326D01*
X93066372Y-131598957D01*
X93346419Y-131319398D01*
X120069812Y-131319398D01*
X120094648Y-131949461D01*
X120287981Y-132416208D01*
X120549650Y-132508745D01*
X121486395Y-131572000D01*
X121845605Y-131572000D01*
X122782350Y-132508745D01*
X123044019Y-132416208D01*
X123262188Y-131824602D01*
X123237352Y-131194539D01*
X123044019Y-130727792D01*
X122782350Y-130635255D01*
X121845605Y-131572000D01*
X121486395Y-131572000D01*
X120549650Y-130635255D01*
X120287981Y-130727792D01*
X120069812Y-131319398D01*
X93346419Y-131319398D01*
X93597093Y-131069161D01*
X93884672Y-130376595D01*
X93885326Y-129626695D01*
X93769302Y-129345893D01*
X120080725Y-129345893D01*
X120321519Y-129928657D01*
X120760211Y-130368116D01*
X120729255Y-130455650D01*
X121666000Y-131392395D01*
X122602745Y-130455650D01*
X122571593Y-130367561D01*
X123008914Y-129931003D01*
X123250724Y-129348659D01*
X123251275Y-128718107D01*
X123010481Y-128135343D01*
X122565003Y-127689086D01*
X121982659Y-127447276D01*
X121352107Y-127446725D01*
X120769343Y-127687519D01*
X120323086Y-128132997D01*
X120081276Y-128715341D01*
X120080725Y-129345893D01*
X93769302Y-129345893D01*
X93598957Y-128933628D01*
X93069161Y-128402907D01*
X92376595Y-128115328D01*
X91626695Y-128114674D01*
X90933628Y-128401043D01*
X90402907Y-128930839D01*
X90115328Y-129623405D01*
X90114674Y-130373305D01*
X89710000Y-130373305D01*
X89710000Y-122906775D01*
X97213603Y-122906775D01*
X97386033Y-123324086D01*
X97705035Y-123643645D01*
X98122044Y-123816803D01*
X98444438Y-123817084D01*
X98819677Y-124192324D01*
X99058128Y-124351651D01*
X99339400Y-124407600D01*
X102634985Y-124407600D01*
X102861235Y-124634245D01*
X103278244Y-124807403D01*
X103729775Y-124807797D01*
X104147086Y-124635367D01*
X104466645Y-124316365D01*
X104639803Y-123899356D01*
X104640197Y-123447825D01*
X104467767Y-123030514D01*
X104148765Y-122710955D01*
X103731756Y-122537797D01*
X103280225Y-122537403D01*
X102862914Y-122709833D01*
X102634749Y-122937600D01*
X99643847Y-122937600D01*
X99483718Y-122777471D01*
X99483997Y-122457225D01*
X99311567Y-122039914D01*
X98992565Y-121720355D01*
X98575556Y-121547197D01*
X98124025Y-121546803D01*
X97706714Y-121719233D01*
X97387155Y-122038235D01*
X97213997Y-122455244D01*
X97213603Y-122906775D01*
X89710000Y-122906775D01*
X89710000Y-120581167D01*
X93171838Y-120581167D01*
X93313883Y-120924943D01*
X93576673Y-121188192D01*
X93920201Y-121330838D01*
X94292167Y-121331162D01*
X94635943Y-121189117D01*
X94644074Y-121181000D01*
X97760494Y-121181000D01*
X97767673Y-121188192D01*
X98111201Y-121330838D01*
X98483167Y-121331162D01*
X98826943Y-121189117D01*
X99090192Y-120926327D01*
X99232838Y-120582799D01*
X99233162Y-120210833D01*
X99091117Y-119867057D01*
X98828327Y-119603808D01*
X98484799Y-119461162D01*
X98112833Y-119460838D01*
X97769057Y-119602883D01*
X97760926Y-119611000D01*
X94644506Y-119611000D01*
X94637327Y-119603808D01*
X94293799Y-119461162D01*
X93921833Y-119460838D01*
X93578057Y-119602883D01*
X93314808Y-119865673D01*
X93172162Y-120209201D01*
X93171838Y-120581167D01*
X89710000Y-120581167D01*
X89710000Y-114397775D01*
X91955803Y-114397775D01*
X92128233Y-114815086D01*
X92447235Y-115134645D01*
X92864244Y-115307803D01*
X93315775Y-115308197D01*
X93733086Y-115135767D01*
X93961251Y-114908000D01*
X100221985Y-114908000D01*
X100448235Y-115134645D01*
X100865244Y-115307803D01*
X101316775Y-115308197D01*
X101734086Y-115135767D01*
X102053645Y-114816765D01*
X102226803Y-114399756D01*
X102227197Y-113948225D01*
X102054767Y-113530914D01*
X101735765Y-113211355D01*
X101318756Y-113038197D01*
X100867225Y-113037803D01*
X100449914Y-113210233D01*
X100221749Y-113438000D01*
X93961015Y-113438000D01*
X93734765Y-113211355D01*
X93317756Y-113038197D01*
X92866225Y-113037803D01*
X92448914Y-113210233D01*
X92129355Y-113529235D01*
X91956197Y-113946244D01*
X91955803Y-114397775D01*
X89710000Y-114397775D01*
X89710000Y-110617000D01*
X118057394Y-110617000D01*
X133223000Y-125782606D01*
X133223000Y-125782606D01*
G37*
X133223000Y-125782606D02*
X133223000Y-143290000D01*
X89710000Y-143290000D01*
X89710000Y-140440383D01*
X95609769Y-140440383D01*
X95812582Y-140931229D01*
X96187796Y-141307098D01*
X96678287Y-141510768D01*
X97209383Y-141511231D01*
X97700229Y-141308418D01*
X98076098Y-140933204D01*
X98279768Y-140442713D01*
X98279770Y-140440383D01*
X101109769Y-140440383D01*
X101312582Y-140931229D01*
X101687796Y-141307098D01*
X102178287Y-141510768D01*
X102709383Y-141511231D01*
X103200229Y-141308418D01*
X103576098Y-140933204D01*
X103779768Y-140442713D01*
X103780231Y-139911617D01*
X103577418Y-139420771D01*
X103202204Y-139044902D01*
X102711713Y-138841232D01*
X102180617Y-138840769D01*
X101689771Y-139043582D01*
X101313902Y-139418796D01*
X101110232Y-139909287D01*
X101109769Y-140440383D01*
X98279770Y-140440383D01*
X98280231Y-139911617D01*
X98077418Y-139420771D01*
X97702204Y-139044902D01*
X97211713Y-138841232D01*
X96680617Y-138840769D01*
X96189771Y-139043582D01*
X95813902Y-139418796D01*
X95610232Y-139909287D01*
X95609769Y-140440383D01*
X89710000Y-140440383D01*
X89710000Y-132688350D01*
X120729255Y-132688350D01*
X120821792Y-132950019D01*
X121413398Y-133168188D01*
X122043461Y-133143352D01*
X122510208Y-132950019D01*
X122602745Y-132688350D01*
X121666000Y-131751605D01*
X120729255Y-132688350D01*
X89710000Y-132688350D01*
X89710000Y-130373305D01*
X90114674Y-130373305D01*
X90401043Y-131066372D01*
X90930839Y-131597093D01*
X91623405Y-131884672D01*
X92373305Y-131885326D01*
X93066372Y-131598957D01*
X93346419Y-131319398D01*
X120069812Y-131319398D01*
X120094648Y-131949461D01*
X120287981Y-132416208D01*
X120549650Y-132508745D01*
X121486395Y-131572000D01*
X121845605Y-131572000D01*
X122782350Y-132508745D01*
X123044019Y-132416208D01*
X123262188Y-131824602D01*
X123237352Y-131194539D01*
X123044019Y-130727792D01*
X122782350Y-130635255D01*
X121845605Y-131572000D01*
X121486395Y-131572000D01*
X120549650Y-130635255D01*
X120287981Y-130727792D01*
X120069812Y-131319398D01*
X93346419Y-131319398D01*
X93597093Y-131069161D01*
X93884672Y-130376595D01*
X93885326Y-129626695D01*
X93769302Y-129345893D01*
X120080725Y-129345893D01*
X120321519Y-129928657D01*
X120760211Y-130368116D01*
X120729255Y-130455650D01*
X121666000Y-131392395D01*
X122602745Y-130455650D01*
X122571593Y-130367561D01*
X123008914Y-129931003D01*
X123250724Y-129348659D01*
X123251275Y-128718107D01*
X123010481Y-128135343D01*
X122565003Y-127689086D01*
X121982659Y-127447276D01*
X121352107Y-127446725D01*
X120769343Y-127687519D01*
X120323086Y-128132997D01*
X120081276Y-128715341D01*
X120080725Y-129345893D01*
X93769302Y-129345893D01*
X93598957Y-128933628D01*
X93069161Y-128402907D01*
X92376595Y-128115328D01*
X91626695Y-128114674D01*
X90933628Y-128401043D01*
X90402907Y-128930839D01*
X90115328Y-129623405D01*
X90114674Y-130373305D01*
X89710000Y-130373305D01*
X89710000Y-122906775D01*
X97213603Y-122906775D01*
X97386033Y-123324086D01*
X97705035Y-123643645D01*
X98122044Y-123816803D01*
X98444438Y-123817084D01*
X98819677Y-124192324D01*
X99058128Y-124351651D01*
X99339400Y-124407600D01*
X102634985Y-124407600D01*
X102861235Y-124634245D01*
X103278244Y-124807403D01*
X103729775Y-124807797D01*
X104147086Y-124635367D01*
X104466645Y-124316365D01*
X104639803Y-123899356D01*
X104640197Y-123447825D01*
X104467767Y-123030514D01*
X104148765Y-122710955D01*
X103731756Y-122537797D01*
X103280225Y-122537403D01*
X102862914Y-122709833D01*
X102634749Y-122937600D01*
X99643847Y-122937600D01*
X99483718Y-122777471D01*
X99483997Y-122457225D01*
X99311567Y-122039914D01*
X98992565Y-121720355D01*
X98575556Y-121547197D01*
X98124025Y-121546803D01*
X97706714Y-121719233D01*
X97387155Y-122038235D01*
X97213997Y-122455244D01*
X97213603Y-122906775D01*
X89710000Y-122906775D01*
X89710000Y-120581167D01*
X93171838Y-120581167D01*
X93313883Y-120924943D01*
X93576673Y-121188192D01*
X93920201Y-121330838D01*
X94292167Y-121331162D01*
X94635943Y-121189117D01*
X94644074Y-121181000D01*
X97760494Y-121181000D01*
X97767673Y-121188192D01*
X98111201Y-121330838D01*
X98483167Y-121331162D01*
X98826943Y-121189117D01*
X99090192Y-120926327D01*
X99232838Y-120582799D01*
X99233162Y-120210833D01*
X99091117Y-119867057D01*
X98828327Y-119603808D01*
X98484799Y-119461162D01*
X98112833Y-119460838D01*
X97769057Y-119602883D01*
X97760926Y-119611000D01*
X94644506Y-119611000D01*
X94637327Y-119603808D01*
X94293799Y-119461162D01*
X93921833Y-119460838D01*
X93578057Y-119602883D01*
X93314808Y-119865673D01*
X93172162Y-120209201D01*
X93171838Y-120581167D01*
X89710000Y-120581167D01*
X89710000Y-114397775D01*
X91955803Y-114397775D01*
X92128233Y-114815086D01*
X92447235Y-115134645D01*
X92864244Y-115307803D01*
X93315775Y-115308197D01*
X93733086Y-115135767D01*
X93961251Y-114908000D01*
X100221985Y-114908000D01*
X100448235Y-115134645D01*
X100865244Y-115307803D01*
X101316775Y-115308197D01*
X101734086Y-115135767D01*
X102053645Y-114816765D01*
X102226803Y-114399756D01*
X102227197Y-113948225D01*
X102054767Y-113530914D01*
X101735765Y-113211355D01*
X101318756Y-113038197D01*
X100867225Y-113037803D01*
X100449914Y-113210233D01*
X100221749Y-113438000D01*
X93961015Y-113438000D01*
X93734765Y-113211355D01*
X93317756Y-113038197D01*
X92866225Y-113037803D01*
X92448914Y-113210233D01*
X92129355Y-113529235D01*
X91956197Y-113946244D01*
X91955803Y-114397775D01*
X89710000Y-114397775D01*
X89710000Y-110617000D01*
X118057394Y-110617000D01*
X133223000Y-125782606D01*
G36*
X105275130Y-46754738D02*
X104997901Y-46865641D01*
X104754677Y-47511593D01*
X104777164Y-48201453D01*
X104997901Y-48734359D01*
X105275132Y-48845263D01*
X106320395Y-47800000D01*
X106306253Y-47785858D01*
X106485858Y-47606253D01*
X106500000Y-47620395D01*
X106514143Y-47606253D01*
X106693748Y-47785858D01*
X106679605Y-47800000D01*
X107724868Y-48845263D01*
X108002099Y-48734359D01*
X108245323Y-48088407D01*
X108222836Y-47398547D01*
X108002099Y-46865641D01*
X107724870Y-46754738D01*
X107769608Y-46710000D01*
X110230392Y-46710000D01*
X110275130Y-46754738D01*
X109997901Y-46865641D01*
X109754677Y-47511593D01*
X109777164Y-48201453D01*
X109997901Y-48734359D01*
X110275132Y-48845263D01*
X111320395Y-47800000D01*
X111306253Y-47785858D01*
X111485858Y-47606253D01*
X111500000Y-47620395D01*
X111514143Y-47606253D01*
X111693748Y-47785858D01*
X111679605Y-47800000D01*
X112724868Y-48845263D01*
X113002099Y-48734359D01*
X113245323Y-48088407D01*
X113222836Y-47398547D01*
X113002099Y-46865641D01*
X112724870Y-46754738D01*
X112769608Y-46710000D01*
X118859788Y-46710000D01*
X118843090Y-46726698D01*
X118957130Y-46840738D01*
X118679901Y-46951641D01*
X118436677Y-47597593D01*
X118459164Y-48287453D01*
X118679901Y-48820359D01*
X118957132Y-48931263D01*
X120002395Y-47886000D01*
X119988253Y-47871858D01*
X120167858Y-47692253D01*
X120182000Y-47706395D01*
X120196143Y-47692253D01*
X120375748Y-47871858D01*
X120361605Y-47886000D01*
X121406868Y-48931263D01*
X121684099Y-48820359D01*
X121927323Y-48174407D01*
X121904836Y-47484547D01*
X121684099Y-46951641D01*
X121406870Y-46840738D01*
X121520910Y-46726698D01*
X121504212Y-46710000D01*
X123859788Y-46710000D01*
X123843090Y-46726698D01*
X123957130Y-46840738D01*
X123679901Y-46951641D01*
X123436677Y-47597593D01*
X123459164Y-48287453D01*
X123679901Y-48820359D01*
X123957132Y-48931263D01*
X125002395Y-47886000D01*
X124988253Y-47871858D01*
X125167858Y-47692253D01*
X125182000Y-47706395D01*
X125196143Y-47692253D01*
X125375748Y-47871858D01*
X125361605Y-47886000D01*
X126406868Y-48931263D01*
X126684099Y-48820359D01*
X126927323Y-48174407D01*
X126904836Y-47484547D01*
X126684099Y-46951641D01*
X126406870Y-46840738D01*
X126520910Y-46726698D01*
X126504212Y-46710000D01*
X129019788Y-46710000D01*
X129003090Y-46726698D01*
X129117130Y-46840738D01*
X128839901Y-46951641D01*
X128596677Y-47597593D01*
X128619164Y-48287453D01*
X128839901Y-48820359D01*
X129117132Y-48931263D01*
X130162395Y-47886000D01*
X130148253Y-47871858D01*
X130327858Y-47692253D01*
X130342000Y-47706395D01*
X130356143Y-47692253D01*
X130535748Y-47871858D01*
X130521605Y-47886000D01*
X131566868Y-48931263D01*
X131844099Y-48820359D01*
X132087323Y-48174407D01*
X132064836Y-47484547D01*
X131844099Y-46951641D01*
X131566870Y-46840738D01*
X131680910Y-46726698D01*
X131664212Y-46710000D01*
X134019788Y-46710000D01*
X134003090Y-46726698D01*
X134117130Y-46840738D01*
X133839901Y-46951641D01*
X133596677Y-47597593D01*
X133619164Y-48287453D01*
X133839901Y-48820359D01*
X134117132Y-48931263D01*
X135162395Y-47886000D01*
X135148253Y-47871858D01*
X135327858Y-47692253D01*
X135342000Y-47706395D01*
X135356143Y-47692253D01*
X135535748Y-47871858D01*
X135521605Y-47886000D01*
X136566868Y-48931263D01*
X136844099Y-48820359D01*
X137087323Y-48174407D01*
X137064836Y-47484547D01*
X136844099Y-46951641D01*
X136566870Y-46840738D01*
X136680910Y-46726698D01*
X136664212Y-46710000D01*
X139179788Y-46710000D01*
X139163090Y-46726698D01*
X139277130Y-46840738D01*
X138999901Y-46951641D01*
X138756677Y-47597593D01*
X138779164Y-48287453D01*
X138999901Y-48820359D01*
X139277132Y-48931263D01*
X140322395Y-47886000D01*
X140308253Y-47871858D01*
X140487858Y-47692253D01*
X140502000Y-47706395D01*
X140516143Y-47692253D01*
X140695748Y-47871858D01*
X140681605Y-47886000D01*
X141726868Y-48931263D01*
X142004099Y-48820359D01*
X142247323Y-48174407D01*
X142224836Y-47484547D01*
X142004099Y-46951641D01*
X141726870Y-46840738D01*
X141840910Y-46726698D01*
X141824212Y-46710000D01*
X144179788Y-46710000D01*
X144163090Y-46726698D01*
X144277130Y-46840738D01*
X143999901Y-46951641D01*
X143756677Y-47597593D01*
X143779164Y-48287453D01*
X143999901Y-48820359D01*
X144277132Y-48931263D01*
X145322395Y-47886000D01*
X145308253Y-47871858D01*
X145487858Y-47692253D01*
X145502000Y-47706395D01*
X145516143Y-47692253D01*
X145695748Y-47871858D01*
X145681605Y-47886000D01*
X146726868Y-48931263D01*
X147004099Y-48820359D01*
X147247323Y-48174407D01*
X147224836Y-47484547D01*
X147004099Y-46951641D01*
X146726870Y-46840738D01*
X146840910Y-46726698D01*
X146824212Y-46710000D01*
X149339788Y-46710000D01*
X149323090Y-46726698D01*
X149437130Y-46840738D01*
X149159901Y-46951641D01*
X148916677Y-47597593D01*
X148939164Y-48287453D01*
X149159901Y-48820359D01*
X149437132Y-48931263D01*
X150482395Y-47886000D01*
X150468253Y-47871858D01*
X150647858Y-47692253D01*
X150662000Y-47706395D01*
X150676143Y-47692253D01*
X150855748Y-47871858D01*
X150841605Y-47886000D01*
X151886868Y-48931263D01*
X152164099Y-48820359D01*
X152407323Y-48174407D01*
X152384836Y-47484547D01*
X152164099Y-46951641D01*
X151886870Y-46840738D01*
X152000910Y-46726698D01*
X151984212Y-46710000D01*
X154339788Y-46710000D01*
X154323090Y-46726698D01*
X154437130Y-46840738D01*
X154159901Y-46951641D01*
X153916677Y-47597593D01*
X153939164Y-48287453D01*
X154159901Y-48820359D01*
X154437132Y-48931263D01*
X155482395Y-47886000D01*
X155468253Y-47871858D01*
X155647858Y-47692253D01*
X155662000Y-47706395D01*
X155676143Y-47692253D01*
X155855748Y-47871858D01*
X155841605Y-47886000D01*
X156886868Y-48931263D01*
X157164099Y-48820359D01*
X157407323Y-48174407D01*
X157384836Y-47484547D01*
X157164099Y-46951641D01*
X156886870Y-46840738D01*
X157000910Y-46726698D01*
X156984212Y-46710000D01*
X159499788Y-46710000D01*
X159483090Y-46726698D01*
X159597130Y-46840738D01*
X159319901Y-46951641D01*
X159076677Y-47597593D01*
X159099164Y-48287453D01*
X159319901Y-48820359D01*
X159597132Y-48931263D01*
X160642395Y-47886000D01*
X160628253Y-47871858D01*
X160807858Y-47692253D01*
X160822000Y-47706395D01*
X160836143Y-47692253D01*
X161015748Y-47871858D01*
X161001605Y-47886000D01*
X162046868Y-48931263D01*
X162324099Y-48820359D01*
X162567323Y-48174407D01*
X162544836Y-47484547D01*
X162324099Y-46951641D01*
X162046870Y-46840738D01*
X162160910Y-46726698D01*
X162144212Y-46710000D01*
X164499788Y-46710000D01*
X164483090Y-46726698D01*
X164597130Y-46840738D01*
X164319901Y-46951641D01*
X164076677Y-47597593D01*
X164099164Y-48287453D01*
X164319901Y-48820359D01*
X164597132Y-48931263D01*
X165642395Y-47886000D01*
X165628253Y-47871858D01*
X165807858Y-47692253D01*
X165822000Y-47706395D01*
X165836143Y-47692253D01*
X166015748Y-47871858D01*
X166001605Y-47886000D01*
X167046868Y-48931263D01*
X167324099Y-48820359D01*
X167567323Y-48174407D01*
X167544836Y-47484547D01*
X167324099Y-46951641D01*
X167046870Y-46840738D01*
X167160910Y-46726698D01*
X167144212Y-46710000D01*
X169659788Y-46710000D01*
X169643090Y-46726698D01*
X169757130Y-46840738D01*
X169479901Y-46951641D01*
X169236677Y-47597593D01*
X169259164Y-48287453D01*
X169479901Y-48820359D01*
X169757132Y-48931263D01*
X170802395Y-47886000D01*
X170788253Y-47871858D01*
X170967858Y-47692253D01*
X170982000Y-47706395D01*
X170996143Y-47692253D01*
X171175748Y-47871858D01*
X171161605Y-47886000D01*
X172206868Y-48931263D01*
X172484099Y-48820359D01*
X172727323Y-48174407D01*
X172704836Y-47484547D01*
X172484099Y-46951641D01*
X172206870Y-46840738D01*
X172320910Y-46726698D01*
X172304212Y-46710000D01*
X174659788Y-46710000D01*
X174643090Y-46726698D01*
X174757130Y-46840738D01*
X174479901Y-46951641D01*
X174236677Y-47597593D01*
X174259164Y-48287453D01*
X174479901Y-48820359D01*
X174757132Y-48931263D01*
X175802395Y-47886000D01*
X175788253Y-47871858D01*
X175967858Y-47692253D01*
X175982000Y-47706395D01*
X175996143Y-47692253D01*
X176175748Y-47871858D01*
X176161605Y-47886000D01*
X177206868Y-48931263D01*
X177484099Y-48820359D01*
X177727323Y-48174407D01*
X177704836Y-47484547D01*
X177484099Y-46951641D01*
X177206870Y-46840738D01*
X177320910Y-46726698D01*
X177304212Y-46710000D01*
X179819788Y-46710000D01*
X179803090Y-46726698D01*
X179917130Y-46840738D01*
X179639901Y-46951641D01*
X179396677Y-47597593D01*
X179419164Y-48287453D01*
X179639901Y-48820359D01*
X179917132Y-48931263D01*
X180962395Y-47886000D01*
X180948253Y-47871858D01*
X181127858Y-47692253D01*
X181142000Y-47706395D01*
X181156143Y-47692253D01*
X181335748Y-47871858D01*
X181321605Y-47886000D01*
X182366868Y-48931263D01*
X182644099Y-48820359D01*
X182887323Y-48174407D01*
X182864836Y-47484547D01*
X182644099Y-46951641D01*
X182366870Y-46840738D01*
X182480910Y-46726698D01*
X182464212Y-46710000D01*
X184819788Y-46710000D01*
X184803090Y-46726698D01*
X184917130Y-46840738D01*
X184639901Y-46951641D01*
X184396677Y-47597593D01*
X184419164Y-48287453D01*
X184639901Y-48820359D01*
X184917132Y-48931263D01*
X185962395Y-47886000D01*
X185948253Y-47871858D01*
X186127858Y-47692253D01*
X186142000Y-47706395D01*
X186156143Y-47692253D01*
X186335748Y-47871858D01*
X186321605Y-47886000D01*
X187366868Y-48931263D01*
X187644099Y-48820359D01*
X187887323Y-48174407D01*
X187864836Y-47484547D01*
X187644099Y-46951641D01*
X187366870Y-46840738D01*
X187480910Y-46726698D01*
X187464212Y-46710000D01*
X189979788Y-46710000D01*
X189963090Y-46726698D01*
X190077130Y-46840738D01*
X189799901Y-46951641D01*
X189556677Y-47597593D01*
X189579164Y-48287453D01*
X189799901Y-48820359D01*
X190077132Y-48931263D01*
X191122395Y-47886000D01*
X191108253Y-47871858D01*
X191287858Y-47692253D01*
X191302000Y-47706395D01*
X191316143Y-47692253D01*
X191495748Y-47871858D01*
X191481605Y-47886000D01*
X192526868Y-48931263D01*
X192804099Y-48820359D01*
X193047323Y-48174407D01*
X193024836Y-47484547D01*
X192804099Y-46951641D01*
X192526870Y-46840738D01*
X192640910Y-46726698D01*
X192624212Y-46710000D01*
X194979788Y-46710000D01*
X194963090Y-46726698D01*
X195077130Y-46840738D01*
X194799901Y-46951641D01*
X194556677Y-47597593D01*
X194579164Y-48287453D01*
X194799901Y-48820359D01*
X195077132Y-48931263D01*
X196122395Y-47886000D01*
X196108253Y-47871858D01*
X196287858Y-47692253D01*
X196302000Y-47706395D01*
X196316143Y-47692253D01*
X196495748Y-47871858D01*
X196481605Y-47886000D01*
X197526868Y-48931263D01*
X197804099Y-48820359D01*
X198047323Y-48174407D01*
X198024836Y-47484547D01*
X197804099Y-46951641D01*
X197526870Y-46840738D01*
X197640910Y-46726698D01*
X197624212Y-46710000D01*
X208290000Y-46710000D01*
X208290000Y-143290000D01*
X191262000Y-143290000D01*
X191262000Y-132460133D01*
X197157472Y-132460133D01*
X197211303Y-132689179D01*
X197688664Y-132854681D01*
X198193023Y-132824906D01*
X198520697Y-132689179D01*
X198574528Y-132460133D01*
X197866000Y-131751605D01*
X197157472Y-132460133D01*
X191262000Y-132460133D01*
X191262000Y-131394664D01*
X196583319Y-131394664D01*
X196613094Y-131899023D01*
X196748821Y-132226697D01*
X196977867Y-132280528D01*
X197686395Y-131572000D01*
X198045605Y-131572000D01*
X198754133Y-132280528D01*
X198983179Y-132226697D01*
X199135812Y-131786453D01*
X199135780Y-131823510D01*
X199328718Y-132290458D01*
X199685663Y-132648026D01*
X200152273Y-132841779D01*
X200657510Y-132842220D01*
X201124458Y-132649282D01*
X201482026Y-132292337D01*
X201675779Y-131825727D01*
X201676220Y-131320490D01*
X201483282Y-130853542D01*
X201126337Y-130495974D01*
X200659727Y-130302221D01*
X200442929Y-130302032D01*
X200733023Y-130284906D01*
X201060697Y-130149179D01*
X201114528Y-129920133D01*
X200406000Y-129211605D01*
X199697472Y-129920133D01*
X199751303Y-130149179D01*
X200191547Y-130301812D01*
X200154490Y-130301780D01*
X199687542Y-130494718D01*
X199329974Y-130851663D01*
X199136221Y-131318273D01*
X199136032Y-131535071D01*
X199118906Y-131244977D01*
X198983179Y-130917303D01*
X198754133Y-130863472D01*
X198045605Y-131572000D01*
X197686395Y-131572000D01*
X196977867Y-130863472D01*
X196748821Y-130917303D01*
X196583319Y-131394664D01*
X191262000Y-131394664D01*
X191262000Y-103472158D01*
X197081000Y-109291158D01*
X197081000Y-128021144D01*
X196789974Y-128311663D01*
X196596221Y-128778273D01*
X196595780Y-129283510D01*
X196788718Y-129750458D01*
X197145663Y-130108026D01*
X197612273Y-130301779D01*
X197829071Y-130301968D01*
X197538977Y-130319094D01*
X197211303Y-130454821D01*
X197157472Y-130683867D01*
X197866000Y-131392395D01*
X198574528Y-130683867D01*
X198520697Y-130454821D01*
X198080453Y-130302188D01*
X198117510Y-130302220D01*
X198584458Y-130109282D01*
X198942026Y-129752337D01*
X199135779Y-129285727D01*
X199135968Y-129068929D01*
X199153094Y-129359023D01*
X199288821Y-129686697D01*
X199517867Y-129740528D01*
X200226395Y-129032000D01*
X200585605Y-129032000D01*
X201294133Y-129740528D01*
X201523179Y-129686697D01*
X201688681Y-129209336D01*
X201658906Y-128704977D01*
X201523179Y-128377303D01*
X201294133Y-128323472D01*
X200585605Y-129032000D01*
X200226395Y-129032000D01*
X199517867Y-128323472D01*
X199288821Y-128377303D01*
X199136188Y-128817547D01*
X199136220Y-128780490D01*
X198943282Y-128313542D01*
X198773903Y-128143867D01*
X199697472Y-128143867D01*
X200406000Y-128852395D01*
X201114528Y-128143867D01*
X201060697Y-127914821D01*
X200583336Y-127749319D01*
X200078977Y-127779094D01*
X199751303Y-127914821D01*
X199697472Y-128143867D01*
X198773903Y-128143867D01*
X198651000Y-128020750D01*
X198651000Y-108966005D01*
X198651001Y-108966000D01*
X198591245Y-108665594D01*
X198421079Y-108410921D01*
X191563079Y-101552921D01*
X191308407Y-101382755D01*
X191262000Y-101373524D01*
X191262000Y-81373305D01*
X197114674Y-81373305D01*
X197401043Y-82066372D01*
X197930839Y-82597093D01*
X198623405Y-82884672D01*
X199373305Y-82885326D01*
X200066372Y-82598957D01*
X200597093Y-82069161D01*
X200884672Y-81376595D01*
X200885326Y-80626695D01*
X200598957Y-79933628D01*
X200069161Y-79402907D01*
X199376595Y-79115328D01*
X198626695Y-79114674D01*
X197933628Y-79401043D01*
X197402907Y-79930839D01*
X197115328Y-80623405D01*
X197114674Y-81373305D01*
X191262000Y-81373305D01*
X191262000Y-76835000D01*
X191251994Y-76785590D01*
X191223553Y-76743965D01*
X191181159Y-76716685D01*
X191135000Y-76708000D01*
X171854446Y-76708000D01*
X171715723Y-76569277D01*
X171477272Y-76409949D01*
X171196000Y-76354000D01*
X165735000Y-76354000D01*
X165453728Y-76409949D01*
X165215277Y-76569276D01*
X159239904Y-82544650D01*
X158852627Y-82544312D01*
X158453700Y-82709146D01*
X158148218Y-83014095D01*
X157982689Y-83412733D01*
X157982312Y-83844373D01*
X158147131Y-84243263D01*
X155114394Y-87276000D01*
X133019447Y-87276000D01*
X132886577Y-87143130D01*
X132910811Y-87084767D01*
X132911188Y-86653127D01*
X132746354Y-86254200D01*
X132441405Y-85948718D01*
X132042767Y-85783189D01*
X131611127Y-85782812D01*
X131212200Y-85947646D01*
X130906718Y-86252595D01*
X130741189Y-86651233D01*
X130740812Y-87082873D01*
X130905646Y-87481800D01*
X131210595Y-87787282D01*
X131609233Y-87952811D01*
X131617372Y-87952818D01*
X132195277Y-88530724D01*
X132350256Y-88634277D01*
X132433728Y-88690051D01*
X132715000Y-88746000D01*
X153644394Y-88746000D01*
X152347394Y-90043000D01*
X125980000Y-90043000D01*
X125980000Y-88773005D01*
X125980001Y-88773000D01*
X125920714Y-88474949D01*
X125912633Y-88434325D01*
X125720790Y-88147210D01*
X125720787Y-88147208D01*
X107169580Y-69596000D01*
X145808960Y-69596000D01*
X145808960Y-71628000D01*
X145853238Y-71863317D01*
X145992310Y-72079441D01*
X146204510Y-72224431D01*
X146456400Y-72275440D01*
X148183600Y-72275440D01*
X148418917Y-72231162D01*
X148635041Y-72092090D01*
X148780031Y-71879890D01*
X148788400Y-71838561D01*
X148800330Y-71856415D01*
X149286511Y-72181271D01*
X149860000Y-72295345D01*
X150395000Y-72188927D01*
X150395000Y-77107985D01*
X150168355Y-77334235D01*
X149995197Y-77751244D01*
X149994803Y-78202775D01*
X150167233Y-78620086D01*
X150486235Y-78939645D01*
X150903244Y-79112803D01*
X151354775Y-79113197D01*
X151772086Y-78940767D01*
X152091645Y-78621765D01*
X152264803Y-78204756D01*
X152265197Y-77753225D01*
X152092767Y-77335914D01*
X151865000Y-77107749D01*
X151865000Y-73472325D01*
X201614587Y-73472325D01*
X201976916Y-74349229D01*
X202647242Y-75020726D01*
X203523513Y-75384585D01*
X204472325Y-75385413D01*
X205349229Y-75023084D01*
X206020726Y-74352758D01*
X206384585Y-73476487D01*
X206385413Y-72527675D01*
X206023084Y-71650771D01*
X205352758Y-70979274D01*
X204476487Y-70615415D01*
X203527675Y-70614587D01*
X202650771Y-70976916D01*
X201979274Y-71647242D01*
X201615415Y-72523513D01*
X201614587Y-73472325D01*
X151865000Y-73472325D01*
X151865000Y-72188927D01*
X152400000Y-72295345D01*
X152973489Y-72181271D01*
X153459670Y-71856415D01*
X153670000Y-71541634D01*
X153880330Y-71856415D01*
X154366511Y-72181271D01*
X154940000Y-72295345D01*
X155513489Y-72181271D01*
X155999670Y-71856415D01*
X156210000Y-71541634D01*
X156420330Y-71856415D01*
X156906511Y-72181271D01*
X157480000Y-72295345D01*
X158053489Y-72181271D01*
X158539670Y-71856415D01*
X158750000Y-71541634D01*
X158960330Y-71856415D01*
X159446511Y-72181271D01*
X160020000Y-72295345D01*
X160593489Y-72181271D01*
X161079670Y-71856415D01*
X161290000Y-71541634D01*
X161500330Y-71856415D01*
X161986511Y-72181271D01*
X162560000Y-72295345D01*
X163133489Y-72181271D01*
X163619670Y-71856415D01*
X163830000Y-71541634D01*
X164040330Y-71856415D01*
X164526511Y-72181271D01*
X165100000Y-72295345D01*
X165673489Y-72181271D01*
X166159670Y-71856415D01*
X166370000Y-71541634D01*
X166580330Y-71856415D01*
X167066511Y-72181271D01*
X167640000Y-72295345D01*
X168213489Y-72181271D01*
X168699670Y-71856415D01*
X168906461Y-71546931D01*
X169277964Y-71962732D01*
X169805209Y-72216709D01*
X169820974Y-72219358D01*
X170053000Y-72098217D01*
X170053000Y-70739000D01*
X170307000Y-70739000D01*
X170307000Y-72098217D01*
X170539026Y-72219358D01*
X170554791Y-72216709D01*
X171082036Y-71962732D01*
X171471954Y-71526320D01*
X171665184Y-70973913D01*
X171520924Y-70739000D01*
X170307000Y-70739000D01*
X170053000Y-70739000D01*
X170033000Y-70739000D01*
X170033000Y-70485000D01*
X170053000Y-70485000D01*
X170053000Y-69125783D01*
X170307000Y-69125783D01*
X170307000Y-70485000D01*
X171520924Y-70485000D01*
X171665184Y-70250087D01*
X171471954Y-69697680D01*
X171082036Y-69261268D01*
X170554791Y-69007291D01*
X170539026Y-69004642D01*
X170307000Y-69125783D01*
X170053000Y-69125783D01*
X169820974Y-69004642D01*
X169805209Y-69007291D01*
X169277964Y-69261268D01*
X168906461Y-69677069D01*
X168699670Y-69367585D01*
X168213489Y-69042729D01*
X167640000Y-68928655D01*
X167066511Y-69042729D01*
X166580330Y-69367585D01*
X166370000Y-69682366D01*
X166159670Y-69367585D01*
X165673489Y-69042729D01*
X165100000Y-68928655D01*
X164526511Y-69042729D01*
X164040330Y-69367585D01*
X163830000Y-69682366D01*
X163619670Y-69367585D01*
X163133489Y-69042729D01*
X162560000Y-68928655D01*
X161986511Y-69042729D01*
X161500330Y-69367585D01*
X161290000Y-69682366D01*
X161079670Y-69367585D01*
X160593489Y-69042729D01*
X160020000Y-68928655D01*
X159446511Y-69042729D01*
X158960330Y-69367585D01*
X158750000Y-69682366D01*
X158539670Y-69367585D01*
X158053489Y-69042729D01*
X157480000Y-68928655D01*
X156906511Y-69042729D01*
X156420330Y-69367585D01*
X156210000Y-69682366D01*
X155999670Y-69367585D01*
X155513489Y-69042729D01*
X154940000Y-68928655D01*
X154366511Y-69042729D01*
X153880330Y-69367585D01*
X153670000Y-69682366D01*
X153459670Y-69367585D01*
X152973489Y-69042729D01*
X152400000Y-68928655D01*
X151865000Y-69035073D01*
X151865000Y-68130167D01*
X176356838Y-68130167D01*
X176498883Y-68473943D01*
X176761673Y-68737192D01*
X177105201Y-68879838D01*
X177477167Y-68880162D01*
X177736714Y-68772920D01*
X177994201Y-68879838D01*
X178366167Y-68880162D01*
X178709943Y-68738117D01*
X178973192Y-68475327D01*
X179115838Y-68131799D01*
X179116162Y-67759833D01*
X178974117Y-67416057D01*
X178916000Y-67357838D01*
X178916000Y-66852446D01*
X178993447Y-66775000D01*
X180895581Y-66775000D01*
X180952673Y-66832192D01*
X181296201Y-66974838D01*
X181668167Y-66975162D01*
X182011943Y-66833117D01*
X182275192Y-66570327D01*
X182384765Y-66306446D01*
X182646943Y-66198117D01*
X182910192Y-65935327D01*
X183052838Y-65591799D01*
X183053162Y-65219833D01*
X182911117Y-64876057D01*
X182648327Y-64612808D01*
X182537749Y-64566892D01*
X182403117Y-64241057D01*
X182345000Y-64182838D01*
X182345000Y-63325419D01*
X182402192Y-63268327D01*
X182544838Y-62924799D01*
X182545162Y-62552833D01*
X182403117Y-62209057D01*
X182140327Y-61945808D01*
X181796799Y-61803162D01*
X181424833Y-61802838D01*
X181081057Y-61944883D01*
X180817808Y-62207673D01*
X180675162Y-62551201D01*
X180674838Y-62923167D01*
X180816883Y-63266943D01*
X180875000Y-63325162D01*
X180875000Y-64182581D01*
X180817808Y-64239673D01*
X180675162Y-64583201D01*
X180675086Y-64670000D01*
X178435000Y-64670000D01*
X178153728Y-64725949D01*
X177915276Y-64885277D01*
X176772277Y-66028277D01*
X176612949Y-66266728D01*
X176557000Y-66548000D01*
X176557000Y-67357581D01*
X176499808Y-67414673D01*
X176357162Y-67758201D01*
X176356838Y-68130167D01*
X151865000Y-68130167D01*
X151865000Y-67672015D01*
X152091645Y-67445765D01*
X152264803Y-67028756D01*
X152265197Y-66577225D01*
X152092767Y-66159914D01*
X151773765Y-65840355D01*
X151356756Y-65667197D01*
X150905225Y-65666803D01*
X150487914Y-65839233D01*
X150168355Y-66158235D01*
X149995197Y-66575244D01*
X149994803Y-67026775D01*
X150167233Y-67444086D01*
X150395000Y-67672251D01*
X150395000Y-69035073D01*
X149860000Y-68928655D01*
X149286511Y-69042729D01*
X148800330Y-69367585D01*
X148790757Y-69381913D01*
X148786762Y-69360683D01*
X148647690Y-69144559D01*
X148435490Y-68999569D01*
X148183600Y-68948560D01*
X146456400Y-68948560D01*
X146221083Y-68992838D01*
X146004959Y-69131910D01*
X145859969Y-69344110D01*
X145808960Y-69596000D01*
X107169580Y-69596000D01*
X105957747Y-68384167D01*
X135716838Y-68384167D01*
X135858883Y-68727943D01*
X136121673Y-68991192D01*
X136465201Y-69133838D01*
X136837167Y-69134162D01*
X137096714Y-69026920D01*
X137354201Y-69133838D01*
X137726167Y-69134162D01*
X138069943Y-68992117D01*
X138333192Y-68729327D01*
X138475838Y-68385799D01*
X138476162Y-68013833D01*
X138334117Y-67670057D01*
X138276000Y-67611838D01*
X138276000Y-67233446D01*
X138607447Y-66902000D01*
X140255581Y-66902000D01*
X140312673Y-66959192D01*
X140656201Y-67101838D01*
X141028167Y-67102162D01*
X141371943Y-66960117D01*
X141635192Y-66697327D01*
X141730787Y-66467110D01*
X141790167Y-66467162D01*
X142133943Y-66325117D01*
X142397192Y-66062327D01*
X142539838Y-65718799D01*
X142540162Y-65346833D01*
X142398117Y-65003057D01*
X142285896Y-64890640D01*
X142286162Y-64584833D01*
X142144117Y-64241057D01*
X142086000Y-64182838D01*
X142086000Y-63325419D01*
X142143192Y-63268327D01*
X142285838Y-62924799D01*
X142286162Y-62552833D01*
X142176805Y-62288167D01*
X174070838Y-62288167D01*
X174212883Y-62631943D01*
X174271000Y-62690162D01*
X174271000Y-64182581D01*
X174213808Y-64239673D01*
X174071162Y-64583201D01*
X174070838Y-64955167D01*
X174212883Y-65298943D01*
X174475673Y-65562192D01*
X174819201Y-65704838D01*
X175191167Y-65705162D01*
X175534943Y-65563117D01*
X175798192Y-65300327D01*
X175940838Y-64956799D01*
X175941162Y-64584833D01*
X175799117Y-64241057D01*
X175741000Y-64182838D01*
X175741000Y-62690419D01*
X175798192Y-62633327D01*
X175940838Y-62289799D01*
X175941162Y-61917833D01*
X175799117Y-61574057D01*
X175536327Y-61310808D01*
X175192799Y-61168162D01*
X174820833Y-61167838D01*
X174477057Y-61309883D01*
X174213808Y-61572673D01*
X174071162Y-61916201D01*
X174070838Y-62288167D01*
X142176805Y-62288167D01*
X142144117Y-62209057D01*
X141881327Y-61945808D01*
X141537799Y-61803162D01*
X141165833Y-61802838D01*
X140822057Y-61944883D01*
X140558808Y-62207673D01*
X140416162Y-62551201D01*
X140415838Y-62923167D01*
X140557883Y-63266943D01*
X140616000Y-63325162D01*
X140616000Y-64182581D01*
X140558808Y-64239673D01*
X140416162Y-64583201D01*
X140415976Y-64797000D01*
X137795000Y-64797000D01*
X137513728Y-64852949D01*
X137275276Y-65012277D01*
X136132277Y-66155277D01*
X135972949Y-66393728D01*
X135917000Y-66675000D01*
X135917000Y-67611581D01*
X135859808Y-67668673D01*
X135717162Y-68012201D01*
X135716838Y-68384167D01*
X105957747Y-68384167D01*
X101669146Y-64095566D01*
X101669188Y-64047127D01*
X101504354Y-63648200D01*
X101199405Y-63342718D01*
X100800767Y-63177189D01*
X100369127Y-63176812D01*
X99970200Y-63341646D01*
X99664718Y-63646595D01*
X99499189Y-64045233D01*
X99498812Y-64476873D01*
X99663646Y-64875800D01*
X99799000Y-65011391D01*
X99799000Y-65460842D01*
X99242842Y-66017000D01*
X95745453Y-66017000D01*
X95611405Y-65882718D01*
X95212767Y-65717189D01*
X94781127Y-65716812D01*
X94384000Y-65880902D01*
X94384000Y-62669167D01*
X133938838Y-62669167D01*
X134080883Y-63012943D01*
X134139000Y-63071162D01*
X134139000Y-64182581D01*
X134081808Y-64239673D01*
X133939162Y-64583201D01*
X133938838Y-64955167D01*
X134080883Y-65298943D01*
X134343673Y-65562192D01*
X134687201Y-65704838D01*
X135059167Y-65705162D01*
X135402943Y-65563117D01*
X135666192Y-65300327D01*
X135808838Y-64956799D01*
X135809162Y-64584833D01*
X135667117Y-64241057D01*
X135609000Y-64182838D01*
X135609000Y-63071419D01*
X135666192Y-63014327D01*
X135808838Y-62670799D01*
X135809162Y-62298833D01*
X135667117Y-61955057D01*
X135404327Y-61691808D01*
X135060799Y-61549162D01*
X134688833Y-61548838D01*
X134345057Y-61690883D01*
X134081808Y-61953673D01*
X133939162Y-62297201D01*
X133938838Y-62669167D01*
X94384000Y-62669167D01*
X94384000Y-58422815D01*
X106864630Y-58422815D01*
X107188980Y-59207800D01*
X107789041Y-59808909D01*
X108573459Y-60134628D01*
X109422815Y-60135370D01*
X110207800Y-59811020D01*
X110808909Y-59210959D01*
X111100464Y-58508815D01*
X120546630Y-58508815D01*
X120870980Y-59293800D01*
X121471041Y-59894909D01*
X122255459Y-60220628D01*
X123104815Y-60221370D01*
X123889800Y-59897020D01*
X124490909Y-59296959D01*
X124816628Y-58512541D01*
X124816631Y-58508815D01*
X130706630Y-58508815D01*
X131030980Y-59293800D01*
X131631041Y-59894909D01*
X132415459Y-60220628D01*
X133264815Y-60221370D01*
X134049800Y-59897020D01*
X134650909Y-59296959D01*
X134976628Y-58512541D01*
X134976631Y-58508815D01*
X140866630Y-58508815D01*
X141190980Y-59293800D01*
X141791041Y-59894909D01*
X142575459Y-60220628D01*
X143424815Y-60221370D01*
X144209800Y-59897020D01*
X144810909Y-59296959D01*
X145136628Y-58512541D01*
X145136631Y-58508815D01*
X151026630Y-58508815D01*
X151350980Y-59293800D01*
X151951041Y-59894909D01*
X152735459Y-60220628D01*
X153584815Y-60221370D01*
X154369800Y-59897020D01*
X154970909Y-59296959D01*
X155296628Y-58512541D01*
X155296631Y-58508815D01*
X161186630Y-58508815D01*
X161510980Y-59293800D01*
X162111041Y-59894909D01*
X162895459Y-60220628D01*
X163744815Y-60221370D01*
X164529800Y-59897020D01*
X165130909Y-59296959D01*
X165456628Y-58512541D01*
X165456631Y-58508815D01*
X171346630Y-58508815D01*
X171670980Y-59293800D01*
X172271041Y-59894909D01*
X173055459Y-60220628D01*
X173904815Y-60221370D01*
X174689800Y-59897020D01*
X175290909Y-59296959D01*
X175616628Y-58512541D01*
X175616631Y-58508815D01*
X181506630Y-58508815D01*
X181830980Y-59293800D01*
X182431041Y-59894909D01*
X183215459Y-60220628D01*
X184064815Y-60221370D01*
X184849800Y-59897020D01*
X185450909Y-59296959D01*
X185776628Y-58512541D01*
X185776631Y-58508815D01*
X191666630Y-58508815D01*
X191990980Y-59293800D01*
X192591041Y-59894909D01*
X193375459Y-60220628D01*
X194224815Y-60221370D01*
X195009800Y-59897020D01*
X195610909Y-59296959D01*
X195936628Y-58512541D01*
X195937370Y-57663185D01*
X195613020Y-56878200D01*
X195012959Y-56277091D01*
X194228541Y-55951372D01*
X193379185Y-55950630D01*
X192594200Y-56274980D01*
X191993091Y-56875041D01*
X191667372Y-57659459D01*
X191666630Y-58508815D01*
X185776631Y-58508815D01*
X185777370Y-57663185D01*
X185453020Y-56878200D01*
X184852959Y-56277091D01*
X184068541Y-55951372D01*
X183219185Y-55950630D01*
X182434200Y-56274980D01*
X181833091Y-56875041D01*
X181507372Y-57659459D01*
X181506630Y-58508815D01*
X175616631Y-58508815D01*
X175617370Y-57663185D01*
X175293020Y-56878200D01*
X174692959Y-56277091D01*
X173908541Y-55951372D01*
X173059185Y-55950630D01*
X172274200Y-56274980D01*
X171673091Y-56875041D01*
X171347372Y-57659459D01*
X171346630Y-58508815D01*
X165456631Y-58508815D01*
X165457370Y-57663185D01*
X165133020Y-56878200D01*
X164532959Y-56277091D01*
X163748541Y-55951372D01*
X162899185Y-55950630D01*
X162114200Y-56274980D01*
X161513091Y-56875041D01*
X161187372Y-57659459D01*
X161186630Y-58508815D01*
X155296631Y-58508815D01*
X155297370Y-57663185D01*
X154973020Y-56878200D01*
X154372959Y-56277091D01*
X153588541Y-55951372D01*
X152739185Y-55950630D01*
X151954200Y-56274980D01*
X151353091Y-56875041D01*
X151027372Y-57659459D01*
X151026630Y-58508815D01*
X145136631Y-58508815D01*
X145137370Y-57663185D01*
X144813020Y-56878200D01*
X144212959Y-56277091D01*
X143428541Y-55951372D01*
X142579185Y-55950630D01*
X141794200Y-56274980D01*
X141193091Y-56875041D01*
X140867372Y-57659459D01*
X140866630Y-58508815D01*
X134976631Y-58508815D01*
X134977370Y-57663185D01*
X134653020Y-56878200D01*
X134052959Y-56277091D01*
X133268541Y-55951372D01*
X132419185Y-55950630D01*
X131634200Y-56274980D01*
X131033091Y-56875041D01*
X130707372Y-57659459D01*
X130706630Y-58508815D01*
X124816631Y-58508815D01*
X124817370Y-57663185D01*
X124493020Y-56878200D01*
X123892959Y-56277091D01*
X123108541Y-55951372D01*
X122259185Y-55950630D01*
X121474200Y-56274980D01*
X120873091Y-56875041D01*
X120547372Y-57659459D01*
X120546630Y-58508815D01*
X111100464Y-58508815D01*
X111134628Y-58426541D01*
X111135370Y-57577185D01*
X110811020Y-56792200D01*
X110210959Y-56191091D01*
X109426541Y-55865372D01*
X108577185Y-55864630D01*
X107792200Y-56188980D01*
X107191091Y-56789041D01*
X106865372Y-57573459D01*
X106864630Y-58422815D01*
X94384000Y-58422815D01*
X94384000Y-56782495D01*
X94543489Y-56750771D01*
X95029670Y-56425915D01*
X95240000Y-56111134D01*
X95450330Y-56425915D01*
X95936511Y-56750771D01*
X96510000Y-56864845D01*
X97083489Y-56750771D01*
X97569670Y-56425915D01*
X97894526Y-55939734D01*
X98008600Y-55366245D01*
X98008600Y-54996755D01*
X97894526Y-54423266D01*
X97569670Y-53937085D01*
X97083489Y-53612229D01*
X96510000Y-53498155D01*
X95936511Y-53612229D01*
X95450330Y-53937085D01*
X95240000Y-54251866D01*
X95029670Y-53937085D01*
X94543489Y-53612229D01*
X93970000Y-53498155D01*
X93396511Y-53612229D01*
X92910330Y-53937085D01*
X92700000Y-54251866D01*
X92489670Y-53937085D01*
X92003489Y-53612229D01*
X91430000Y-53498155D01*
X90856511Y-53612229D01*
X90370330Y-53937085D01*
X90045474Y-54423266D01*
X89931400Y-54996755D01*
X89931400Y-55366245D01*
X90045474Y-55939734D01*
X90370330Y-56425915D01*
X90856511Y-56750771D01*
X91430000Y-56864845D01*
X92003489Y-56750771D01*
X92489670Y-56425915D01*
X92700000Y-56111134D01*
X92814000Y-56281747D01*
X92814000Y-73418547D01*
X92679718Y-73552595D01*
X92514189Y-73951233D01*
X92513812Y-74382873D01*
X92678646Y-74781800D01*
X92983595Y-75087282D01*
X93382233Y-75252811D01*
X93813873Y-75253188D01*
X94212800Y-75088354D01*
X94518282Y-74783405D01*
X94683811Y-74384767D01*
X94684188Y-73953127D01*
X94519354Y-73554200D01*
X94437623Y-73472325D01*
X98614587Y-73472325D01*
X98976916Y-74349229D01*
X99647242Y-75020726D01*
X100523513Y-75384585D01*
X101472325Y-75385413D01*
X102349229Y-75023084D01*
X103020726Y-74352758D01*
X103384585Y-73476487D01*
X103385413Y-72527675D01*
X103023084Y-71650771D01*
X102352758Y-70979274D01*
X101476487Y-70615415D01*
X100527675Y-70614587D01*
X99650771Y-70976916D01*
X98979274Y-71647242D01*
X98615415Y-72523513D01*
X98614587Y-73472325D01*
X94437623Y-73472325D01*
X94384000Y-73418609D01*
X94384000Y-67722696D01*
X94779233Y-67886811D01*
X95210873Y-67887188D01*
X95609800Y-67722354D01*
X95745391Y-67587000D01*
X99568000Y-67587000D01*
X99868407Y-67527245D01*
X100123079Y-67357079D01*
X101139079Y-66341079D01*
X101248195Y-66177775D01*
X124210000Y-89139579D01*
X124210000Y-90043000D01*
X121920000Y-90043000D01*
X121904681Y-90046102D01*
X108448790Y-76590210D01*
X108417460Y-76569276D01*
X108161675Y-76398367D01*
X108105484Y-76387190D01*
X107823000Y-76330999D01*
X107822995Y-76331000D01*
X99680579Y-76331000D01*
X97859146Y-74509566D01*
X97859188Y-74461127D01*
X97694354Y-74062200D01*
X97389405Y-73756718D01*
X96990767Y-73591189D01*
X96559127Y-73590812D01*
X96160200Y-73755646D01*
X95854718Y-74060595D01*
X95689189Y-74459233D01*
X95688812Y-74890873D01*
X95853646Y-75289800D01*
X96065023Y-75501546D01*
X95918218Y-75648095D01*
X95752689Y-76046733D01*
X95752312Y-76478373D01*
X95917146Y-76877300D01*
X96222095Y-77182782D01*
X96620733Y-77348311D01*
X96670775Y-77348355D01*
X98116708Y-78794287D01*
X98116710Y-78794290D01*
X98403825Y-78986133D01*
X98460016Y-78997310D01*
X98742500Y-79053501D01*
X98742505Y-79053500D01*
X106630920Y-79053500D01*
X121793000Y-94215579D01*
X121793000Y-96333500D01*
X99843776Y-96333500D01*
X99767265Y-96256855D01*
X99350256Y-96083697D01*
X98898725Y-96083303D01*
X98481414Y-96255733D01*
X98161855Y-96574735D01*
X97988697Y-96991744D01*
X97988303Y-97443275D01*
X98160733Y-97860586D01*
X98479735Y-98180145D01*
X98896744Y-98353303D01*
X99131340Y-98353508D01*
X99131303Y-98395775D01*
X99303733Y-98813086D01*
X99622735Y-99132645D01*
X100039744Y-99305803D01*
X100491275Y-99306197D01*
X100908586Y-99133767D01*
X100986489Y-99056000D01*
X121793000Y-99056000D01*
X121793000Y-102743000D01*
X89710000Y-102743000D01*
X89710000Y-81373305D01*
X97114674Y-81373305D01*
X97401043Y-82066372D01*
X97930839Y-82597093D01*
X98623405Y-82884672D01*
X99373305Y-82885326D01*
X100066372Y-82598957D01*
X100597093Y-82069161D01*
X100884672Y-81376595D01*
X100885326Y-80626695D01*
X100598957Y-79933628D01*
X100069161Y-79402907D01*
X99376595Y-79115328D01*
X98626695Y-79114674D01*
X97933628Y-79401043D01*
X97402907Y-79930839D01*
X97115328Y-80623405D01*
X97114674Y-81373305D01*
X89710000Y-81373305D01*
X89710000Y-52472325D01*
X98614587Y-52472325D01*
X98976916Y-53349229D01*
X99647242Y-54020726D01*
X100523513Y-54384585D01*
X101472325Y-54385413D01*
X102349229Y-54023084D01*
X103020726Y-53352758D01*
X103384585Y-52476487D01*
X103384588Y-52472325D01*
X201614587Y-52472325D01*
X201976916Y-53349229D01*
X202647242Y-54020726D01*
X203523513Y-54384585D01*
X204472325Y-54385413D01*
X205349229Y-54023084D01*
X206020726Y-53352758D01*
X206384585Y-52476487D01*
X206385413Y-51527675D01*
X206023084Y-50650771D01*
X205352758Y-49979274D01*
X204476487Y-49615415D01*
X203527675Y-49614587D01*
X202650771Y-49976916D01*
X201979274Y-50647242D01*
X201615415Y-51523513D01*
X201614587Y-52472325D01*
X103384588Y-52472325D01*
X103385413Y-51527675D01*
X103023084Y-50650771D01*
X102352758Y-49979274D01*
X101476487Y-49615415D01*
X100527675Y-49614587D01*
X99650771Y-49976916D01*
X98979274Y-50647242D01*
X98615415Y-51523513D01*
X98614587Y-52472325D01*
X89710000Y-52472325D01*
X89710000Y-49024868D01*
X105454737Y-49024868D01*
X105565641Y-49302099D01*
X106211593Y-49545323D01*
X106901453Y-49522836D01*
X107434359Y-49302099D01*
X107545263Y-49024868D01*
X110454737Y-49024868D01*
X110565641Y-49302099D01*
X111211593Y-49545323D01*
X111901453Y-49522836D01*
X112434359Y-49302099D01*
X112510859Y-49110868D01*
X119136737Y-49110868D01*
X119247641Y-49388099D01*
X119893593Y-49631323D01*
X120583453Y-49608836D01*
X121116359Y-49388099D01*
X121227263Y-49110868D01*
X124136737Y-49110868D01*
X124247641Y-49388099D01*
X124893593Y-49631323D01*
X125583453Y-49608836D01*
X126116359Y-49388099D01*
X126227263Y-49110868D01*
X129296737Y-49110868D01*
X129407641Y-49388099D01*
X130053593Y-49631323D01*
X130743453Y-49608836D01*
X131276359Y-49388099D01*
X131387263Y-49110868D01*
X134296737Y-49110868D01*
X134407641Y-49388099D01*
X135053593Y-49631323D01*
X135743453Y-49608836D01*
X136276359Y-49388099D01*
X136387263Y-49110868D01*
X139456737Y-49110868D01*
X139567641Y-49388099D01*
X140213593Y-49631323D01*
X140903453Y-49608836D01*
X141436359Y-49388099D01*
X141547263Y-49110868D01*
X144456737Y-49110868D01*
X144567641Y-49388099D01*
X145213593Y-49631323D01*
X145903453Y-49608836D01*
X146436359Y-49388099D01*
X146547263Y-49110868D01*
X149616737Y-49110868D01*
X149727641Y-49388099D01*
X150373593Y-49631323D01*
X151063453Y-49608836D01*
X151596359Y-49388099D01*
X151707263Y-49110868D01*
X154616737Y-49110868D01*
X154727641Y-49388099D01*
X155373593Y-49631323D01*
X156063453Y-49608836D01*
X156596359Y-49388099D01*
X156707263Y-49110868D01*
X159776737Y-49110868D01*
X159887641Y-49388099D01*
X160533593Y-49631323D01*
X161223453Y-49608836D01*
X161756359Y-49388099D01*
X161867263Y-49110868D01*
X164776737Y-49110868D01*
X164887641Y-49388099D01*
X165533593Y-49631323D01*
X166223453Y-49608836D01*
X166756359Y-49388099D01*
X166867263Y-49110868D01*
X169936737Y-49110868D01*
X170047641Y-49388099D01*
X170693593Y-49631323D01*
X171383453Y-49608836D01*
X171916359Y-49388099D01*
X172027263Y-49110868D01*
X174936737Y-49110868D01*
X175047641Y-49388099D01*
X175693593Y-49631323D01*
X176383453Y-49608836D01*
X176916359Y-49388099D01*
X177027263Y-49110868D01*
X180096737Y-49110868D01*
X180207641Y-49388099D01*
X180853593Y-49631323D01*
X181543453Y-49608836D01*
X182076359Y-49388099D01*
X182187263Y-49110868D01*
X185096737Y-49110868D01*
X185207641Y-49388099D01*
X185853593Y-49631323D01*
X186543453Y-49608836D01*
X187076359Y-49388099D01*
X187187263Y-49110868D01*
X190256737Y-49110868D01*
X190367641Y-49388099D01*
X191013593Y-49631323D01*
X191703453Y-49608836D01*
X192236359Y-49388099D01*
X192347263Y-49110868D01*
X195256737Y-49110868D01*
X195367641Y-49388099D01*
X196013593Y-49631323D01*
X196703453Y-49608836D01*
X197236359Y-49388099D01*
X197347263Y-49110868D01*
X196302000Y-48065605D01*
X195256737Y-49110868D01*
X192347263Y-49110868D01*
X191302000Y-48065605D01*
X190256737Y-49110868D01*
X187187263Y-49110868D01*
X186142000Y-48065605D01*
X185096737Y-49110868D01*
X182187263Y-49110868D01*
X181142000Y-48065605D01*
X180096737Y-49110868D01*
X177027263Y-49110868D01*
X175982000Y-48065605D01*
X174936737Y-49110868D01*
X172027263Y-49110868D01*
X170982000Y-48065605D01*
X169936737Y-49110868D01*
X166867263Y-49110868D01*
X165822000Y-48065605D01*
X164776737Y-49110868D01*
X161867263Y-49110868D01*
X160822000Y-48065605D01*
X159776737Y-49110868D01*
X156707263Y-49110868D01*
X155662000Y-48065605D01*
X154616737Y-49110868D01*
X151707263Y-49110868D01*
X150662000Y-48065605D01*
X149616737Y-49110868D01*
X146547263Y-49110868D01*
X145502000Y-48065605D01*
X144456737Y-49110868D01*
X141547263Y-49110868D01*
X140502000Y-48065605D01*
X139456737Y-49110868D01*
X136387263Y-49110868D01*
X135342000Y-48065605D01*
X134296737Y-49110868D01*
X131387263Y-49110868D01*
X130342000Y-48065605D01*
X129296737Y-49110868D01*
X126227263Y-49110868D01*
X125182000Y-48065605D01*
X124136737Y-49110868D01*
X121227263Y-49110868D01*
X120182000Y-48065605D01*
X119136737Y-49110868D01*
X112510859Y-49110868D01*
X112545263Y-49024868D01*
X111500000Y-47979605D01*
X110454737Y-49024868D01*
X107545263Y-49024868D01*
X106500000Y-47979605D01*
X105454737Y-49024868D01*
X89710000Y-49024868D01*
X89710000Y-46710000D01*
X105230392Y-46710000D01*
X105275130Y-46754738D01*
X105275130Y-46754738D01*
G37*
X105275130Y-46754738D02*
X104997901Y-46865641D01*
X104754677Y-47511593D01*
X104777164Y-48201453D01*
X104997901Y-48734359D01*
X105275132Y-48845263D01*
X106320395Y-47800000D01*
X106306253Y-47785858D01*
X106485858Y-47606253D01*
X106500000Y-47620395D01*
X106514143Y-47606253D01*
X106693748Y-47785858D01*
X106679605Y-47800000D01*
X107724868Y-48845263D01*
X108002099Y-48734359D01*
X108245323Y-48088407D01*
X108222836Y-47398547D01*
X108002099Y-46865641D01*
X107724870Y-46754738D01*
X107769608Y-46710000D01*
X110230392Y-46710000D01*
X110275130Y-46754738D01*
X109997901Y-46865641D01*
X109754677Y-47511593D01*
X109777164Y-48201453D01*
X109997901Y-48734359D01*
X110275132Y-48845263D01*
X111320395Y-47800000D01*
X111306253Y-47785858D01*
X111485858Y-47606253D01*
X111500000Y-47620395D01*
X111514143Y-47606253D01*
X111693748Y-47785858D01*
X111679605Y-47800000D01*
X112724868Y-48845263D01*
X113002099Y-48734359D01*
X113245323Y-48088407D01*
X113222836Y-47398547D01*
X113002099Y-46865641D01*
X112724870Y-46754738D01*
X112769608Y-46710000D01*
X118859788Y-46710000D01*
X118843090Y-46726698D01*
X118957130Y-46840738D01*
X118679901Y-46951641D01*
X118436677Y-47597593D01*
X118459164Y-48287453D01*
X118679901Y-48820359D01*
X118957132Y-48931263D01*
X120002395Y-47886000D01*
X119988253Y-47871858D01*
X120167858Y-47692253D01*
X120182000Y-47706395D01*
X120196143Y-47692253D01*
X120375748Y-47871858D01*
X120361605Y-47886000D01*
X121406868Y-48931263D01*
X121684099Y-48820359D01*
X121927323Y-48174407D01*
X121904836Y-47484547D01*
X121684099Y-46951641D01*
X121406870Y-46840738D01*
X121520910Y-46726698D01*
X121504212Y-46710000D01*
X123859788Y-46710000D01*
X123843090Y-46726698D01*
X123957130Y-46840738D01*
X123679901Y-46951641D01*
X123436677Y-47597593D01*
X123459164Y-48287453D01*
X123679901Y-48820359D01*
X123957132Y-48931263D01*
X125002395Y-47886000D01*
X124988253Y-47871858D01*
X125167858Y-47692253D01*
X125182000Y-47706395D01*
X125196143Y-47692253D01*
X125375748Y-47871858D01*
X125361605Y-47886000D01*
X126406868Y-48931263D01*
X126684099Y-48820359D01*
X126927323Y-48174407D01*
X126904836Y-47484547D01*
X126684099Y-46951641D01*
X126406870Y-46840738D01*
X126520910Y-46726698D01*
X126504212Y-46710000D01*
X129019788Y-46710000D01*
X129003090Y-46726698D01*
X129117130Y-46840738D01*
X128839901Y-46951641D01*
X128596677Y-47597593D01*
X128619164Y-48287453D01*
X128839901Y-48820359D01*
X129117132Y-48931263D01*
X130162395Y-47886000D01*
X130148253Y-47871858D01*
X130327858Y-47692253D01*
X130342000Y-47706395D01*
X130356143Y-47692253D01*
X130535748Y-47871858D01*
X130521605Y-47886000D01*
X131566868Y-48931263D01*
X131844099Y-48820359D01*
X132087323Y-48174407D01*
X132064836Y-47484547D01*
X131844099Y-46951641D01*
X131566870Y-46840738D01*
X131680910Y-46726698D01*
X131664212Y-46710000D01*
X134019788Y-46710000D01*
X134003090Y-46726698D01*
X134117130Y-46840738D01*
X133839901Y-46951641D01*
X133596677Y-47597593D01*
X133619164Y-48287453D01*
X133839901Y-48820359D01*
X134117132Y-48931263D01*
X135162395Y-47886000D01*
X135148253Y-47871858D01*
X135327858Y-47692253D01*
X135342000Y-47706395D01*
X135356143Y-47692253D01*
X135535748Y-47871858D01*
X135521605Y-47886000D01*
X136566868Y-48931263D01*
X136844099Y-48820359D01*
X137087323Y-48174407D01*
X137064836Y-47484547D01*
X136844099Y-46951641D01*
X136566870Y-46840738D01*
X136680910Y-46726698D01*
X136664212Y-46710000D01*
X139179788Y-46710000D01*
X139163090Y-46726698D01*
X139277130Y-46840738D01*
X138999901Y-46951641D01*
X138756677Y-47597593D01*
X138779164Y-48287453D01*
X138999901Y-48820359D01*
X139277132Y-48931263D01*
X140322395Y-47886000D01*
X140308253Y-47871858D01*
X140487858Y-47692253D01*
X140502000Y-47706395D01*
X140516143Y-47692253D01*
X140695748Y-47871858D01*
X140681605Y-47886000D01*
X141726868Y-48931263D01*
X142004099Y-48820359D01*
X142247323Y-48174407D01*
X142224836Y-47484547D01*
X142004099Y-46951641D01*
X141726870Y-46840738D01*
X141840910Y-46726698D01*
X141824212Y-46710000D01*
X144179788Y-46710000D01*
X144163090Y-46726698D01*
X144277130Y-46840738D01*
X143999901Y-46951641D01*
X143756677Y-47597593D01*
X143779164Y-48287453D01*
X143999901Y-48820359D01*
X144277132Y-48931263D01*
X145322395Y-47886000D01*
X145308253Y-47871858D01*
X145487858Y-47692253D01*
X145502000Y-47706395D01*
X145516143Y-47692253D01*
X145695748Y-47871858D01*
X145681605Y-47886000D01*
X146726868Y-48931263D01*
X147004099Y-48820359D01*
X147247323Y-48174407D01*
X147224836Y-47484547D01*
X147004099Y-46951641D01*
X146726870Y-46840738D01*
X146840910Y-46726698D01*
X146824212Y-46710000D01*
X149339788Y-46710000D01*
X149323090Y-46726698D01*
X149437130Y-46840738D01*
X149159901Y-46951641D01*
X148916677Y-47597593D01*
X148939164Y-48287453D01*
X149159901Y-48820359D01*
X149437132Y-48931263D01*
X150482395Y-47886000D01*
X150468253Y-47871858D01*
X150647858Y-47692253D01*
X150662000Y-47706395D01*
X150676143Y-47692253D01*
X150855748Y-47871858D01*
X150841605Y-47886000D01*
X151886868Y-48931263D01*
X152164099Y-48820359D01*
X152407323Y-48174407D01*
X152384836Y-47484547D01*
X152164099Y-46951641D01*
X151886870Y-46840738D01*
X152000910Y-46726698D01*
X151984212Y-46710000D01*
X154339788Y-46710000D01*
X154323090Y-46726698D01*
X154437130Y-46840738D01*
X154159901Y-46951641D01*
X153916677Y-47597593D01*
X153939164Y-48287453D01*
X154159901Y-48820359D01*
X154437132Y-48931263D01*
X155482395Y-47886000D01*
X155468253Y-47871858D01*
X155647858Y-47692253D01*
X155662000Y-47706395D01*
X155676143Y-47692253D01*
X155855748Y-47871858D01*
X155841605Y-47886000D01*
X156886868Y-48931263D01*
X157164099Y-48820359D01*
X157407323Y-48174407D01*
X157384836Y-47484547D01*
X157164099Y-46951641D01*
X156886870Y-46840738D01*
X157000910Y-46726698D01*
X156984212Y-46710000D01*
X159499788Y-46710000D01*
X159483090Y-46726698D01*
X159597130Y-46840738D01*
X159319901Y-46951641D01*
X159076677Y-47597593D01*
X159099164Y-48287453D01*
X159319901Y-48820359D01*
X159597132Y-48931263D01*
X160642395Y-47886000D01*
X160628253Y-47871858D01*
X160807858Y-47692253D01*
X160822000Y-47706395D01*
X160836143Y-47692253D01*
X161015748Y-47871858D01*
X161001605Y-47886000D01*
X162046868Y-48931263D01*
X162324099Y-48820359D01*
X162567323Y-48174407D01*
X162544836Y-47484547D01*
X162324099Y-46951641D01*
X162046870Y-46840738D01*
X162160910Y-46726698D01*
X162144212Y-46710000D01*
X164499788Y-46710000D01*
X164483090Y-46726698D01*
X164597130Y-46840738D01*
X164319901Y-46951641D01*
X164076677Y-47597593D01*
X164099164Y-48287453D01*
X164319901Y-48820359D01*
X164597132Y-48931263D01*
X165642395Y-47886000D01*
X165628253Y-47871858D01*
X165807858Y-47692253D01*
X165822000Y-47706395D01*
X165836143Y-47692253D01*
X166015748Y-47871858D01*
X166001605Y-47886000D01*
X167046868Y-48931263D01*
X167324099Y-48820359D01*
X167567323Y-48174407D01*
X167544836Y-47484547D01*
X167324099Y-46951641D01*
X167046870Y-46840738D01*
X167160910Y-46726698D01*
X167144212Y-46710000D01*
X169659788Y-46710000D01*
X169643090Y-46726698D01*
X169757130Y-46840738D01*
X169479901Y-46951641D01*
X169236677Y-47597593D01*
X169259164Y-48287453D01*
X169479901Y-48820359D01*
X169757132Y-48931263D01*
X170802395Y-47886000D01*
X170788253Y-47871858D01*
X170967858Y-47692253D01*
X170982000Y-47706395D01*
X170996143Y-47692253D01*
X171175748Y-47871858D01*
X171161605Y-47886000D01*
X172206868Y-48931263D01*
X172484099Y-48820359D01*
X172727323Y-48174407D01*
X172704836Y-47484547D01*
X172484099Y-46951641D01*
X172206870Y-46840738D01*
X172320910Y-46726698D01*
X172304212Y-46710000D01*
X174659788Y-46710000D01*
X174643090Y-46726698D01*
X174757130Y-46840738D01*
X174479901Y-46951641D01*
X174236677Y-47597593D01*
X174259164Y-48287453D01*
X174479901Y-48820359D01*
X174757132Y-48931263D01*
X175802395Y-47886000D01*
X175788253Y-47871858D01*
X175967858Y-47692253D01*
X175982000Y-47706395D01*
X175996143Y-47692253D01*
X176175748Y-47871858D01*
X176161605Y-47886000D01*
X177206868Y-48931263D01*
X177484099Y-48820359D01*
X177727323Y-48174407D01*
X177704836Y-47484547D01*
X177484099Y-46951641D01*
X177206870Y-46840738D01*
X177320910Y-46726698D01*
X177304212Y-46710000D01*
X179819788Y-46710000D01*
X179803090Y-46726698D01*
X179917130Y-46840738D01*
X179639901Y-46951641D01*
X179396677Y-47597593D01*
X179419164Y-48287453D01*
X179639901Y-48820359D01*
X179917132Y-48931263D01*
X180962395Y-47886000D01*
X180948253Y-47871858D01*
X181127858Y-47692253D01*
X181142000Y-47706395D01*
X181156143Y-47692253D01*
X181335748Y-47871858D01*
X181321605Y-47886000D01*
X182366868Y-48931263D01*
X182644099Y-48820359D01*
X182887323Y-48174407D01*
X182864836Y-47484547D01*
X182644099Y-46951641D01*
X182366870Y-46840738D01*
X182480910Y-46726698D01*
X182464212Y-46710000D01*
X184819788Y-46710000D01*
X184803090Y-46726698D01*
X184917130Y-46840738D01*
X184639901Y-46951641D01*
X184396677Y-47597593D01*
X184419164Y-48287453D01*
X184639901Y-48820359D01*
X184917132Y-48931263D01*
X185962395Y-47886000D01*
X185948253Y-47871858D01*
X186127858Y-47692253D01*
X186142000Y-47706395D01*
X186156143Y-47692253D01*
X186335748Y-47871858D01*
X186321605Y-47886000D01*
X187366868Y-48931263D01*
X187644099Y-48820359D01*
X187887323Y-48174407D01*
X187864836Y-47484547D01*
X187644099Y-46951641D01*
X187366870Y-46840738D01*
X187480910Y-46726698D01*
X187464212Y-46710000D01*
X189979788Y-46710000D01*
X189963090Y-46726698D01*
X190077130Y-46840738D01*
X189799901Y-46951641D01*
X189556677Y-47597593D01*
X189579164Y-48287453D01*
X189799901Y-48820359D01*
X190077132Y-48931263D01*
X191122395Y-47886000D01*
X191108253Y-47871858D01*
X191287858Y-47692253D01*
X191302000Y-47706395D01*
X191316143Y-47692253D01*
X191495748Y-47871858D01*
X191481605Y-47886000D01*
X192526868Y-48931263D01*
X192804099Y-48820359D01*
X193047323Y-48174407D01*
X193024836Y-47484547D01*
X192804099Y-46951641D01*
X192526870Y-46840738D01*
X192640910Y-46726698D01*
X192624212Y-46710000D01*
X194979788Y-46710000D01*
X194963090Y-46726698D01*
X195077130Y-46840738D01*
X194799901Y-46951641D01*
X194556677Y-47597593D01*
X194579164Y-48287453D01*
X194799901Y-48820359D01*
X195077132Y-48931263D01*
X196122395Y-47886000D01*
X196108253Y-47871858D01*
X196287858Y-47692253D01*
X196302000Y-47706395D01*
X196316143Y-47692253D01*
X196495748Y-47871858D01*
X196481605Y-47886000D01*
X197526868Y-48931263D01*
X197804099Y-48820359D01*
X198047323Y-48174407D01*
X198024836Y-47484547D01*
X197804099Y-46951641D01*
X197526870Y-46840738D01*
X197640910Y-46726698D01*
X197624212Y-46710000D01*
X208290000Y-46710000D01*
X208290000Y-143290000D01*
X191262000Y-143290000D01*
X191262000Y-132460133D01*
X197157472Y-132460133D01*
X197211303Y-132689179D01*
X197688664Y-132854681D01*
X198193023Y-132824906D01*
X198520697Y-132689179D01*
X198574528Y-132460133D01*
X197866000Y-131751605D01*
X197157472Y-132460133D01*
X191262000Y-132460133D01*
X191262000Y-131394664D01*
X196583319Y-131394664D01*
X196613094Y-131899023D01*
X196748821Y-132226697D01*
X196977867Y-132280528D01*
X197686395Y-131572000D01*
X198045605Y-131572000D01*
X198754133Y-132280528D01*
X198983179Y-132226697D01*
X199135812Y-131786453D01*
X199135780Y-131823510D01*
X199328718Y-132290458D01*
X199685663Y-132648026D01*
X200152273Y-132841779D01*
X200657510Y-132842220D01*
X201124458Y-132649282D01*
X201482026Y-132292337D01*
X201675779Y-131825727D01*
X201676220Y-131320490D01*
X201483282Y-130853542D01*
X201126337Y-130495974D01*
X200659727Y-130302221D01*
X200442929Y-130302032D01*
X200733023Y-130284906D01*
X201060697Y-130149179D01*
X201114528Y-129920133D01*
X200406000Y-129211605D01*
X199697472Y-129920133D01*
X199751303Y-130149179D01*
X200191547Y-130301812D01*
X200154490Y-130301780D01*
X199687542Y-130494718D01*
X199329974Y-130851663D01*
X199136221Y-131318273D01*
X199136032Y-131535071D01*
X199118906Y-131244977D01*
X198983179Y-130917303D01*
X198754133Y-130863472D01*
X198045605Y-131572000D01*
X197686395Y-131572000D01*
X196977867Y-130863472D01*
X196748821Y-130917303D01*
X196583319Y-131394664D01*
X191262000Y-131394664D01*
X191262000Y-103472158D01*
X197081000Y-109291158D01*
X197081000Y-128021144D01*
X196789974Y-128311663D01*
X196596221Y-128778273D01*
X196595780Y-129283510D01*
X196788718Y-129750458D01*
X197145663Y-130108026D01*
X197612273Y-130301779D01*
X197829071Y-130301968D01*
X197538977Y-130319094D01*
X197211303Y-130454821D01*
X197157472Y-130683867D01*
X197866000Y-131392395D01*
X198574528Y-130683867D01*
X198520697Y-130454821D01*
X198080453Y-130302188D01*
X198117510Y-130302220D01*
X198584458Y-130109282D01*
X198942026Y-129752337D01*
X199135779Y-129285727D01*
X199135968Y-129068929D01*
X199153094Y-129359023D01*
X199288821Y-129686697D01*
X199517867Y-129740528D01*
X200226395Y-129032000D01*
X200585605Y-129032000D01*
X201294133Y-129740528D01*
X201523179Y-129686697D01*
X201688681Y-129209336D01*
X201658906Y-128704977D01*
X201523179Y-128377303D01*
X201294133Y-128323472D01*
X200585605Y-129032000D01*
X200226395Y-129032000D01*
X199517867Y-128323472D01*
X199288821Y-128377303D01*
X199136188Y-128817547D01*
X199136220Y-128780490D01*
X198943282Y-128313542D01*
X198773903Y-128143867D01*
X199697472Y-128143867D01*
X200406000Y-128852395D01*
X201114528Y-128143867D01*
X201060697Y-127914821D01*
X200583336Y-127749319D01*
X200078977Y-127779094D01*
X199751303Y-127914821D01*
X199697472Y-128143867D01*
X198773903Y-128143867D01*
X198651000Y-128020750D01*
X198651000Y-108966005D01*
X198651001Y-108966000D01*
X198591245Y-108665594D01*
X198421079Y-108410921D01*
X191563079Y-101552921D01*
X191308407Y-101382755D01*
X191262000Y-101373524D01*
X191262000Y-81373305D01*
X197114674Y-81373305D01*
X197401043Y-82066372D01*
X197930839Y-82597093D01*
X198623405Y-82884672D01*
X199373305Y-82885326D01*
X200066372Y-82598957D01*
X200597093Y-82069161D01*
X200884672Y-81376595D01*
X200885326Y-80626695D01*
X200598957Y-79933628D01*
X200069161Y-79402907D01*
X199376595Y-79115328D01*
X198626695Y-79114674D01*
X197933628Y-79401043D01*
X197402907Y-79930839D01*
X197115328Y-80623405D01*
X197114674Y-81373305D01*
X191262000Y-81373305D01*
X191262000Y-76835000D01*
X191251994Y-76785590D01*
X191223553Y-76743965D01*
X191181159Y-76716685D01*
X191135000Y-76708000D01*
X171854446Y-76708000D01*
X171715723Y-76569277D01*
X171477272Y-76409949D01*
X171196000Y-76354000D01*
X165735000Y-76354000D01*
X165453728Y-76409949D01*
X165215277Y-76569276D01*
X159239904Y-82544650D01*
X158852627Y-82544312D01*
X158453700Y-82709146D01*
X158148218Y-83014095D01*
X157982689Y-83412733D01*
X157982312Y-83844373D01*
X158147131Y-84243263D01*
X155114394Y-87276000D01*
X133019447Y-87276000D01*
X132886577Y-87143130D01*
X132910811Y-87084767D01*
X132911188Y-86653127D01*
X132746354Y-86254200D01*
X132441405Y-85948718D01*
X132042767Y-85783189D01*
X131611127Y-85782812D01*
X131212200Y-85947646D01*
X130906718Y-86252595D01*
X130741189Y-86651233D01*
X130740812Y-87082873D01*
X130905646Y-87481800D01*
X131210595Y-87787282D01*
X131609233Y-87952811D01*
X131617372Y-87952818D01*
X132195277Y-88530724D01*
X132350256Y-88634277D01*
X132433728Y-88690051D01*
X132715000Y-88746000D01*
X153644394Y-88746000D01*
X152347394Y-90043000D01*
X125980000Y-90043000D01*
X125980000Y-88773005D01*
X125980001Y-88773000D01*
X125920714Y-88474949D01*
X125912633Y-88434325D01*
X125720790Y-88147210D01*
X125720787Y-88147208D01*
X107169580Y-69596000D01*
X145808960Y-69596000D01*
X145808960Y-71628000D01*
X145853238Y-71863317D01*
X145992310Y-72079441D01*
X146204510Y-72224431D01*
X146456400Y-72275440D01*
X148183600Y-72275440D01*
X148418917Y-72231162D01*
X148635041Y-72092090D01*
X148780031Y-71879890D01*
X148788400Y-71838561D01*
X148800330Y-71856415D01*
X149286511Y-72181271D01*
X149860000Y-72295345D01*
X150395000Y-72188927D01*
X150395000Y-77107985D01*
X150168355Y-77334235D01*
X149995197Y-77751244D01*
X149994803Y-78202775D01*
X150167233Y-78620086D01*
X150486235Y-78939645D01*
X150903244Y-79112803D01*
X151354775Y-79113197D01*
X151772086Y-78940767D01*
X152091645Y-78621765D01*
X152264803Y-78204756D01*
X152265197Y-77753225D01*
X152092767Y-77335914D01*
X151865000Y-77107749D01*
X151865000Y-73472325D01*
X201614587Y-73472325D01*
X201976916Y-74349229D01*
X202647242Y-75020726D01*
X203523513Y-75384585D01*
X204472325Y-75385413D01*
X205349229Y-75023084D01*
X206020726Y-74352758D01*
X206384585Y-73476487D01*
X206385413Y-72527675D01*
X206023084Y-71650771D01*
X205352758Y-70979274D01*
X204476487Y-70615415D01*
X203527675Y-70614587D01*
X202650771Y-70976916D01*
X201979274Y-71647242D01*
X201615415Y-72523513D01*
X201614587Y-73472325D01*
X151865000Y-73472325D01*
X151865000Y-72188927D01*
X152400000Y-72295345D01*
X152973489Y-72181271D01*
X153459670Y-71856415D01*
X153670000Y-71541634D01*
X153880330Y-71856415D01*
X154366511Y-72181271D01*
X154940000Y-72295345D01*
X155513489Y-72181271D01*
X155999670Y-71856415D01*
X156210000Y-71541634D01*
X156420330Y-71856415D01*
X156906511Y-72181271D01*
X157480000Y-72295345D01*
X158053489Y-72181271D01*
X158539670Y-71856415D01*
X158750000Y-71541634D01*
X158960330Y-71856415D01*
X159446511Y-72181271D01*
X160020000Y-72295345D01*
X160593489Y-72181271D01*
X161079670Y-71856415D01*
X161290000Y-71541634D01*
X161500330Y-71856415D01*
X161986511Y-72181271D01*
X162560000Y-72295345D01*
X163133489Y-72181271D01*
X163619670Y-71856415D01*
X163830000Y-71541634D01*
X164040330Y-71856415D01*
X164526511Y-72181271D01*
X165100000Y-72295345D01*
X165673489Y-72181271D01*
X166159670Y-71856415D01*
X166370000Y-71541634D01*
X166580330Y-71856415D01*
X167066511Y-72181271D01*
X167640000Y-72295345D01*
X168213489Y-72181271D01*
X168699670Y-71856415D01*
X168906461Y-71546931D01*
X169277964Y-71962732D01*
X169805209Y-72216709D01*
X169820974Y-72219358D01*
X170053000Y-72098217D01*
X170053000Y-70739000D01*
X170307000Y-70739000D01*
X170307000Y-72098217D01*
X170539026Y-72219358D01*
X170554791Y-72216709D01*
X171082036Y-71962732D01*
X171471954Y-71526320D01*
X171665184Y-70973913D01*
X171520924Y-70739000D01*
X170307000Y-70739000D01*
X170053000Y-70739000D01*
X170033000Y-70739000D01*
X170033000Y-70485000D01*
X170053000Y-70485000D01*
X170053000Y-69125783D01*
X170307000Y-69125783D01*
X170307000Y-70485000D01*
X171520924Y-70485000D01*
X171665184Y-70250087D01*
X171471954Y-69697680D01*
X171082036Y-69261268D01*
X170554791Y-69007291D01*
X170539026Y-69004642D01*
X170307000Y-69125783D01*
X170053000Y-69125783D01*
X169820974Y-69004642D01*
X169805209Y-69007291D01*
X169277964Y-69261268D01*
X168906461Y-69677069D01*
X168699670Y-69367585D01*
X168213489Y-69042729D01*
X167640000Y-68928655D01*
X167066511Y-69042729D01*
X166580330Y-69367585D01*
X166370000Y-69682366D01*
X166159670Y-69367585D01*
X165673489Y-69042729D01*
X165100000Y-68928655D01*
X164526511Y-69042729D01*
X164040330Y-69367585D01*
X163830000Y-69682366D01*
X163619670Y-69367585D01*
X163133489Y-69042729D01*
X162560000Y-68928655D01*
X161986511Y-69042729D01*
X161500330Y-69367585D01*
X161290000Y-69682366D01*
X161079670Y-69367585D01*
X160593489Y-69042729D01*
X160020000Y-68928655D01*
X159446511Y-69042729D01*
X158960330Y-69367585D01*
X158750000Y-69682366D01*
X158539670Y-69367585D01*
X158053489Y-69042729D01*
X157480000Y-68928655D01*
X156906511Y-69042729D01*
X156420330Y-69367585D01*
X156210000Y-69682366D01*
X155999670Y-69367585D01*
X155513489Y-69042729D01*
X154940000Y-68928655D01*
X154366511Y-69042729D01*
X153880330Y-69367585D01*
X153670000Y-69682366D01*
X153459670Y-69367585D01*
X152973489Y-69042729D01*
X152400000Y-68928655D01*
X151865000Y-69035073D01*
X151865000Y-68130167D01*
X176356838Y-68130167D01*
X176498883Y-68473943D01*
X176761673Y-68737192D01*
X177105201Y-68879838D01*
X177477167Y-68880162D01*
X177736714Y-68772920D01*
X177994201Y-68879838D01*
X178366167Y-68880162D01*
X178709943Y-68738117D01*
X178973192Y-68475327D01*
X179115838Y-68131799D01*
X179116162Y-67759833D01*
X178974117Y-67416057D01*
X178916000Y-67357838D01*
X178916000Y-66852446D01*
X178993447Y-66775000D01*
X180895581Y-66775000D01*
X180952673Y-66832192D01*
X181296201Y-66974838D01*
X181668167Y-66975162D01*
X182011943Y-66833117D01*
X182275192Y-66570327D01*
X182384765Y-66306446D01*
X182646943Y-66198117D01*
X182910192Y-65935327D01*
X183052838Y-65591799D01*
X183053162Y-65219833D01*
X182911117Y-64876057D01*
X182648327Y-64612808D01*
X182537749Y-64566892D01*
X182403117Y-64241057D01*
X182345000Y-64182838D01*
X182345000Y-63325419D01*
X182402192Y-63268327D01*
X182544838Y-62924799D01*
X182545162Y-62552833D01*
X182403117Y-62209057D01*
X182140327Y-61945808D01*
X181796799Y-61803162D01*
X181424833Y-61802838D01*
X181081057Y-61944883D01*
X180817808Y-62207673D01*
X180675162Y-62551201D01*
X180674838Y-62923167D01*
X180816883Y-63266943D01*
X180875000Y-63325162D01*
X180875000Y-64182581D01*
X180817808Y-64239673D01*
X180675162Y-64583201D01*
X180675086Y-64670000D01*
X178435000Y-64670000D01*
X178153728Y-64725949D01*
X177915276Y-64885277D01*
X176772277Y-66028277D01*
X176612949Y-66266728D01*
X176557000Y-66548000D01*
X176557000Y-67357581D01*
X176499808Y-67414673D01*
X176357162Y-67758201D01*
X176356838Y-68130167D01*
X151865000Y-68130167D01*
X151865000Y-67672015D01*
X152091645Y-67445765D01*
X152264803Y-67028756D01*
X152265197Y-66577225D01*
X152092767Y-66159914D01*
X151773765Y-65840355D01*
X151356756Y-65667197D01*
X150905225Y-65666803D01*
X150487914Y-65839233D01*
X150168355Y-66158235D01*
X149995197Y-66575244D01*
X149994803Y-67026775D01*
X150167233Y-67444086D01*
X150395000Y-67672251D01*
X150395000Y-69035073D01*
X149860000Y-68928655D01*
X149286511Y-69042729D01*
X148800330Y-69367585D01*
X148790757Y-69381913D01*
X148786762Y-69360683D01*
X148647690Y-69144559D01*
X148435490Y-68999569D01*
X148183600Y-68948560D01*
X146456400Y-68948560D01*
X146221083Y-68992838D01*
X146004959Y-69131910D01*
X145859969Y-69344110D01*
X145808960Y-69596000D01*
X107169580Y-69596000D01*
X105957747Y-68384167D01*
X135716838Y-68384167D01*
X135858883Y-68727943D01*
X136121673Y-68991192D01*
X136465201Y-69133838D01*
X136837167Y-69134162D01*
X137096714Y-69026920D01*
X137354201Y-69133838D01*
X137726167Y-69134162D01*
X138069943Y-68992117D01*
X138333192Y-68729327D01*
X138475838Y-68385799D01*
X138476162Y-68013833D01*
X138334117Y-67670057D01*
X138276000Y-67611838D01*
X138276000Y-67233446D01*
X138607447Y-66902000D01*
X140255581Y-66902000D01*
X140312673Y-66959192D01*
X140656201Y-67101838D01*
X141028167Y-67102162D01*
X141371943Y-66960117D01*
X141635192Y-66697327D01*
X141730787Y-66467110D01*
X141790167Y-66467162D01*
X142133943Y-66325117D01*
X142397192Y-66062327D01*
X142539838Y-65718799D01*
X142540162Y-65346833D01*
X142398117Y-65003057D01*
X142285896Y-64890640D01*
X142286162Y-64584833D01*
X142144117Y-64241057D01*
X142086000Y-64182838D01*
X142086000Y-63325419D01*
X142143192Y-63268327D01*
X142285838Y-62924799D01*
X142286162Y-62552833D01*
X142176805Y-62288167D01*
X174070838Y-62288167D01*
X174212883Y-62631943D01*
X174271000Y-62690162D01*
X174271000Y-64182581D01*
X174213808Y-64239673D01*
X174071162Y-64583201D01*
X174070838Y-64955167D01*
X174212883Y-65298943D01*
X174475673Y-65562192D01*
X174819201Y-65704838D01*
X175191167Y-65705162D01*
X175534943Y-65563117D01*
X175798192Y-65300327D01*
X175940838Y-64956799D01*
X175941162Y-64584833D01*
X175799117Y-64241057D01*
X175741000Y-64182838D01*
X175741000Y-62690419D01*
X175798192Y-62633327D01*
X175940838Y-62289799D01*
X175941162Y-61917833D01*
X175799117Y-61574057D01*
X175536327Y-61310808D01*
X175192799Y-61168162D01*
X174820833Y-61167838D01*
X174477057Y-61309883D01*
X174213808Y-61572673D01*
X174071162Y-61916201D01*
X174070838Y-62288167D01*
X142176805Y-62288167D01*
X142144117Y-62209057D01*
X141881327Y-61945808D01*
X141537799Y-61803162D01*
X141165833Y-61802838D01*
X140822057Y-61944883D01*
X140558808Y-62207673D01*
X140416162Y-62551201D01*
X140415838Y-62923167D01*
X140557883Y-63266943D01*
X140616000Y-63325162D01*
X140616000Y-64182581D01*
X140558808Y-64239673D01*
X140416162Y-64583201D01*
X140415976Y-64797000D01*
X137795000Y-64797000D01*
X137513728Y-64852949D01*
X137275276Y-65012277D01*
X136132277Y-66155277D01*
X135972949Y-66393728D01*
X135917000Y-66675000D01*
X135917000Y-67611581D01*
X135859808Y-67668673D01*
X135717162Y-68012201D01*
X135716838Y-68384167D01*
X105957747Y-68384167D01*
X101669146Y-64095566D01*
X101669188Y-64047127D01*
X101504354Y-63648200D01*
X101199405Y-63342718D01*
X100800767Y-63177189D01*
X100369127Y-63176812D01*
X99970200Y-63341646D01*
X99664718Y-63646595D01*
X99499189Y-64045233D01*
X99498812Y-64476873D01*
X99663646Y-64875800D01*
X99799000Y-65011391D01*
X99799000Y-65460842D01*
X99242842Y-66017000D01*
X95745453Y-66017000D01*
X95611405Y-65882718D01*
X95212767Y-65717189D01*
X94781127Y-65716812D01*
X94384000Y-65880902D01*
X94384000Y-62669167D01*
X133938838Y-62669167D01*
X134080883Y-63012943D01*
X134139000Y-63071162D01*
X134139000Y-64182581D01*
X134081808Y-64239673D01*
X133939162Y-64583201D01*
X133938838Y-64955167D01*
X134080883Y-65298943D01*
X134343673Y-65562192D01*
X134687201Y-65704838D01*
X135059167Y-65705162D01*
X135402943Y-65563117D01*
X135666192Y-65300327D01*
X135808838Y-64956799D01*
X135809162Y-64584833D01*
X135667117Y-64241057D01*
X135609000Y-64182838D01*
X135609000Y-63071419D01*
X135666192Y-63014327D01*
X135808838Y-62670799D01*
X135809162Y-62298833D01*
X135667117Y-61955057D01*
X135404327Y-61691808D01*
X135060799Y-61549162D01*
X134688833Y-61548838D01*
X134345057Y-61690883D01*
X134081808Y-61953673D01*
X133939162Y-62297201D01*
X133938838Y-62669167D01*
X94384000Y-62669167D01*
X94384000Y-58422815D01*
X106864630Y-58422815D01*
X107188980Y-59207800D01*
X107789041Y-59808909D01*
X108573459Y-60134628D01*
X109422815Y-60135370D01*
X110207800Y-59811020D01*
X110808909Y-59210959D01*
X111100464Y-58508815D01*
X120546630Y-58508815D01*
X120870980Y-59293800D01*
X121471041Y-59894909D01*
X122255459Y-60220628D01*
X123104815Y-60221370D01*
X123889800Y-59897020D01*
X124490909Y-59296959D01*
X124816628Y-58512541D01*
X124816631Y-58508815D01*
X130706630Y-58508815D01*
X131030980Y-59293800D01*
X131631041Y-59894909D01*
X132415459Y-60220628D01*
X133264815Y-60221370D01*
X134049800Y-59897020D01*
X134650909Y-59296959D01*
X134976628Y-58512541D01*
X134976631Y-58508815D01*
X140866630Y-58508815D01*
X141190980Y-59293800D01*
X141791041Y-59894909D01*
X142575459Y-60220628D01*
X143424815Y-60221370D01*
X144209800Y-59897020D01*
X144810909Y-59296959D01*
X145136628Y-58512541D01*
X145136631Y-58508815D01*
X151026630Y-58508815D01*
X151350980Y-59293800D01*
X151951041Y-59894909D01*
X152735459Y-60220628D01*
X153584815Y-60221370D01*
X154369800Y-59897020D01*
X154970909Y-59296959D01*
X155296628Y-58512541D01*
X155296631Y-58508815D01*
X161186630Y-58508815D01*
X161510980Y-59293800D01*
X162111041Y-59894909D01*
X162895459Y-60220628D01*
X163744815Y-60221370D01*
X164529800Y-59897020D01*
X165130909Y-59296959D01*
X165456628Y-58512541D01*
X165456631Y-58508815D01*
X171346630Y-58508815D01*
X171670980Y-59293800D01*
X172271041Y-59894909D01*
X173055459Y-60220628D01*
X173904815Y-60221370D01*
X174689800Y-59897020D01*
X175290909Y-59296959D01*
X175616628Y-58512541D01*
X175616631Y-58508815D01*
X181506630Y-58508815D01*
X181830980Y-59293800D01*
X182431041Y-59894909D01*
X183215459Y-60220628D01*
X184064815Y-60221370D01*
X184849800Y-59897020D01*
X185450909Y-59296959D01*
X185776628Y-58512541D01*
X185776631Y-58508815D01*
X191666630Y-58508815D01*
X191990980Y-59293800D01*
X192591041Y-59894909D01*
X193375459Y-60220628D01*
X194224815Y-60221370D01*
X195009800Y-59897020D01*
X195610909Y-59296959D01*
X195936628Y-58512541D01*
X195937370Y-57663185D01*
X195613020Y-56878200D01*
X195012959Y-56277091D01*
X194228541Y-55951372D01*
X193379185Y-55950630D01*
X192594200Y-56274980D01*
X191993091Y-56875041D01*
X191667372Y-57659459D01*
X191666630Y-58508815D01*
X185776631Y-58508815D01*
X185777370Y-57663185D01*
X185453020Y-56878200D01*
X184852959Y-56277091D01*
X184068541Y-55951372D01*
X183219185Y-55950630D01*
X182434200Y-56274980D01*
X181833091Y-56875041D01*
X181507372Y-57659459D01*
X181506630Y-58508815D01*
X175616631Y-58508815D01*
X175617370Y-57663185D01*
X175293020Y-56878200D01*
X174692959Y-56277091D01*
X173908541Y-55951372D01*
X173059185Y-55950630D01*
X172274200Y-56274980D01*
X171673091Y-56875041D01*
X171347372Y-57659459D01*
X171346630Y-58508815D01*
X165456631Y-58508815D01*
X165457370Y-57663185D01*
X165133020Y-56878200D01*
X164532959Y-56277091D01*
X163748541Y-55951372D01*
X162899185Y-55950630D01*
X162114200Y-56274980D01*
X161513091Y-56875041D01*
X161187372Y-57659459D01*
X161186630Y-58508815D01*
X155296631Y-58508815D01*
X155297370Y-57663185D01*
X154973020Y-56878200D01*
X154372959Y-56277091D01*
X153588541Y-55951372D01*
X152739185Y-55950630D01*
X151954200Y-56274980D01*
X151353091Y-56875041D01*
X151027372Y-57659459D01*
X151026630Y-58508815D01*
X145136631Y-58508815D01*
X145137370Y-57663185D01*
X144813020Y-56878200D01*
X144212959Y-56277091D01*
X143428541Y-55951372D01*
X142579185Y-55950630D01*
X141794200Y-56274980D01*
X141193091Y-56875041D01*
X140867372Y-57659459D01*
X140866630Y-58508815D01*
X134976631Y-58508815D01*
X134977370Y-57663185D01*
X134653020Y-56878200D01*
X134052959Y-56277091D01*
X133268541Y-55951372D01*
X132419185Y-55950630D01*
X131634200Y-56274980D01*
X131033091Y-56875041D01*
X130707372Y-57659459D01*
X130706630Y-58508815D01*
X124816631Y-58508815D01*
X124817370Y-57663185D01*
X124493020Y-56878200D01*
X123892959Y-56277091D01*
X123108541Y-55951372D01*
X122259185Y-55950630D01*
X121474200Y-56274980D01*
X120873091Y-56875041D01*
X120547372Y-57659459D01*
X120546630Y-58508815D01*
X111100464Y-58508815D01*
X111134628Y-58426541D01*
X111135370Y-57577185D01*
X110811020Y-56792200D01*
X110210959Y-56191091D01*
X109426541Y-55865372D01*
X108577185Y-55864630D01*
X107792200Y-56188980D01*
X107191091Y-56789041D01*
X106865372Y-57573459D01*
X106864630Y-58422815D01*
X94384000Y-58422815D01*
X94384000Y-56782495D01*
X94543489Y-56750771D01*
X95029670Y-56425915D01*
X95240000Y-56111134D01*
X95450330Y-56425915D01*
X95936511Y-56750771D01*
X96510000Y-56864845D01*
X97083489Y-56750771D01*
X97569670Y-56425915D01*
X97894526Y-55939734D01*
X98008600Y-55366245D01*
X98008600Y-54996755D01*
X97894526Y-54423266D01*
X97569670Y-53937085D01*
X97083489Y-53612229D01*
X96510000Y-53498155D01*
X95936511Y-53612229D01*
X95450330Y-53937085D01*
X95240000Y-54251866D01*
X95029670Y-53937085D01*
X94543489Y-53612229D01*
X93970000Y-53498155D01*
X93396511Y-53612229D01*
X92910330Y-53937085D01*
X92700000Y-54251866D01*
X92489670Y-53937085D01*
X92003489Y-53612229D01*
X91430000Y-53498155D01*
X90856511Y-53612229D01*
X90370330Y-53937085D01*
X90045474Y-54423266D01*
X89931400Y-54996755D01*
X89931400Y-55366245D01*
X90045474Y-55939734D01*
X90370330Y-56425915D01*
X90856511Y-56750771D01*
X91430000Y-56864845D01*
X92003489Y-56750771D01*
X92489670Y-56425915D01*
X92700000Y-56111134D01*
X92814000Y-56281747D01*
X92814000Y-73418547D01*
X92679718Y-73552595D01*
X92514189Y-73951233D01*
X92513812Y-74382873D01*
X92678646Y-74781800D01*
X92983595Y-75087282D01*
X93382233Y-75252811D01*
X93813873Y-75253188D01*
X94212800Y-75088354D01*
X94518282Y-74783405D01*
X94683811Y-74384767D01*
X94684188Y-73953127D01*
X94519354Y-73554200D01*
X94437623Y-73472325D01*
X98614587Y-73472325D01*
X98976916Y-74349229D01*
X99647242Y-75020726D01*
X100523513Y-75384585D01*
X101472325Y-75385413D01*
X102349229Y-75023084D01*
X103020726Y-74352758D01*
X103384585Y-73476487D01*
X103385413Y-72527675D01*
X103023084Y-71650771D01*
X102352758Y-70979274D01*
X101476487Y-70615415D01*
X100527675Y-70614587D01*
X99650771Y-70976916D01*
X98979274Y-71647242D01*
X98615415Y-72523513D01*
X98614587Y-73472325D01*
X94437623Y-73472325D01*
X94384000Y-73418609D01*
X94384000Y-67722696D01*
X94779233Y-67886811D01*
X95210873Y-67887188D01*
X95609800Y-67722354D01*
X95745391Y-67587000D01*
X99568000Y-67587000D01*
X99868407Y-67527245D01*
X100123079Y-67357079D01*
X101139079Y-66341079D01*
X101248195Y-66177775D01*
X124210000Y-89139579D01*
X124210000Y-90043000D01*
X121920000Y-90043000D01*
X121904681Y-90046102D01*
X108448790Y-76590210D01*
X108417460Y-76569276D01*
X108161675Y-76398367D01*
X108105484Y-76387190D01*
X107823000Y-76330999D01*
X107822995Y-76331000D01*
X99680579Y-76331000D01*
X97859146Y-74509566D01*
X97859188Y-74461127D01*
X97694354Y-74062200D01*
X97389405Y-73756718D01*
X96990767Y-73591189D01*
X96559127Y-73590812D01*
X96160200Y-73755646D01*
X95854718Y-74060595D01*
X95689189Y-74459233D01*
X95688812Y-74890873D01*
X95853646Y-75289800D01*
X96065023Y-75501546D01*
X95918218Y-75648095D01*
X95752689Y-76046733D01*
X95752312Y-76478373D01*
X95917146Y-76877300D01*
X96222095Y-77182782D01*
X96620733Y-77348311D01*
X96670775Y-77348355D01*
X98116708Y-78794287D01*
X98116710Y-78794290D01*
X98403825Y-78986133D01*
X98460016Y-78997310D01*
X98742500Y-79053501D01*
X98742505Y-79053500D01*
X106630920Y-79053500D01*
X121793000Y-94215579D01*
X121793000Y-96333500D01*
X99843776Y-96333500D01*
X99767265Y-96256855D01*
X99350256Y-96083697D01*
X98898725Y-96083303D01*
X98481414Y-96255733D01*
X98161855Y-96574735D01*
X97988697Y-96991744D01*
X97988303Y-97443275D01*
X98160733Y-97860586D01*
X98479735Y-98180145D01*
X98896744Y-98353303D01*
X99131340Y-98353508D01*
X99131303Y-98395775D01*
X99303733Y-98813086D01*
X99622735Y-99132645D01*
X100039744Y-99305803D01*
X100491275Y-99306197D01*
X100908586Y-99133767D01*
X100986489Y-99056000D01*
X121793000Y-99056000D01*
X121793000Y-102743000D01*
X89710000Y-102743000D01*
X89710000Y-81373305D01*
X97114674Y-81373305D01*
X97401043Y-82066372D01*
X97930839Y-82597093D01*
X98623405Y-82884672D01*
X99373305Y-82885326D01*
X100066372Y-82598957D01*
X100597093Y-82069161D01*
X100884672Y-81376595D01*
X100885326Y-80626695D01*
X100598957Y-79933628D01*
X100069161Y-79402907D01*
X99376595Y-79115328D01*
X98626695Y-79114674D01*
X97933628Y-79401043D01*
X97402907Y-79930839D01*
X97115328Y-80623405D01*
X97114674Y-81373305D01*
X89710000Y-81373305D01*
X89710000Y-52472325D01*
X98614587Y-52472325D01*
X98976916Y-53349229D01*
X99647242Y-54020726D01*
X100523513Y-54384585D01*
X101472325Y-54385413D01*
X102349229Y-54023084D01*
X103020726Y-53352758D01*
X103384585Y-52476487D01*
X103384588Y-52472325D01*
X201614587Y-52472325D01*
X201976916Y-53349229D01*
X202647242Y-54020726D01*
X203523513Y-54384585D01*
X204472325Y-54385413D01*
X205349229Y-54023084D01*
X206020726Y-53352758D01*
X206384585Y-52476487D01*
X206385413Y-51527675D01*
X206023084Y-50650771D01*
X205352758Y-49979274D01*
X204476487Y-49615415D01*
X203527675Y-49614587D01*
X202650771Y-49976916D01*
X201979274Y-50647242D01*
X201615415Y-51523513D01*
X201614587Y-52472325D01*
X103384588Y-52472325D01*
X103385413Y-51527675D01*
X103023084Y-50650771D01*
X102352758Y-49979274D01*
X101476487Y-49615415D01*
X100527675Y-49614587D01*
X99650771Y-49976916D01*
X98979274Y-50647242D01*
X98615415Y-51523513D01*
X98614587Y-52472325D01*
X89710000Y-52472325D01*
X89710000Y-49024868D01*
X105454737Y-49024868D01*
X105565641Y-49302099D01*
X106211593Y-49545323D01*
X106901453Y-49522836D01*
X107434359Y-49302099D01*
X107545263Y-49024868D01*
X110454737Y-49024868D01*
X110565641Y-49302099D01*
X111211593Y-49545323D01*
X111901453Y-49522836D01*
X112434359Y-49302099D01*
X112510859Y-49110868D01*
X119136737Y-49110868D01*
X119247641Y-49388099D01*
X119893593Y-49631323D01*
X120583453Y-49608836D01*
X121116359Y-49388099D01*
X121227263Y-49110868D01*
X124136737Y-49110868D01*
X124247641Y-49388099D01*
X124893593Y-49631323D01*
X125583453Y-49608836D01*
X126116359Y-49388099D01*
X126227263Y-49110868D01*
X129296737Y-49110868D01*
X129407641Y-49388099D01*
X130053593Y-49631323D01*
X130743453Y-49608836D01*
X131276359Y-49388099D01*
X131387263Y-49110868D01*
X134296737Y-49110868D01*
X134407641Y-49388099D01*
X135053593Y-49631323D01*
X135743453Y-49608836D01*
X136276359Y-49388099D01*
X136387263Y-49110868D01*
X139456737Y-49110868D01*
X139567641Y-49388099D01*
X140213593Y-49631323D01*
X140903453Y-49608836D01*
X141436359Y-49388099D01*
X141547263Y-49110868D01*
X144456737Y-49110868D01*
X144567641Y-49388099D01*
X145213593Y-49631323D01*
X145903453Y-49608836D01*
X146436359Y-49388099D01*
X146547263Y-49110868D01*
X149616737Y-49110868D01*
X149727641Y-49388099D01*
X150373593Y-49631323D01*
X151063453Y-49608836D01*
X151596359Y-49388099D01*
X151707263Y-49110868D01*
X154616737Y-49110868D01*
X154727641Y-49388099D01*
X155373593Y-49631323D01*
X156063453Y-49608836D01*
X156596359Y-49388099D01*
X156707263Y-49110868D01*
X159776737Y-49110868D01*
X159887641Y-49388099D01*
X160533593Y-49631323D01*
X161223453Y-49608836D01*
X161756359Y-49388099D01*
X161867263Y-49110868D01*
X164776737Y-49110868D01*
X164887641Y-49388099D01*
X165533593Y-49631323D01*
X166223453Y-49608836D01*
X166756359Y-49388099D01*
X166867263Y-49110868D01*
X169936737Y-49110868D01*
X170047641Y-49388099D01*
X170693593Y-49631323D01*
X171383453Y-49608836D01*
X171916359Y-49388099D01*
X172027263Y-49110868D01*
X174936737Y-49110868D01*
X175047641Y-49388099D01*
X175693593Y-49631323D01*
X176383453Y-49608836D01*
X176916359Y-49388099D01*
X177027263Y-49110868D01*
X180096737Y-49110868D01*
X180207641Y-49388099D01*
X180853593Y-49631323D01*
X181543453Y-49608836D01*
X182076359Y-49388099D01*
X182187263Y-49110868D01*
X185096737Y-49110868D01*
X185207641Y-49388099D01*
X185853593Y-49631323D01*
X186543453Y-49608836D01*
X187076359Y-49388099D01*
X187187263Y-49110868D01*
X190256737Y-49110868D01*
X190367641Y-49388099D01*
X191013593Y-49631323D01*
X191703453Y-49608836D01*
X192236359Y-49388099D01*
X192347263Y-49110868D01*
X195256737Y-49110868D01*
X195367641Y-49388099D01*
X196013593Y-49631323D01*
X196703453Y-49608836D01*
X197236359Y-49388099D01*
X197347263Y-49110868D01*
X196302000Y-48065605D01*
X195256737Y-49110868D01*
X192347263Y-49110868D01*
X191302000Y-48065605D01*
X190256737Y-49110868D01*
X187187263Y-49110868D01*
X186142000Y-48065605D01*
X185096737Y-49110868D01*
X182187263Y-49110868D01*
X181142000Y-48065605D01*
X180096737Y-49110868D01*
X177027263Y-49110868D01*
X175982000Y-48065605D01*
X174936737Y-49110868D01*
X172027263Y-49110868D01*
X170982000Y-48065605D01*
X169936737Y-49110868D01*
X166867263Y-49110868D01*
X165822000Y-48065605D01*
X164776737Y-49110868D01*
X161867263Y-49110868D01*
X160822000Y-48065605D01*
X159776737Y-49110868D01*
X156707263Y-49110868D01*
X155662000Y-48065605D01*
X154616737Y-49110868D01*
X151707263Y-49110868D01*
X150662000Y-48065605D01*
X149616737Y-49110868D01*
X146547263Y-49110868D01*
X145502000Y-48065605D01*
X144456737Y-49110868D01*
X141547263Y-49110868D01*
X140502000Y-48065605D01*
X139456737Y-49110868D01*
X136387263Y-49110868D01*
X135342000Y-48065605D01*
X134296737Y-49110868D01*
X131387263Y-49110868D01*
X130342000Y-48065605D01*
X129296737Y-49110868D01*
X126227263Y-49110868D01*
X125182000Y-48065605D01*
X124136737Y-49110868D01*
X121227263Y-49110868D01*
X120182000Y-48065605D01*
X119136737Y-49110868D01*
X112510859Y-49110868D01*
X112545263Y-49024868D01*
X111500000Y-47979605D01*
X110454737Y-49024868D01*
X107545263Y-49024868D01*
X106500000Y-47979605D01*
X105454737Y-49024868D01*
X89710000Y-49024868D01*
X89710000Y-46710000D01*
X105230392Y-46710000D01*
X105275130Y-46754738D01*
G36*
X175514000Y-102893000D02*
X190373000Y-102893000D01*
X190373000Y-143290000D01*
X140462000Y-143290000D01*
X140462000Y-140762060D01*
X181307545Y-140762060D01*
X181390884Y-141015953D01*
X181955306Y-141221590D01*
X182555458Y-141195579D01*
X182989116Y-141015953D01*
X183072455Y-140762060D01*
X182190000Y-139879605D01*
X181307545Y-140762060D01*
X140462000Y-140762060D01*
X140462000Y-134397750D01*
X140589000Y-134397750D01*
X140589000Y-135101910D01*
X140685673Y-135335299D01*
X140864302Y-135513927D01*
X141097691Y-135610600D01*
X141954250Y-135610600D01*
X142113000Y-135451850D01*
X142113000Y-134239000D01*
X142367000Y-134239000D01*
X142367000Y-135451850D01*
X142525750Y-135610600D01*
X143382309Y-135610600D01*
X143615698Y-135513927D01*
X143794327Y-135335299D01*
X143891000Y-135101910D01*
X143891000Y-134397750D01*
X143732250Y-134239000D01*
X142367000Y-134239000D01*
X142113000Y-134239000D01*
X140747750Y-134239000D01*
X140589000Y-134397750D01*
X140462000Y-134397750D01*
X140462000Y-121227000D01*
X140593431Y-121227115D01*
X140556655Y-121412000D01*
X140670729Y-121985489D01*
X140995585Y-122471670D01*
X141310366Y-122682000D01*
X140995585Y-122892330D01*
X140670729Y-123378511D01*
X140556655Y-123952000D01*
X140670729Y-124525489D01*
X140995585Y-125011670D01*
X141310366Y-125222000D01*
X140995585Y-125432330D01*
X140670729Y-125918511D01*
X140556655Y-126492000D01*
X140670729Y-127065489D01*
X140995585Y-127551670D01*
X141310366Y-127762000D01*
X140995585Y-127972330D01*
X140670729Y-128458511D01*
X140556655Y-129032000D01*
X140670729Y-129605489D01*
X140995585Y-130091670D01*
X141310366Y-130302000D01*
X140995585Y-130512330D01*
X140670729Y-130998511D01*
X140556655Y-131572000D01*
X140670729Y-132145489D01*
X140995585Y-132631670D01*
X141017780Y-132646500D01*
X140864302Y-132710073D01*
X140685673Y-132888701D01*
X140589000Y-133122090D01*
X140589000Y-133826250D01*
X140747750Y-133985000D01*
X142113000Y-133985000D01*
X142113000Y-133965000D01*
X142367000Y-133965000D01*
X142367000Y-133985000D01*
X143732250Y-133985000D01*
X143891000Y-133826250D01*
X143891000Y-133122090D01*
X143794327Y-132888701D01*
X143615698Y-132710073D01*
X143462220Y-132646500D01*
X143484415Y-132631670D01*
X143809271Y-132145489D01*
X143923345Y-131572000D01*
X143809271Y-130998511D01*
X143484415Y-130512330D01*
X143276350Y-130373305D01*
X150114674Y-130373305D01*
X150401043Y-131066372D01*
X150930839Y-131597093D01*
X151623405Y-131884672D01*
X152373305Y-131885326D01*
X153066372Y-131598957D01*
X153597093Y-131069161D01*
X153884672Y-130376595D01*
X153885326Y-129626695D01*
X153598957Y-128933628D01*
X153069161Y-128402907D01*
X152376595Y-128115328D01*
X151626695Y-128114674D01*
X150933628Y-128401043D01*
X150402907Y-128930839D01*
X150115328Y-129623405D01*
X150114674Y-130373305D01*
X143276350Y-130373305D01*
X143169634Y-130302000D01*
X143484415Y-130091670D01*
X143809271Y-129605489D01*
X143923345Y-129032000D01*
X143809271Y-128458511D01*
X143484415Y-127972330D01*
X143169634Y-127762000D01*
X143484415Y-127551670D01*
X143667944Y-127277000D01*
X144526000Y-127277000D01*
X144826407Y-127217245D01*
X145081079Y-127047079D01*
X146986079Y-125142079D01*
X147156245Y-124887406D01*
X147216000Y-124587000D01*
X147216000Y-118097453D01*
X147350282Y-117963405D01*
X147515811Y-117564767D01*
X147516188Y-117133127D01*
X147351354Y-116734200D01*
X147046405Y-116428718D01*
X146647767Y-116263189D01*
X146627060Y-116263171D01*
X146627188Y-116117127D01*
X146462354Y-115718200D01*
X146157405Y-115412718D01*
X145810491Y-115268667D01*
X147264158Y-113815000D01*
X150126547Y-113815000D01*
X150260595Y-113949282D01*
X150659233Y-114114811D01*
X151090873Y-114115188D01*
X151234000Y-114056049D01*
X151234000Y-123825000D01*
X151293755Y-124125407D01*
X151463921Y-124380079D01*
X163274921Y-136191079D01*
X163529593Y-136361245D01*
X163830000Y-136421000D01*
X179433131Y-136421000D01*
X179245293Y-136873362D01*
X179244708Y-137543697D01*
X179500694Y-138163229D01*
X179974278Y-138637640D01*
X180593362Y-138894707D01*
X180892071Y-138894968D01*
X180874047Y-138900884D01*
X180668410Y-139465306D01*
X180694421Y-140065458D01*
X180874047Y-140499116D01*
X181127940Y-140582455D01*
X182010395Y-139700000D01*
X182369605Y-139700000D01*
X183252060Y-140582455D01*
X183505953Y-140499116D01*
X183711590Y-139934694D01*
X183685579Y-139334542D01*
X183505953Y-138900884D01*
X183252060Y-138817545D01*
X182369605Y-139700000D01*
X182010395Y-139700000D01*
X181996253Y-139685858D01*
X182175858Y-139506253D01*
X182190000Y-139520395D01*
X183072455Y-138637940D01*
X182989116Y-138384047D01*
X182424694Y-138178410D01*
X182341310Y-138182024D01*
X182357640Y-138165722D01*
X182614707Y-137546638D01*
X182615292Y-136876303D01*
X182427164Y-136421000D01*
X183062842Y-136421000D01*
X184127000Y-137485157D01*
X184127000Y-138938000D01*
X184186755Y-139238407D01*
X184356921Y-139493079D01*
X185118921Y-140255079D01*
X185349073Y-140408861D01*
X185409138Y-140554229D01*
X185833537Y-140979370D01*
X186388325Y-141209738D01*
X186989040Y-141210262D01*
X187544229Y-140980862D01*
X187969370Y-140556463D01*
X188199738Y-140001675D01*
X188200262Y-139400960D01*
X187991222Y-138895045D01*
X188273697Y-138895292D01*
X188893229Y-138639306D01*
X189367640Y-138165722D01*
X189624707Y-137546638D01*
X189625292Y-136876303D01*
X189369306Y-136256771D01*
X188895722Y-135782360D01*
X188276638Y-135525293D01*
X187606303Y-135524708D01*
X186986771Y-135780694D01*
X186512360Y-136254278D01*
X186255293Y-136873362D01*
X186254708Y-137543697D01*
X186510694Y-138163229D01*
X186537284Y-138189866D01*
X186390960Y-138189738D01*
X185835771Y-138419138D01*
X185697000Y-138557667D01*
X185697000Y-137160000D01*
X185637245Y-136859594D01*
X185467079Y-136604921D01*
X185467076Y-136604919D01*
X183943079Y-135080921D01*
X183688407Y-134910755D01*
X183388000Y-134851000D01*
X164155158Y-134851000D01*
X152804000Y-123499842D01*
X152804000Y-112512158D01*
X164569000Y-124277158D01*
X164569000Y-129921000D01*
X164628755Y-130221407D01*
X164798921Y-130476079D01*
X166449921Y-132127079D01*
X166704594Y-132297245D01*
X167005000Y-132357001D01*
X167005005Y-132357000D01*
X167772144Y-132357000D01*
X168062663Y-132648026D01*
X168529273Y-132841779D01*
X169034510Y-132842220D01*
X169501458Y-132649282D01*
X169859026Y-132292337D01*
X170052779Y-131825727D01*
X170052781Y-131823512D01*
X170245718Y-132290458D01*
X170602663Y-132648026D01*
X171069273Y-132841779D01*
X171574510Y-132842220D01*
X172041458Y-132649282D01*
X172334250Y-132357000D01*
X175895000Y-132357000D01*
X176195407Y-132297245D01*
X176450079Y-132127079D01*
X178203853Y-130373305D01*
X185114674Y-130373305D01*
X185401043Y-131066372D01*
X185930839Y-131597093D01*
X186623405Y-131884672D01*
X187373305Y-131885326D01*
X188066372Y-131598957D01*
X188597093Y-131069161D01*
X188884672Y-130376595D01*
X188885326Y-129626695D01*
X188598957Y-128933628D01*
X188069161Y-128402907D01*
X187376595Y-128115328D01*
X186626695Y-128114674D01*
X185933628Y-128401043D01*
X185402907Y-128930839D01*
X185115328Y-129623405D01*
X185114674Y-130373305D01*
X178203853Y-130373305D01*
X179244079Y-129333079D01*
X179414245Y-129078406D01*
X179474000Y-128778000D01*
X179474000Y-124580000D01*
X181316655Y-124580000D01*
X181430729Y-125153489D01*
X181755585Y-125639670D01*
X182241766Y-125964526D01*
X182815255Y-126078600D01*
X183184745Y-126078600D01*
X183758234Y-125964526D01*
X184244415Y-125639670D01*
X184569271Y-125153489D01*
X184683345Y-124580000D01*
X184569271Y-124006511D01*
X184244415Y-123520330D01*
X183934931Y-123313539D01*
X184350732Y-122942036D01*
X184604709Y-122414791D01*
X184607358Y-122399026D01*
X184486217Y-122167000D01*
X183127000Y-122167000D01*
X183127000Y-122187000D01*
X182873000Y-122187000D01*
X182873000Y-122167000D01*
X181513783Y-122167000D01*
X181392642Y-122399026D01*
X181395291Y-122414791D01*
X181649268Y-122942036D01*
X182065069Y-123313539D01*
X181755585Y-123520330D01*
X181430729Y-124006511D01*
X181316655Y-124580000D01*
X179474000Y-124580000D01*
X179474000Y-118636400D01*
X181336560Y-118636400D01*
X181336560Y-120363600D01*
X181380838Y-120598917D01*
X181519910Y-120815041D01*
X181732110Y-120960031D01*
X181826927Y-120979232D01*
X181649268Y-121137964D01*
X181395291Y-121665209D01*
X181392642Y-121680974D01*
X181513783Y-121913000D01*
X182873000Y-121913000D01*
X182873000Y-121893000D01*
X183127000Y-121893000D01*
X183127000Y-121913000D01*
X184486217Y-121913000D01*
X184607358Y-121680974D01*
X184604709Y-121665209D01*
X184350732Y-121137964D01*
X184175155Y-120981093D01*
X184251317Y-120966762D01*
X184467441Y-120827690D01*
X184612431Y-120615490D01*
X184663440Y-120363600D01*
X184663440Y-118636400D01*
X184619162Y-118401083D01*
X184480090Y-118184959D01*
X184267890Y-118039969D01*
X184016000Y-117988960D01*
X181984000Y-117988960D01*
X181748683Y-118033238D01*
X181532559Y-118172310D01*
X181387569Y-118384510D01*
X181336560Y-118636400D01*
X179474000Y-118636400D01*
X179474000Y-114966750D01*
X181356000Y-114966750D01*
X181356000Y-115670910D01*
X181452673Y-115904299D01*
X181631302Y-116082927D01*
X181864691Y-116179600D01*
X182721250Y-116179600D01*
X182880000Y-116020850D01*
X182880000Y-114808000D01*
X183134000Y-114808000D01*
X183134000Y-116020850D01*
X183292750Y-116179600D01*
X184149309Y-116179600D01*
X184382698Y-116082927D01*
X184561327Y-115904299D01*
X184658000Y-115670910D01*
X184658000Y-114966750D01*
X184499250Y-114808000D01*
X183134000Y-114808000D01*
X182880000Y-114808000D01*
X181514750Y-114808000D01*
X181356000Y-114966750D01*
X179474000Y-114966750D01*
X179474000Y-107188000D01*
X179414245Y-106887594D01*
X179414245Y-106887593D01*
X179244079Y-106632921D01*
X177132158Y-104521000D01*
X181323655Y-104521000D01*
X181437729Y-105094489D01*
X181762585Y-105580670D01*
X182077366Y-105791000D01*
X181762585Y-106001330D01*
X181437729Y-106487511D01*
X181323655Y-107061000D01*
X181437729Y-107634489D01*
X181762585Y-108120670D01*
X182077366Y-108331000D01*
X181762585Y-108541330D01*
X181437729Y-109027511D01*
X181323655Y-109601000D01*
X181437729Y-110174489D01*
X181762585Y-110660670D01*
X182077366Y-110871000D01*
X181762585Y-111081330D01*
X181437729Y-111567511D01*
X181323655Y-112141000D01*
X181437729Y-112714489D01*
X181762585Y-113200670D01*
X181784780Y-113215500D01*
X181631302Y-113279073D01*
X181452673Y-113457701D01*
X181356000Y-113691090D01*
X181356000Y-114395250D01*
X181514750Y-114554000D01*
X182880000Y-114554000D01*
X182880000Y-114534000D01*
X183134000Y-114534000D01*
X183134000Y-114554000D01*
X184499250Y-114554000D01*
X184658000Y-114395250D01*
X184658000Y-113691090D01*
X184561327Y-113457701D01*
X184382698Y-113279073D01*
X184229220Y-113215500D01*
X184251415Y-113200670D01*
X184576271Y-112714489D01*
X184690345Y-112141000D01*
X184576271Y-111567511D01*
X184251415Y-111081330D01*
X183936634Y-110871000D01*
X184251415Y-110660670D01*
X184576271Y-110174489D01*
X184690345Y-109601000D01*
X184576271Y-109027511D01*
X184251415Y-108541330D01*
X183936634Y-108331000D01*
X184251415Y-108120670D01*
X184576271Y-107634489D01*
X184690345Y-107061000D01*
X184576271Y-106487511D01*
X184251415Y-106001330D01*
X183936634Y-105791000D01*
X184251415Y-105580670D01*
X184576271Y-105094489D01*
X184690345Y-104521000D01*
X184576271Y-103947511D01*
X184251415Y-103461330D01*
X183765234Y-103136474D01*
X183191745Y-103022400D01*
X182822255Y-103022400D01*
X182248766Y-103136474D01*
X181762585Y-103461330D01*
X181437729Y-103947511D01*
X181323655Y-104521000D01*
X177132158Y-104521000D01*
X175501714Y-102890556D01*
X175514000Y-102893000D01*
X175514000Y-102893000D01*
G37*
X175514000Y-102893000D02*
X190373000Y-102893000D01*
X190373000Y-143290000D01*
X140462000Y-143290000D01*
X140462000Y-140762060D01*
X181307545Y-140762060D01*
X181390884Y-141015953D01*
X181955306Y-141221590D01*
X182555458Y-141195579D01*
X182989116Y-141015953D01*
X183072455Y-140762060D01*
X182190000Y-139879605D01*
X181307545Y-140762060D01*
X140462000Y-140762060D01*
X140462000Y-134397750D01*
X140589000Y-134397750D01*
X140589000Y-135101910D01*
X140685673Y-135335299D01*
X140864302Y-135513927D01*
X141097691Y-135610600D01*
X141954250Y-135610600D01*
X142113000Y-135451850D01*
X142113000Y-134239000D01*
X142367000Y-134239000D01*
X142367000Y-135451850D01*
X142525750Y-135610600D01*
X143382309Y-135610600D01*
X143615698Y-135513927D01*
X143794327Y-135335299D01*
X143891000Y-135101910D01*
X143891000Y-134397750D01*
X143732250Y-134239000D01*
X142367000Y-134239000D01*
X142113000Y-134239000D01*
X140747750Y-134239000D01*
X140589000Y-134397750D01*
X140462000Y-134397750D01*
X140462000Y-121227000D01*
X140593431Y-121227115D01*
X140556655Y-121412000D01*
X140670729Y-121985489D01*
X140995585Y-122471670D01*
X141310366Y-122682000D01*
X140995585Y-122892330D01*
X140670729Y-123378511D01*
X140556655Y-123952000D01*
X140670729Y-124525489D01*
X140995585Y-125011670D01*
X141310366Y-125222000D01*
X140995585Y-125432330D01*
X140670729Y-125918511D01*
X140556655Y-126492000D01*
X140670729Y-127065489D01*
X140995585Y-127551670D01*
X141310366Y-127762000D01*
X140995585Y-127972330D01*
X140670729Y-128458511D01*
X140556655Y-129032000D01*
X140670729Y-129605489D01*
X140995585Y-130091670D01*
X141310366Y-130302000D01*
X140995585Y-130512330D01*
X140670729Y-130998511D01*
X140556655Y-131572000D01*
X140670729Y-132145489D01*
X140995585Y-132631670D01*
X141017780Y-132646500D01*
X140864302Y-132710073D01*
X140685673Y-132888701D01*
X140589000Y-133122090D01*
X140589000Y-133826250D01*
X140747750Y-133985000D01*
X142113000Y-133985000D01*
X142113000Y-133965000D01*
X142367000Y-133965000D01*
X142367000Y-133985000D01*
X143732250Y-133985000D01*
X143891000Y-133826250D01*
X143891000Y-133122090D01*
X143794327Y-132888701D01*
X143615698Y-132710073D01*
X143462220Y-132646500D01*
X143484415Y-132631670D01*
X143809271Y-132145489D01*
X143923345Y-131572000D01*
X143809271Y-130998511D01*
X143484415Y-130512330D01*
X143276350Y-130373305D01*
X150114674Y-130373305D01*
X150401043Y-131066372D01*
X150930839Y-131597093D01*
X151623405Y-131884672D01*
X152373305Y-131885326D01*
X153066372Y-131598957D01*
X153597093Y-131069161D01*
X153884672Y-130376595D01*
X153885326Y-129626695D01*
X153598957Y-128933628D01*
X153069161Y-128402907D01*
X152376595Y-128115328D01*
X151626695Y-128114674D01*
X150933628Y-128401043D01*
X150402907Y-128930839D01*
X150115328Y-129623405D01*
X150114674Y-130373305D01*
X143276350Y-130373305D01*
X143169634Y-130302000D01*
X143484415Y-130091670D01*
X143809271Y-129605489D01*
X143923345Y-129032000D01*
X143809271Y-128458511D01*
X143484415Y-127972330D01*
X143169634Y-127762000D01*
X143484415Y-127551670D01*
X143667944Y-127277000D01*
X144526000Y-127277000D01*
X144826407Y-127217245D01*
X145081079Y-127047079D01*
X146986079Y-125142079D01*
X147156245Y-124887406D01*
X147216000Y-124587000D01*
X147216000Y-118097453D01*
X147350282Y-117963405D01*
X147515811Y-117564767D01*
X147516188Y-117133127D01*
X147351354Y-116734200D01*
X147046405Y-116428718D01*
X146647767Y-116263189D01*
X146627060Y-116263171D01*
X146627188Y-116117127D01*
X146462354Y-115718200D01*
X146157405Y-115412718D01*
X145810491Y-115268667D01*
X147264158Y-113815000D01*
X150126547Y-113815000D01*
X150260595Y-113949282D01*
X150659233Y-114114811D01*
X151090873Y-114115188D01*
X151234000Y-114056049D01*
X151234000Y-123825000D01*
X151293755Y-124125407D01*
X151463921Y-124380079D01*
X163274921Y-136191079D01*
X163529593Y-136361245D01*
X163830000Y-136421000D01*
X179433131Y-136421000D01*
X179245293Y-136873362D01*
X179244708Y-137543697D01*
X179500694Y-138163229D01*
X179974278Y-138637640D01*
X180593362Y-138894707D01*
X180892071Y-138894968D01*
X180874047Y-138900884D01*
X180668410Y-139465306D01*
X180694421Y-140065458D01*
X180874047Y-140499116D01*
X181127940Y-140582455D01*
X182010395Y-139700000D01*
X182369605Y-139700000D01*
X183252060Y-140582455D01*
X183505953Y-140499116D01*
X183711590Y-139934694D01*
X183685579Y-139334542D01*
X183505953Y-138900884D01*
X183252060Y-138817545D01*
X182369605Y-139700000D01*
X182010395Y-139700000D01*
X181996253Y-139685858D01*
X182175858Y-139506253D01*
X182190000Y-139520395D01*
X183072455Y-138637940D01*
X182989116Y-138384047D01*
X182424694Y-138178410D01*
X182341310Y-138182024D01*
X182357640Y-138165722D01*
X182614707Y-137546638D01*
X182615292Y-136876303D01*
X182427164Y-136421000D01*
X183062842Y-136421000D01*
X184127000Y-137485157D01*
X184127000Y-138938000D01*
X184186755Y-139238407D01*
X184356921Y-139493079D01*
X185118921Y-140255079D01*
X185349073Y-140408861D01*
X185409138Y-140554229D01*
X185833537Y-140979370D01*
X186388325Y-141209738D01*
X186989040Y-141210262D01*
X187544229Y-140980862D01*
X187969370Y-140556463D01*
X188199738Y-140001675D01*
X188200262Y-139400960D01*
X187991222Y-138895045D01*
X188273697Y-138895292D01*
X188893229Y-138639306D01*
X189367640Y-138165722D01*
X189624707Y-137546638D01*
X189625292Y-136876303D01*
X189369306Y-136256771D01*
X188895722Y-135782360D01*
X188276638Y-135525293D01*
X187606303Y-135524708D01*
X186986771Y-135780694D01*
X186512360Y-136254278D01*
X186255293Y-136873362D01*
X186254708Y-137543697D01*
X186510694Y-138163229D01*
X186537284Y-138189866D01*
X186390960Y-138189738D01*
X185835771Y-138419138D01*
X185697000Y-138557667D01*
X185697000Y-137160000D01*
X185637245Y-136859594D01*
X185467079Y-136604921D01*
X185467076Y-136604919D01*
X183943079Y-135080921D01*
X183688407Y-134910755D01*
X183388000Y-134851000D01*
X164155158Y-134851000D01*
X152804000Y-123499842D01*
X152804000Y-112512158D01*
X164569000Y-124277158D01*
X164569000Y-129921000D01*
X164628755Y-130221407D01*
X164798921Y-130476079D01*
X166449921Y-132127079D01*
X166704594Y-132297245D01*
X167005000Y-132357001D01*
X167005005Y-132357000D01*
X167772144Y-132357000D01*
X168062663Y-132648026D01*
X168529273Y-132841779D01*
X169034510Y-132842220D01*
X169501458Y-132649282D01*
X169859026Y-132292337D01*
X170052779Y-131825727D01*
X170052781Y-131823512D01*
X170245718Y-132290458D01*
X170602663Y-132648026D01*
X171069273Y-132841779D01*
X171574510Y-132842220D01*
X172041458Y-132649282D01*
X172334250Y-132357000D01*
X175895000Y-132357000D01*
X176195407Y-132297245D01*
X176450079Y-132127079D01*
X178203853Y-130373305D01*
X185114674Y-130373305D01*
X185401043Y-131066372D01*
X185930839Y-131597093D01*
X186623405Y-131884672D01*
X187373305Y-131885326D01*
X188066372Y-131598957D01*
X188597093Y-131069161D01*
X188884672Y-130376595D01*
X188885326Y-129626695D01*
X188598957Y-128933628D01*
X188069161Y-128402907D01*
X187376595Y-128115328D01*
X186626695Y-128114674D01*
X185933628Y-128401043D01*
X185402907Y-128930839D01*
X185115328Y-129623405D01*
X185114674Y-130373305D01*
X178203853Y-130373305D01*
X179244079Y-129333079D01*
X179414245Y-129078406D01*
X179474000Y-128778000D01*
X179474000Y-124580000D01*
X181316655Y-124580000D01*
X181430729Y-125153489D01*
X181755585Y-125639670D01*
X182241766Y-125964526D01*
X182815255Y-126078600D01*
X183184745Y-126078600D01*
X183758234Y-125964526D01*
X184244415Y-125639670D01*
X184569271Y-125153489D01*
X184683345Y-124580000D01*
X184569271Y-124006511D01*
X184244415Y-123520330D01*
X183934931Y-123313539D01*
X184350732Y-122942036D01*
X184604709Y-122414791D01*
X184607358Y-122399026D01*
X184486217Y-122167000D01*
X183127000Y-122167000D01*
X183127000Y-122187000D01*
X182873000Y-122187000D01*
X182873000Y-122167000D01*
X181513783Y-122167000D01*
X181392642Y-122399026D01*
X181395291Y-122414791D01*
X181649268Y-122942036D01*
X182065069Y-123313539D01*
X181755585Y-123520330D01*
X181430729Y-124006511D01*
X181316655Y-124580000D01*
X179474000Y-124580000D01*
X179474000Y-118636400D01*
X181336560Y-118636400D01*
X181336560Y-120363600D01*
X181380838Y-120598917D01*
X181519910Y-120815041D01*
X181732110Y-120960031D01*
X181826927Y-120979232D01*
X181649268Y-121137964D01*
X181395291Y-121665209D01*
X181392642Y-121680974D01*
X181513783Y-121913000D01*
X182873000Y-121913000D01*
X182873000Y-121893000D01*
X183127000Y-121893000D01*
X183127000Y-121913000D01*
X184486217Y-121913000D01*
X184607358Y-121680974D01*
X184604709Y-121665209D01*
X184350732Y-121137964D01*
X184175155Y-120981093D01*
X184251317Y-120966762D01*
X184467441Y-120827690D01*
X184612431Y-120615490D01*
X184663440Y-120363600D01*
X184663440Y-118636400D01*
X184619162Y-118401083D01*
X184480090Y-118184959D01*
X184267890Y-118039969D01*
X184016000Y-117988960D01*
X181984000Y-117988960D01*
X181748683Y-118033238D01*
X181532559Y-118172310D01*
X181387569Y-118384510D01*
X181336560Y-118636400D01*
X179474000Y-118636400D01*
X179474000Y-114966750D01*
X181356000Y-114966750D01*
X181356000Y-115670910D01*
X181452673Y-115904299D01*
X181631302Y-116082927D01*
X181864691Y-116179600D01*
X182721250Y-116179600D01*
X182880000Y-116020850D01*
X182880000Y-114808000D01*
X183134000Y-114808000D01*
X183134000Y-116020850D01*
X183292750Y-116179600D01*
X184149309Y-116179600D01*
X184382698Y-116082927D01*
X184561327Y-115904299D01*
X184658000Y-115670910D01*
X184658000Y-114966750D01*
X184499250Y-114808000D01*
X183134000Y-114808000D01*
X182880000Y-114808000D01*
X181514750Y-114808000D01*
X181356000Y-114966750D01*
X179474000Y-114966750D01*
X179474000Y-107188000D01*
X179414245Y-106887594D01*
X179414245Y-106887593D01*
X179244079Y-106632921D01*
X177132158Y-104521000D01*
X181323655Y-104521000D01*
X181437729Y-105094489D01*
X181762585Y-105580670D01*
X182077366Y-105791000D01*
X181762585Y-106001330D01*
X181437729Y-106487511D01*
X181323655Y-107061000D01*
X181437729Y-107634489D01*
X181762585Y-108120670D01*
X182077366Y-108331000D01*
X181762585Y-108541330D01*
X181437729Y-109027511D01*
X181323655Y-109601000D01*
X181437729Y-110174489D01*
X181762585Y-110660670D01*
X182077366Y-110871000D01*
X181762585Y-111081330D01*
X181437729Y-111567511D01*
X181323655Y-112141000D01*
X181437729Y-112714489D01*
X181762585Y-113200670D01*
X181784780Y-113215500D01*
X181631302Y-113279073D01*
X181452673Y-113457701D01*
X181356000Y-113691090D01*
X181356000Y-114395250D01*
X181514750Y-114554000D01*
X182880000Y-114554000D01*
X182880000Y-114534000D01*
X183134000Y-114534000D01*
X183134000Y-114554000D01*
X184499250Y-114554000D01*
X184658000Y-114395250D01*
X184658000Y-113691090D01*
X184561327Y-113457701D01*
X184382698Y-113279073D01*
X184229220Y-113215500D01*
X184251415Y-113200670D01*
X184576271Y-112714489D01*
X184690345Y-112141000D01*
X184576271Y-111567511D01*
X184251415Y-111081330D01*
X183936634Y-110871000D01*
X184251415Y-110660670D01*
X184576271Y-110174489D01*
X184690345Y-109601000D01*
X184576271Y-109027511D01*
X184251415Y-108541330D01*
X183936634Y-108331000D01*
X184251415Y-108120670D01*
X184576271Y-107634489D01*
X184690345Y-107061000D01*
X184576271Y-106487511D01*
X184251415Y-106001330D01*
X183936634Y-105791000D01*
X184251415Y-105580670D01*
X184576271Y-105094489D01*
X184690345Y-104521000D01*
X184576271Y-103947511D01*
X184251415Y-103461330D01*
X183765234Y-103136474D01*
X183191745Y-103022400D01*
X182822255Y-103022400D01*
X182248766Y-103136474D01*
X181762585Y-103461330D01*
X181437729Y-103947511D01*
X181323655Y-104521000D01*
X177132158Y-104521000D01*
X175501714Y-102890556D01*
X175514000Y-102893000D01*
G36*
X177904000Y-107513158D02*
X177904000Y-122437842D01*
X171518911Y-116052753D01*
X171519188Y-115736127D01*
X171354354Y-115337200D01*
X171049405Y-115031718D01*
X170650767Y-114866189D01*
X170219127Y-114865812D01*
X169820200Y-115030646D01*
X169514718Y-115335595D01*
X169349189Y-115734233D01*
X169348812Y-116165873D01*
X169513646Y-116564800D01*
X169818595Y-116870282D01*
X170217233Y-117035811D01*
X170281709Y-117035867D01*
X176613726Y-123367884D01*
X176461189Y-123735233D01*
X176460812Y-124166873D01*
X176625646Y-124565800D01*
X176930595Y-124871282D01*
X177329233Y-125036811D01*
X177760873Y-125037188D01*
X177904000Y-124978049D01*
X177904000Y-128452842D01*
X175569842Y-130787000D01*
X172333856Y-130787000D01*
X172043337Y-130495974D01*
X171576727Y-130302221D01*
X171071490Y-130301780D01*
X170604542Y-130494718D01*
X170246974Y-130851663D01*
X170053221Y-131318273D01*
X170053219Y-131320488D01*
X169860282Y-130853542D01*
X169503337Y-130495974D01*
X169036727Y-130302221D01*
X168531490Y-130301780D01*
X168064542Y-130494718D01*
X167771750Y-130787000D01*
X167330158Y-130787000D01*
X166326180Y-129783022D01*
X166497000Y-129817000D01*
X166502144Y-129817000D01*
X166792663Y-130108026D01*
X167259273Y-130301779D01*
X167764510Y-130302220D01*
X168231458Y-130109282D01*
X168420937Y-129920133D01*
X169344472Y-129920133D01*
X169398303Y-130149179D01*
X169875664Y-130314681D01*
X170380023Y-130284906D01*
X170707697Y-130149179D01*
X170761528Y-129920133D01*
X170053000Y-129211605D01*
X169344472Y-129920133D01*
X168420937Y-129920133D01*
X168589026Y-129752337D01*
X168782779Y-129285727D01*
X168782968Y-129068929D01*
X168800094Y-129359023D01*
X168935821Y-129686697D01*
X169164867Y-129740528D01*
X169873395Y-129032000D01*
X169164867Y-128323472D01*
X168935821Y-128377303D01*
X168783188Y-128817547D01*
X168783220Y-128780490D01*
X168590282Y-128313542D01*
X168233337Y-127955974D01*
X167766727Y-127762221D01*
X167764512Y-127762219D01*
X168231458Y-127569282D01*
X168589026Y-127212337D01*
X168782779Y-126745727D01*
X168782781Y-126743512D01*
X168975718Y-127210458D01*
X169332663Y-127568026D01*
X169799273Y-127761779D01*
X170016071Y-127761968D01*
X169725977Y-127779094D01*
X169398303Y-127914821D01*
X169344472Y-128143867D01*
X170053000Y-128852395D01*
X170761528Y-128143867D01*
X170707697Y-127914821D01*
X170267453Y-127762188D01*
X170304510Y-127762220D01*
X170771458Y-127569282D01*
X171129026Y-127212337D01*
X171322779Y-126745727D01*
X171322781Y-126743512D01*
X171515718Y-127210458D01*
X171872663Y-127568026D01*
X172339273Y-127761779D01*
X172341488Y-127761781D01*
X171874542Y-127954718D01*
X171516974Y-128311663D01*
X171323221Y-128778273D01*
X171323032Y-128995071D01*
X171305906Y-128704977D01*
X171170179Y-128377303D01*
X170941133Y-128323472D01*
X170232605Y-129032000D01*
X170941133Y-129740528D01*
X171170179Y-129686697D01*
X171322812Y-129246453D01*
X171322780Y-129283510D01*
X171515718Y-129750458D01*
X171872663Y-130108026D01*
X172339273Y-130301779D01*
X172844510Y-130302220D01*
X173311458Y-130109282D01*
X173604250Y-129817000D01*
X173736000Y-129817000D01*
X174036407Y-129757245D01*
X174291079Y-129587079D01*
X175434079Y-128444079D01*
X175604245Y-128189406D01*
X175664000Y-127889000D01*
X175664000Y-124206000D01*
X175604245Y-123905594D01*
X175434079Y-123650921D01*
X169187000Y-117403842D01*
X169187000Y-110363000D01*
X169557960Y-110363000D01*
X169557960Y-112395000D01*
X169602238Y-112630317D01*
X169741310Y-112846441D01*
X169953510Y-112991431D01*
X170205400Y-113042440D01*
X171932600Y-113042440D01*
X172167917Y-112998162D01*
X172384041Y-112859090D01*
X172529031Y-112646890D01*
X172537400Y-112605561D01*
X172549330Y-112623415D01*
X173035511Y-112948271D01*
X173609000Y-113062345D01*
X174182489Y-112948271D01*
X174668670Y-112623415D01*
X174875461Y-112313931D01*
X175246964Y-112729732D01*
X175774209Y-112983709D01*
X175789974Y-112986358D01*
X176022000Y-112865217D01*
X176022000Y-111506000D01*
X176276000Y-111506000D01*
X176276000Y-112865217D01*
X176508026Y-112986358D01*
X176523791Y-112983709D01*
X177051036Y-112729732D01*
X177440954Y-112293320D01*
X177634184Y-111740913D01*
X177489924Y-111506000D01*
X176276000Y-111506000D01*
X176022000Y-111506000D01*
X176002000Y-111506000D01*
X176002000Y-111252000D01*
X176022000Y-111252000D01*
X176022000Y-109892783D01*
X176276000Y-109892783D01*
X176276000Y-111252000D01*
X177489924Y-111252000D01*
X177634184Y-111017087D01*
X177440954Y-110464680D01*
X177051036Y-110028268D01*
X176523791Y-109774291D01*
X176508026Y-109771642D01*
X176276000Y-109892783D01*
X176022000Y-109892783D01*
X175789974Y-109771642D01*
X175774209Y-109774291D01*
X175246964Y-110028268D01*
X174875461Y-110444069D01*
X174668670Y-110134585D01*
X174182489Y-109809729D01*
X173609000Y-109695655D01*
X173035511Y-109809729D01*
X172549330Y-110134585D01*
X172539757Y-110148913D01*
X172535762Y-110127683D01*
X172396690Y-109911559D01*
X172184490Y-109766569D01*
X171932600Y-109715560D01*
X170205400Y-109715560D01*
X169970083Y-109759838D01*
X169753959Y-109898910D01*
X169608969Y-110111110D01*
X169557960Y-110363000D01*
X169187000Y-110363000D01*
X169187000Y-104775000D01*
X169127245Y-104474594D01*
X168979013Y-104252747D01*
X168979188Y-104052127D01*
X168815098Y-103655000D01*
X174045842Y-103655000D01*
X177904000Y-107513158D01*
X177904000Y-107513158D01*
G37*
X177904000Y-107513158D02*
X177904000Y-122437842D01*
X171518911Y-116052753D01*
X171519188Y-115736127D01*
X171354354Y-115337200D01*
X171049405Y-115031718D01*
X170650767Y-114866189D01*
X170219127Y-114865812D01*
X169820200Y-115030646D01*
X169514718Y-115335595D01*
X169349189Y-115734233D01*
X169348812Y-116165873D01*
X169513646Y-116564800D01*
X169818595Y-116870282D01*
X170217233Y-117035811D01*
X170281709Y-117035867D01*
X176613726Y-123367884D01*
X176461189Y-123735233D01*
X176460812Y-124166873D01*
X176625646Y-124565800D01*
X176930595Y-124871282D01*
X177329233Y-125036811D01*
X177760873Y-125037188D01*
X177904000Y-124978049D01*
X177904000Y-128452842D01*
X175569842Y-130787000D01*
X172333856Y-130787000D01*
X172043337Y-130495974D01*
X171576727Y-130302221D01*
X171071490Y-130301780D01*
X170604542Y-130494718D01*
X170246974Y-130851663D01*
X170053221Y-131318273D01*
X170053219Y-131320488D01*
X169860282Y-130853542D01*
X169503337Y-130495974D01*
X169036727Y-130302221D01*
X168531490Y-130301780D01*
X168064542Y-130494718D01*
X167771750Y-130787000D01*
X167330158Y-130787000D01*
X166326180Y-129783022D01*
X166497000Y-129817000D01*
X166502144Y-129817000D01*
X166792663Y-130108026D01*
X167259273Y-130301779D01*
X167764510Y-130302220D01*
X168231458Y-130109282D01*
X168420937Y-129920133D01*
X169344472Y-129920133D01*
X169398303Y-130149179D01*
X169875664Y-130314681D01*
X170380023Y-130284906D01*
X170707697Y-130149179D01*
X170761528Y-129920133D01*
X170053000Y-129211605D01*
X169344472Y-129920133D01*
X168420937Y-129920133D01*
X168589026Y-129752337D01*
X168782779Y-129285727D01*
X168782968Y-129068929D01*
X168800094Y-129359023D01*
X168935821Y-129686697D01*
X169164867Y-129740528D01*
X169873395Y-129032000D01*
X169164867Y-128323472D01*
X168935821Y-128377303D01*
X168783188Y-128817547D01*
X168783220Y-128780490D01*
X168590282Y-128313542D01*
X168233337Y-127955974D01*
X167766727Y-127762221D01*
X167764512Y-127762219D01*
X168231458Y-127569282D01*
X168589026Y-127212337D01*
X168782779Y-126745727D01*
X168782781Y-126743512D01*
X168975718Y-127210458D01*
X169332663Y-127568026D01*
X169799273Y-127761779D01*
X170016071Y-127761968D01*
X169725977Y-127779094D01*
X169398303Y-127914821D01*
X169344472Y-128143867D01*
X170053000Y-128852395D01*
X170761528Y-128143867D01*
X170707697Y-127914821D01*
X170267453Y-127762188D01*
X170304510Y-127762220D01*
X170771458Y-127569282D01*
X171129026Y-127212337D01*
X171322779Y-126745727D01*
X171322781Y-126743512D01*
X171515718Y-127210458D01*
X171872663Y-127568026D01*
X172339273Y-127761779D01*
X172341488Y-127761781D01*
X171874542Y-127954718D01*
X171516974Y-128311663D01*
X171323221Y-128778273D01*
X171323032Y-128995071D01*
X171305906Y-128704977D01*
X171170179Y-128377303D01*
X170941133Y-128323472D01*
X170232605Y-129032000D01*
X170941133Y-129740528D01*
X171170179Y-129686697D01*
X171322812Y-129246453D01*
X171322780Y-129283510D01*
X171515718Y-129750458D01*
X171872663Y-130108026D01*
X172339273Y-130301779D01*
X172844510Y-130302220D01*
X173311458Y-130109282D01*
X173604250Y-129817000D01*
X173736000Y-129817000D01*
X174036407Y-129757245D01*
X174291079Y-129587079D01*
X175434079Y-128444079D01*
X175604245Y-128189406D01*
X175664000Y-127889000D01*
X175664000Y-124206000D01*
X175604245Y-123905594D01*
X175434079Y-123650921D01*
X169187000Y-117403842D01*
X169187000Y-110363000D01*
X169557960Y-110363000D01*
X169557960Y-112395000D01*
X169602238Y-112630317D01*
X169741310Y-112846441D01*
X169953510Y-112991431D01*
X170205400Y-113042440D01*
X171932600Y-113042440D01*
X172167917Y-112998162D01*
X172384041Y-112859090D01*
X172529031Y-112646890D01*
X172537400Y-112605561D01*
X172549330Y-112623415D01*
X173035511Y-112948271D01*
X173609000Y-113062345D01*
X174182489Y-112948271D01*
X174668670Y-112623415D01*
X174875461Y-112313931D01*
X175246964Y-112729732D01*
X175774209Y-112983709D01*
X175789974Y-112986358D01*
X176022000Y-112865217D01*
X176022000Y-111506000D01*
X176276000Y-111506000D01*
X176276000Y-112865217D01*
X176508026Y-112986358D01*
X176523791Y-112983709D01*
X177051036Y-112729732D01*
X177440954Y-112293320D01*
X177634184Y-111740913D01*
X177489924Y-111506000D01*
X176276000Y-111506000D01*
X176022000Y-111506000D01*
X176002000Y-111506000D01*
X176002000Y-111252000D01*
X176022000Y-111252000D01*
X176022000Y-109892783D01*
X176276000Y-109892783D01*
X176276000Y-111252000D01*
X177489924Y-111252000D01*
X177634184Y-111017087D01*
X177440954Y-110464680D01*
X177051036Y-110028268D01*
X176523791Y-109774291D01*
X176508026Y-109771642D01*
X176276000Y-109892783D01*
X176022000Y-109892783D01*
X175789974Y-109771642D01*
X175774209Y-109774291D01*
X175246964Y-110028268D01*
X174875461Y-110444069D01*
X174668670Y-110134585D01*
X174182489Y-109809729D01*
X173609000Y-109695655D01*
X173035511Y-109809729D01*
X172549330Y-110134585D01*
X172539757Y-110148913D01*
X172535762Y-110127683D01*
X172396690Y-109911559D01*
X172184490Y-109766569D01*
X171932600Y-109715560D01*
X170205400Y-109715560D01*
X169970083Y-109759838D01*
X169753959Y-109898910D01*
X169608969Y-110111110D01*
X169557960Y-110363000D01*
X169187000Y-110363000D01*
X169187000Y-104775000D01*
X169127245Y-104474594D01*
X168979013Y-104252747D01*
X168979188Y-104052127D01*
X168815098Y-103655000D01*
X174045842Y-103655000D01*
X177904000Y-107513158D01*
G36*
X139713043Y-111691122D02*
X139358127Y-111690812D01*
X138959200Y-111855646D01*
X138653718Y-112160595D01*
X138488189Y-112559233D01*
X138487812Y-112990873D01*
X138652646Y-113389800D01*
X138957595Y-113695282D01*
X139356233Y-113860811D01*
X139547820Y-113860978D01*
X139677000Y-113990158D01*
X139677000Y-116668513D01*
X125182872Y-102778307D01*
X125140275Y-102751344D01*
X125095000Y-102743000D01*
X123317000Y-102743000D01*
X123317000Y-99056000D01*
X127077920Y-99056000D01*
X139713043Y-111691122D01*
X139713043Y-111691122D01*
G37*
X139713043Y-111691122D02*
X139358127Y-111690812D01*
X138959200Y-111855646D01*
X138653718Y-112160595D01*
X138488189Y-112559233D01*
X138487812Y-112990873D01*
X138652646Y-113389800D01*
X138957595Y-113695282D01*
X139356233Y-113860811D01*
X139547820Y-113860978D01*
X139677000Y-113990158D01*
X139677000Y-116668513D01*
X125182872Y-102778307D01*
X125140275Y-102751344D01*
X125095000Y-102743000D01*
X123317000Y-102743000D01*
X123317000Y-99056000D01*
X127077920Y-99056000D01*
X139713043Y-111691122D01*
G36*
X158357276Y-89673723D02*
X158498073Y-89767800D01*
X158595728Y-89833051D01*
X158877000Y-89889000D01*
X165570635Y-89889000D01*
X165754595Y-90073282D01*
X166153233Y-90238811D01*
X166584873Y-90239188D01*
X166983800Y-90074354D01*
X167252588Y-89806035D01*
X169953000Y-92506447D01*
X169953000Y-101054635D01*
X169768718Y-101238595D01*
X169603189Y-101637233D01*
X169602812Y-102068873D01*
X169609476Y-102085000D01*
X166103453Y-102085000D01*
X165969405Y-101950718D01*
X165570767Y-101785189D01*
X165139127Y-101784812D01*
X164740200Y-101949646D01*
X164434718Y-102254595D01*
X164269189Y-102653233D01*
X164268812Y-103084873D01*
X164433646Y-103483800D01*
X164738595Y-103789282D01*
X165137233Y-103954811D01*
X165568873Y-103955188D01*
X165967800Y-103790354D01*
X166103391Y-103655000D01*
X166973304Y-103655000D01*
X166809189Y-104050233D01*
X166808812Y-104481873D01*
X166973646Y-104880800D01*
X167278595Y-105186282D01*
X167617000Y-105326800D01*
X167617000Y-105728099D01*
X167602767Y-105722189D01*
X167171127Y-105721812D01*
X166772200Y-105886646D01*
X166586522Y-106072000D01*
X161962365Y-106072000D01*
X161778405Y-105887718D01*
X161379767Y-105722189D01*
X160948127Y-105721812D01*
X160805000Y-105780951D01*
X160805000Y-99385158D01*
X162458136Y-97732022D01*
X162647873Y-97732188D01*
X163046800Y-97567354D01*
X163352282Y-97262405D01*
X163517811Y-96863767D01*
X163518188Y-96432127D01*
X163353354Y-96033200D01*
X163048405Y-95727718D01*
X162649767Y-95562189D01*
X162218127Y-95561812D01*
X161819200Y-95726646D01*
X161513718Y-96031595D01*
X161348189Y-96430233D01*
X161348022Y-96621820D01*
X159464921Y-98504921D01*
X159294755Y-98759593D01*
X159294755Y-98759594D01*
X159235000Y-99060000D01*
X159235000Y-100677751D01*
X158984405Y-100426718D01*
X158585767Y-100261189D01*
X158265000Y-100260909D01*
X158265000Y-96549506D01*
X158272192Y-96542327D01*
X158414838Y-96198799D01*
X158415162Y-95826833D01*
X158348188Y-95664742D01*
X158332245Y-95584594D01*
X158287242Y-95517241D01*
X158273117Y-95483057D01*
X158246756Y-95456650D01*
X158162079Y-95329921D01*
X158036457Y-95245983D01*
X158010327Y-95219808D01*
X157975867Y-95205499D01*
X157907406Y-95159755D01*
X157827358Y-95143832D01*
X157666799Y-95077162D01*
X157294833Y-95076838D01*
X156971629Y-95210383D01*
X156650799Y-95077162D01*
X156278833Y-95076838D01*
X156183000Y-95116435D01*
X156183000Y-94567419D01*
X156240192Y-94510327D01*
X156382838Y-94166799D01*
X156382981Y-94003000D01*
X159397547Y-94003000D01*
X159531595Y-94137282D01*
X159930233Y-94302811D01*
X160361873Y-94303188D01*
X160760800Y-94138354D01*
X160896391Y-94003000D01*
X162318547Y-94003000D01*
X162452595Y-94137282D01*
X162851233Y-94302811D01*
X163282873Y-94303188D01*
X163681800Y-94138354D01*
X163817391Y-94003000D01*
X166763547Y-94003000D01*
X166897595Y-94137282D01*
X167296233Y-94302811D01*
X167727873Y-94303188D01*
X168126800Y-94138354D01*
X168432282Y-93833405D01*
X168597811Y-93434767D01*
X168598188Y-93003127D01*
X168433354Y-92604200D01*
X168128405Y-92298718D01*
X167729767Y-92133189D01*
X167298127Y-92132812D01*
X166899200Y-92297646D01*
X166763609Y-92433000D01*
X163817453Y-92433000D01*
X163683405Y-92298718D01*
X163284767Y-92133189D01*
X162853127Y-92132812D01*
X162454200Y-92297646D01*
X162318609Y-92433000D01*
X160896453Y-92433000D01*
X160762405Y-92298718D01*
X160363767Y-92133189D01*
X159932127Y-92132812D01*
X159533200Y-92297646D01*
X159397609Y-92433000D01*
X154969506Y-92433000D01*
X154962327Y-92425808D01*
X154618799Y-92283162D01*
X154246833Y-92282838D01*
X153903057Y-92424883D01*
X153894926Y-92433000D01*
X150609453Y-92433000D01*
X150475405Y-92298718D01*
X150076767Y-92133189D01*
X149645127Y-92132812D01*
X149246200Y-92297646D01*
X148940718Y-92602595D01*
X148775189Y-93001233D01*
X148774812Y-93432873D01*
X148939646Y-93831800D01*
X149244595Y-94137282D01*
X149643233Y-94302811D01*
X150074873Y-94303188D01*
X150473800Y-94138354D01*
X150609391Y-94003000D01*
X153894494Y-94003000D01*
X153901673Y-94010192D01*
X154245201Y-94152838D01*
X154512849Y-94153071D01*
X154512838Y-94165167D01*
X154654883Y-94508943D01*
X154713000Y-94567162D01*
X154713000Y-95838912D01*
X154627833Y-95838838D01*
X154304629Y-95972383D01*
X153983799Y-95839162D01*
X153843151Y-95839039D01*
X153843162Y-95826833D01*
X153701117Y-95483057D01*
X153438327Y-95219808D01*
X153094799Y-95077162D01*
X152722833Y-95076838D01*
X152379057Y-95218883D01*
X152115808Y-95481673D01*
X151973162Y-95825201D01*
X151973150Y-95838849D01*
X151960833Y-95838838D01*
X151617057Y-95980883D01*
X151353808Y-96243673D01*
X151211162Y-96587201D01*
X151210838Y-96959167D01*
X151352883Y-97302943D01*
X151411000Y-97361162D01*
X151411000Y-100546635D01*
X151226718Y-100730595D01*
X151061189Y-101129233D01*
X151060812Y-101560873D01*
X151225646Y-101959800D01*
X151530595Y-102265282D01*
X151929233Y-102430811D01*
X152123000Y-102430980D01*
X152123000Y-108955834D01*
X151981767Y-108897189D01*
X151550127Y-108896812D01*
X151151200Y-109061646D01*
X150845718Y-109366595D01*
X150680189Y-109765233D01*
X150679812Y-110196873D01*
X150844646Y-110595800D01*
X151149595Y-110901282D01*
X151234000Y-110936330D01*
X151234000Y-112003834D01*
X151092767Y-111945189D01*
X150661127Y-111944812D01*
X150262200Y-112109646D01*
X150126609Y-112245000D01*
X146939000Y-112245000D01*
X146638594Y-112304755D01*
X146383921Y-112474921D01*
X143589921Y-115268921D01*
X143536029Y-115349576D01*
X143484415Y-115272330D01*
X142998234Y-114947474D01*
X142424745Y-114833400D01*
X142055255Y-114833400D01*
X141481766Y-114947474D01*
X141247000Y-115104340D01*
X141247000Y-113665000D01*
X141187245Y-113364594D01*
X141017079Y-113109921D01*
X140658022Y-112750864D01*
X140658030Y-112741779D01*
X140753233Y-112781311D01*
X141184873Y-112781688D01*
X141583800Y-112616854D01*
X141873540Y-112327619D01*
X142488354Y-112942433D01*
X142488312Y-112990873D01*
X142653146Y-113389800D01*
X142958095Y-113695282D01*
X143356733Y-113860811D01*
X143788373Y-113861188D01*
X144187300Y-113696354D01*
X144492782Y-113391405D01*
X144658311Y-112992767D01*
X144658688Y-112561127D01*
X144493854Y-112162200D01*
X144188905Y-111856718D01*
X143790267Y-111691189D01*
X143740224Y-111691145D01*
X142925851Y-110876772D01*
X143171300Y-110775354D01*
X143476782Y-110470405D01*
X143571809Y-110241554D01*
X143724873Y-110241688D01*
X144123800Y-110076854D01*
X144429282Y-109771905D01*
X144594811Y-109373267D01*
X144595188Y-108941627D01*
X144430354Y-108542700D01*
X144125405Y-108237218D01*
X143726767Y-108071689D01*
X143676724Y-108071645D01*
X129403790Y-93798710D01*
X129328386Y-93748327D01*
X129116675Y-93606867D01*
X129060484Y-93595690D01*
X128778000Y-93539499D01*
X128777995Y-93539500D01*
X125398079Y-93539500D01*
X123317000Y-91458421D01*
X123317000Y-90932000D01*
X153035000Y-90932000D01*
X153084410Y-90921994D01*
X153124803Y-90894803D01*
X155273606Y-88746000D01*
X157429554Y-88746000D01*
X158357276Y-89673723D01*
X158357276Y-89673723D01*
G37*
X158357276Y-89673723D02*
X158498073Y-89767800D01*
X158595728Y-89833051D01*
X158877000Y-89889000D01*
X165570635Y-89889000D01*
X165754595Y-90073282D01*
X166153233Y-90238811D01*
X166584873Y-90239188D01*
X166983800Y-90074354D01*
X167252588Y-89806035D01*
X169953000Y-92506447D01*
X169953000Y-101054635D01*
X169768718Y-101238595D01*
X169603189Y-101637233D01*
X169602812Y-102068873D01*
X169609476Y-102085000D01*
X166103453Y-102085000D01*
X165969405Y-101950718D01*
X165570767Y-101785189D01*
X165139127Y-101784812D01*
X164740200Y-101949646D01*
X164434718Y-102254595D01*
X164269189Y-102653233D01*
X164268812Y-103084873D01*
X164433646Y-103483800D01*
X164738595Y-103789282D01*
X165137233Y-103954811D01*
X165568873Y-103955188D01*
X165967800Y-103790354D01*
X166103391Y-103655000D01*
X166973304Y-103655000D01*
X166809189Y-104050233D01*
X166808812Y-104481873D01*
X166973646Y-104880800D01*
X167278595Y-105186282D01*
X167617000Y-105326800D01*
X167617000Y-105728099D01*
X167602767Y-105722189D01*
X167171127Y-105721812D01*
X166772200Y-105886646D01*
X166586522Y-106072000D01*
X161962365Y-106072000D01*
X161778405Y-105887718D01*
X161379767Y-105722189D01*
X160948127Y-105721812D01*
X160805000Y-105780951D01*
X160805000Y-99385158D01*
X162458136Y-97732022D01*
X162647873Y-97732188D01*
X163046800Y-97567354D01*
X163352282Y-97262405D01*
X163517811Y-96863767D01*
X163518188Y-96432127D01*
X163353354Y-96033200D01*
X163048405Y-95727718D01*
X162649767Y-95562189D01*
X162218127Y-95561812D01*
X161819200Y-95726646D01*
X161513718Y-96031595D01*
X161348189Y-96430233D01*
X161348022Y-96621820D01*
X159464921Y-98504921D01*
X159294755Y-98759593D01*
X159294755Y-98759594D01*
X159235000Y-99060000D01*
X159235000Y-100677751D01*
X158984405Y-100426718D01*
X158585767Y-100261189D01*
X158265000Y-100260909D01*
X158265000Y-96549506D01*
X158272192Y-96542327D01*
X158414838Y-96198799D01*
X158415162Y-95826833D01*
X158348188Y-95664742D01*
X158332245Y-95584594D01*
X158287242Y-95517241D01*
X158273117Y-95483057D01*
X158246756Y-95456650D01*
X158162079Y-95329921D01*
X158036457Y-95245983D01*
X158010327Y-95219808D01*
X157975867Y-95205499D01*
X157907406Y-95159755D01*
X157827358Y-95143832D01*
X157666799Y-95077162D01*
X157294833Y-95076838D01*
X156971629Y-95210383D01*
X156650799Y-95077162D01*
X156278833Y-95076838D01*
X156183000Y-95116435D01*
X156183000Y-94567419D01*
X156240192Y-94510327D01*
X156382838Y-94166799D01*
X156382981Y-94003000D01*
X159397547Y-94003000D01*
X159531595Y-94137282D01*
X159930233Y-94302811D01*
X160361873Y-94303188D01*
X160760800Y-94138354D01*
X160896391Y-94003000D01*
X162318547Y-94003000D01*
X162452595Y-94137282D01*
X162851233Y-94302811D01*
X163282873Y-94303188D01*
X163681800Y-94138354D01*
X163817391Y-94003000D01*
X166763547Y-94003000D01*
X166897595Y-94137282D01*
X167296233Y-94302811D01*
X167727873Y-94303188D01*
X168126800Y-94138354D01*
X168432282Y-93833405D01*
X168597811Y-93434767D01*
X168598188Y-93003127D01*
X168433354Y-92604200D01*
X168128405Y-92298718D01*
X167729767Y-92133189D01*
X167298127Y-92132812D01*
X166899200Y-92297646D01*
X166763609Y-92433000D01*
X163817453Y-92433000D01*
X163683405Y-92298718D01*
X163284767Y-92133189D01*
X162853127Y-92132812D01*
X162454200Y-92297646D01*
X162318609Y-92433000D01*
X160896453Y-92433000D01*
X160762405Y-92298718D01*
X160363767Y-92133189D01*
X159932127Y-92132812D01*
X159533200Y-92297646D01*
X159397609Y-92433000D01*
X154969506Y-92433000D01*
X154962327Y-92425808D01*
X154618799Y-92283162D01*
X154246833Y-92282838D01*
X153903057Y-92424883D01*
X153894926Y-92433000D01*
X150609453Y-92433000D01*
X150475405Y-92298718D01*
X150076767Y-92133189D01*
X149645127Y-92132812D01*
X149246200Y-92297646D01*
X148940718Y-92602595D01*
X148775189Y-93001233D01*
X148774812Y-93432873D01*
X148939646Y-93831800D01*
X149244595Y-94137282D01*
X149643233Y-94302811D01*
X150074873Y-94303188D01*
X150473800Y-94138354D01*
X150609391Y-94003000D01*
X153894494Y-94003000D01*
X153901673Y-94010192D01*
X154245201Y-94152838D01*
X154512849Y-94153071D01*
X154512838Y-94165167D01*
X154654883Y-94508943D01*
X154713000Y-94567162D01*
X154713000Y-95838912D01*
X154627833Y-95838838D01*
X154304629Y-95972383D01*
X153983799Y-95839162D01*
X153843151Y-95839039D01*
X153843162Y-95826833D01*
X153701117Y-95483057D01*
X153438327Y-95219808D01*
X153094799Y-95077162D01*
X152722833Y-95076838D01*
X152379057Y-95218883D01*
X152115808Y-95481673D01*
X151973162Y-95825201D01*
X151973150Y-95838849D01*
X151960833Y-95838838D01*
X151617057Y-95980883D01*
X151353808Y-96243673D01*
X151211162Y-96587201D01*
X151210838Y-96959167D01*
X151352883Y-97302943D01*
X151411000Y-97361162D01*
X151411000Y-100546635D01*
X151226718Y-100730595D01*
X151061189Y-101129233D01*
X151060812Y-101560873D01*
X151225646Y-101959800D01*
X151530595Y-102265282D01*
X151929233Y-102430811D01*
X152123000Y-102430980D01*
X152123000Y-108955834D01*
X151981767Y-108897189D01*
X151550127Y-108896812D01*
X151151200Y-109061646D01*
X150845718Y-109366595D01*
X150680189Y-109765233D01*
X150679812Y-110196873D01*
X150844646Y-110595800D01*
X151149595Y-110901282D01*
X151234000Y-110936330D01*
X151234000Y-112003834D01*
X151092767Y-111945189D01*
X150661127Y-111944812D01*
X150262200Y-112109646D01*
X150126609Y-112245000D01*
X146939000Y-112245000D01*
X146638594Y-112304755D01*
X146383921Y-112474921D01*
X143589921Y-115268921D01*
X143536029Y-115349576D01*
X143484415Y-115272330D01*
X142998234Y-114947474D01*
X142424745Y-114833400D01*
X142055255Y-114833400D01*
X141481766Y-114947474D01*
X141247000Y-115104340D01*
X141247000Y-113665000D01*
X141187245Y-113364594D01*
X141017079Y-113109921D01*
X140658022Y-112750864D01*
X140658030Y-112741779D01*
X140753233Y-112781311D01*
X141184873Y-112781688D01*
X141583800Y-112616854D01*
X141873540Y-112327619D01*
X142488354Y-112942433D01*
X142488312Y-112990873D01*
X142653146Y-113389800D01*
X142958095Y-113695282D01*
X143356733Y-113860811D01*
X143788373Y-113861188D01*
X144187300Y-113696354D01*
X144492782Y-113391405D01*
X144658311Y-112992767D01*
X144658688Y-112561127D01*
X144493854Y-112162200D01*
X144188905Y-111856718D01*
X143790267Y-111691189D01*
X143740224Y-111691145D01*
X142925851Y-110876772D01*
X143171300Y-110775354D01*
X143476782Y-110470405D01*
X143571809Y-110241554D01*
X143724873Y-110241688D01*
X144123800Y-110076854D01*
X144429282Y-109771905D01*
X144594811Y-109373267D01*
X144595188Y-108941627D01*
X144430354Y-108542700D01*
X144125405Y-108237218D01*
X143726767Y-108071689D01*
X143676724Y-108071645D01*
X129403790Y-93798710D01*
X129328386Y-93748327D01*
X129116675Y-93606867D01*
X129060484Y-93595690D01*
X128778000Y-93539499D01*
X128777995Y-93539500D01*
X125398079Y-93539500D01*
X123317000Y-91458421D01*
X123317000Y-90932000D01*
X153035000Y-90932000D01*
X153084410Y-90921994D01*
X153124803Y-90894803D01*
X155273606Y-88746000D01*
X157429554Y-88746000D01*
X158357276Y-89673723D01*
G36*
X176403000Y-92329309D02*
X176403000Y-98044000D01*
X176413006Y-98093410D01*
X176441447Y-98135035D01*
X176483841Y-98162315D01*
X176530000Y-98171000D01*
X190373000Y-98171000D01*
X190373000Y-101323000D01*
X175839158Y-101323000D01*
X172108000Y-97591842D01*
X172108000Y-97090901D01*
X172122233Y-97096811D01*
X172553873Y-97097188D01*
X172952800Y-96932354D01*
X173258282Y-96627405D01*
X173423811Y-96228767D01*
X173424188Y-95797127D01*
X173259354Y-95398200D01*
X172954405Y-95092718D01*
X172947000Y-95089643D01*
X172947000Y-90461365D01*
X173131282Y-90277405D01*
X173296811Y-89878767D01*
X173297188Y-89447127D01*
X173132354Y-89048200D01*
X172947000Y-88862522D01*
X172947000Y-82592139D01*
X173011233Y-82618811D01*
X173442873Y-82619188D01*
X173841800Y-82454354D01*
X174147282Y-82149405D01*
X174312811Y-81750767D01*
X174313188Y-81319127D01*
X174148354Y-80920200D01*
X173843405Y-80614718D01*
X173444767Y-80449189D01*
X173013127Y-80448812D01*
X172614200Y-80613646D01*
X172387592Y-80839859D01*
X172311728Y-80854949D01*
X172073276Y-81014277D01*
X171692277Y-81395277D01*
X171532949Y-81633728D01*
X171477000Y-81915000D01*
X171477000Y-88862635D01*
X171292718Y-89046595D01*
X171127189Y-89445233D01*
X171126812Y-89876873D01*
X171291646Y-90275800D01*
X171477000Y-90461478D01*
X171477000Y-91118842D01*
X170965000Y-90606842D01*
X170965000Y-85217000D01*
X170905245Y-84916594D01*
X170735079Y-84661921D01*
X168195079Y-82121921D01*
X168152214Y-82093280D01*
X168507800Y-81946354D01*
X168790088Y-81664559D01*
X168947233Y-81729811D01*
X169378873Y-81730188D01*
X169777800Y-81565354D01*
X170083282Y-81260405D01*
X170248811Y-80861767D01*
X170249188Y-80430127D01*
X170084354Y-80031200D01*
X169779405Y-79725718D01*
X169380767Y-79560189D01*
X169217071Y-79560046D01*
X169064272Y-79457949D01*
X168783000Y-79402000D01*
X166243000Y-79402000D01*
X166238565Y-79402882D01*
X166508723Y-79132724D01*
X166508725Y-79132721D01*
X166928447Y-78713000D01*
X170015635Y-78713000D01*
X170199595Y-78897282D01*
X170598233Y-79062811D01*
X171029873Y-79063188D01*
X171348286Y-78931622D01*
X171254189Y-79158233D01*
X171253812Y-79589873D01*
X171418646Y-79988800D01*
X171723595Y-80294282D01*
X172122233Y-80459811D01*
X172553873Y-80460188D01*
X172952800Y-80295354D01*
X173258282Y-79990405D01*
X173423811Y-79591767D01*
X173424188Y-79160127D01*
X173259354Y-78761200D01*
X173074000Y-78575522D01*
X173074000Y-78232000D01*
X173018051Y-77950728D01*
X173006840Y-77933949D01*
X172858723Y-77712276D01*
X172743447Y-77597000D01*
X176340041Y-77597000D01*
X176403000Y-92329309D01*
X176403000Y-92329309D01*
G37*
X176403000Y-92329309D02*
X176403000Y-98044000D01*
X176413006Y-98093410D01*
X176441447Y-98135035D01*
X176483841Y-98162315D01*
X176530000Y-98171000D01*
X190373000Y-98171000D01*
X190373000Y-101323000D01*
X175839158Y-101323000D01*
X172108000Y-97591842D01*
X172108000Y-97090901D01*
X172122233Y-97096811D01*
X172553873Y-97097188D01*
X172952800Y-96932354D01*
X173258282Y-96627405D01*
X173423811Y-96228767D01*
X173424188Y-95797127D01*
X173259354Y-95398200D01*
X172954405Y-95092718D01*
X172947000Y-95089643D01*
X172947000Y-90461365D01*
X173131282Y-90277405D01*
X173296811Y-89878767D01*
X173297188Y-89447127D01*
X173132354Y-89048200D01*
X172947000Y-88862522D01*
X172947000Y-82592139D01*
X173011233Y-82618811D01*
X173442873Y-82619188D01*
X173841800Y-82454354D01*
X174147282Y-82149405D01*
X174312811Y-81750767D01*
X174313188Y-81319127D01*
X174148354Y-80920200D01*
X173843405Y-80614718D01*
X173444767Y-80449189D01*
X173013127Y-80448812D01*
X172614200Y-80613646D01*
X172387592Y-80839859D01*
X172311728Y-80854949D01*
X172073276Y-81014277D01*
X171692277Y-81395277D01*
X171532949Y-81633728D01*
X171477000Y-81915000D01*
X171477000Y-88862635D01*
X171292718Y-89046595D01*
X171127189Y-89445233D01*
X171126812Y-89876873D01*
X171291646Y-90275800D01*
X171477000Y-90461478D01*
X171477000Y-91118842D01*
X170965000Y-90606842D01*
X170965000Y-85217000D01*
X170905245Y-84916594D01*
X170735079Y-84661921D01*
X168195079Y-82121921D01*
X168152214Y-82093280D01*
X168507800Y-81946354D01*
X168790088Y-81664559D01*
X168947233Y-81729811D01*
X169378873Y-81730188D01*
X169777800Y-81565354D01*
X170083282Y-81260405D01*
X170248811Y-80861767D01*
X170249188Y-80430127D01*
X170084354Y-80031200D01*
X169779405Y-79725718D01*
X169380767Y-79560189D01*
X169217071Y-79560046D01*
X169064272Y-79457949D01*
X168783000Y-79402000D01*
X166243000Y-79402000D01*
X166238565Y-79402882D01*
X166508723Y-79132724D01*
X166508725Y-79132721D01*
X166928447Y-78713000D01*
X170015635Y-78713000D01*
X170199595Y-78897282D01*
X170598233Y-79062811D01*
X171029873Y-79063188D01*
X171348286Y-78931622D01*
X171254189Y-79158233D01*
X171253812Y-79589873D01*
X171418646Y-79988800D01*
X171723595Y-80294282D01*
X172122233Y-80459811D01*
X172553873Y-80460188D01*
X172952800Y-80295354D01*
X173258282Y-79990405D01*
X173423811Y-79591767D01*
X173424188Y-79160127D01*
X173259354Y-78761200D01*
X173074000Y-78575522D01*
X173074000Y-78232000D01*
X173018051Y-77950728D01*
X173006840Y-77933949D01*
X172858723Y-77712276D01*
X172743447Y-77597000D01*
X176340041Y-77597000D01*
X176403000Y-92329309D01*
G36*
X182377954Y-82544046D02*
X182608295Y-82697954D01*
X182880000Y-82752000D01*
X185712052Y-82752000D01*
X185699585Y-82760330D01*
X185374729Y-83246511D01*
X185260655Y-83820000D01*
X185374729Y-84393489D01*
X185699585Y-84879670D01*
X186014366Y-85090000D01*
X185699585Y-85300330D01*
X185374729Y-85786511D01*
X185260655Y-86360000D01*
X185374729Y-86933489D01*
X185699585Y-87419670D01*
X186014366Y-87630000D01*
X185699585Y-87840330D01*
X185374729Y-88326511D01*
X185260655Y-88900000D01*
X185374729Y-89473489D01*
X185699585Y-89959670D01*
X186014366Y-90170000D01*
X185699585Y-90380330D01*
X185374729Y-90866511D01*
X185260655Y-91440000D01*
X185374729Y-92013489D01*
X185699585Y-92499670D01*
X185721780Y-92514500D01*
X185568302Y-92578073D01*
X185389673Y-92756701D01*
X185293000Y-92990090D01*
X185293000Y-93694250D01*
X185451750Y-93853000D01*
X186817000Y-93853000D01*
X186817000Y-93833000D01*
X187071000Y-93833000D01*
X187071000Y-93853000D01*
X187091000Y-93853000D01*
X187091000Y-94107000D01*
X187071000Y-94107000D01*
X187071000Y-94127000D01*
X186817000Y-94127000D01*
X186817000Y-94107000D01*
X185451750Y-94107000D01*
X185293000Y-94265750D01*
X185293000Y-94969910D01*
X185389673Y-95203299D01*
X185488375Y-95302000D01*
X182880000Y-95302000D01*
X182608295Y-95356046D01*
X182377954Y-95509954D01*
X182297074Y-95631000D01*
X182245000Y-95631000D01*
X182245000Y-82423000D01*
X182297074Y-82423000D01*
X182377954Y-82544046D01*
X182377954Y-82544046D01*
G37*
X182377954Y-82544046D02*
X182608295Y-82697954D01*
X182880000Y-82752000D01*
X185712052Y-82752000D01*
X185699585Y-82760330D01*
X185374729Y-83246511D01*
X185260655Y-83820000D01*
X185374729Y-84393489D01*
X185699585Y-84879670D01*
X186014366Y-85090000D01*
X185699585Y-85300330D01*
X185374729Y-85786511D01*
X185260655Y-86360000D01*
X185374729Y-86933489D01*
X185699585Y-87419670D01*
X186014366Y-87630000D01*
X185699585Y-87840330D01*
X185374729Y-88326511D01*
X185260655Y-88900000D01*
X185374729Y-89473489D01*
X185699585Y-89959670D01*
X186014366Y-90170000D01*
X185699585Y-90380330D01*
X185374729Y-90866511D01*
X185260655Y-91440000D01*
X185374729Y-92013489D01*
X185699585Y-92499670D01*
X185721780Y-92514500D01*
X185568302Y-92578073D01*
X185389673Y-92756701D01*
X185293000Y-92990090D01*
X185293000Y-93694250D01*
X185451750Y-93853000D01*
X186817000Y-93853000D01*
X186817000Y-93833000D01*
X187071000Y-93833000D01*
X187071000Y-93853000D01*
X187091000Y-93853000D01*
X187091000Y-94107000D01*
X187071000Y-94107000D01*
X187071000Y-94127000D01*
X186817000Y-94127000D01*
X186817000Y-94107000D01*
X185451750Y-94107000D01*
X185293000Y-94265750D01*
X185293000Y-94969910D01*
X185389673Y-95203299D01*
X185488375Y-95302000D01*
X182880000Y-95302000D01*
X182608295Y-95356046D01*
X182377954Y-95509954D01*
X182297074Y-95631000D01*
X182245000Y-95631000D01*
X182245000Y-82423000D01*
X182297074Y-82423000D01*
X182377954Y-82544046D01*
M02*
