G04 #@! TF.FileFunction,Soldermask,Bot*
%FSLAX46Y46*%
G04 Gerber Fmt 4.6, Leading zero omitted, Abs format (unit mm)*
G04 Created by KiCad (PCBNEW 4.0.2-stable) date 19/05/2017 15:30:42*
%MOMM*%
G01*
G04 APERTURE LIST*
%ADD10C,0.100000*%
%ADD11C,2.600000*%
%ADD12C,3.400000*%
%ADD13C,1.800000*%
%ADD14O,2.127200X2.432000*%
%ADD15R,2.432000X2.127200*%
%ADD16O,2.432000X2.127200*%
%ADD17R,2.127200X2.432000*%
%ADD18C,2.500000*%
%ADD19C,2.150000*%
%ADD20C,2.300000*%
%ADD21C,1.670000*%
G04 APERTURE END LIST*
D10*
D11*
X150662000Y-47886000D03*
D12*
X153162000Y-58086000D03*
D11*
X155662000Y-47886000D03*
D13*
X96945000Y-140176000D03*
X102445000Y-140176000D03*
D14*
X91430000Y-55181500D03*
X93970000Y-55181500D03*
X96510000Y-55181500D03*
D15*
X142240000Y-134112000D03*
D16*
X142240000Y-131572000D03*
X142240000Y-129032000D03*
X142240000Y-126492000D03*
X142240000Y-123952000D03*
X142240000Y-121412000D03*
X142240000Y-118872000D03*
X142240000Y-116332000D03*
D17*
X171069000Y-111379000D03*
D14*
X173609000Y-111379000D03*
X176149000Y-111379000D03*
D15*
X186944000Y-93980000D03*
D16*
X186944000Y-91440000D03*
X186944000Y-88900000D03*
X186944000Y-86360000D03*
X186944000Y-83820000D03*
D15*
X183000000Y-119500000D03*
D16*
X183000000Y-122040000D03*
X183000000Y-124580000D03*
D15*
X183007000Y-114681000D03*
D16*
X183007000Y-112141000D03*
X183007000Y-109601000D03*
X183007000Y-107061000D03*
X183007000Y-104521000D03*
D17*
X147320000Y-70612000D03*
D14*
X149860000Y-70612000D03*
X152400000Y-70612000D03*
X154940000Y-70612000D03*
X157480000Y-70612000D03*
X160020000Y-70612000D03*
X162560000Y-70612000D03*
X165100000Y-70612000D03*
X167640000Y-70612000D03*
X170180000Y-70612000D03*
D18*
X180930000Y-137210000D03*
D19*
X182190000Y-139700000D03*
X186690000Y-139700000D03*
D18*
X187940000Y-137210000D03*
D20*
X121666000Y-131572000D03*
X121666000Y-129032000D03*
D21*
X170053000Y-129032000D03*
X170053000Y-126492000D03*
X171323000Y-123952000D03*
X172593000Y-126492000D03*
X172593000Y-129032000D03*
X171323000Y-131572000D03*
X167513000Y-129032000D03*
X167513000Y-126492000D03*
X168783000Y-131572000D03*
X168783000Y-123952000D03*
X200406000Y-131572000D03*
X197866000Y-131572000D03*
X200406000Y-129032000D03*
X197866000Y-129032000D03*
D11*
X160822000Y-47886000D03*
D12*
X163322000Y-58086000D03*
D11*
X165822000Y-47886000D03*
X170982000Y-47886000D03*
D12*
X173482000Y-58086000D03*
D11*
X175982000Y-47886000D03*
X181142000Y-47886000D03*
D12*
X183642000Y-58086000D03*
D11*
X186142000Y-47886000D03*
X191302000Y-47886000D03*
D12*
X193802000Y-58086000D03*
D11*
X196302000Y-47886000D03*
X140502000Y-47886000D03*
D12*
X143002000Y-58086000D03*
D11*
X145502000Y-47886000D03*
X130342000Y-47886000D03*
D12*
X132842000Y-58086000D03*
D11*
X135342000Y-47886000D03*
X120182000Y-47886000D03*
D12*
X122682000Y-58086000D03*
D11*
X125182000Y-47886000D03*
X106500000Y-47800000D03*
D12*
X109000000Y-58000000D03*
D11*
X111500000Y-47800000D03*
M02*
