G04 #@! TF.FileFunction,Paste,Top*
%FSLAX46Y46*%
G04 Gerber Fmt 4.6, Leading zero omitted, Abs format (unit mm)*
G04 Created by KiCad (PCBNEW 4.0.2-stable) date 19/05/2017 15:30:42*
%MOMM*%
G01*
G04 APERTURE LIST*
%ADD10C,0.100000*%
%ADD11R,0.280000X1.500000*%
%ADD12R,1.500000X0.280000*%
%ADD13R,0.250000X1.000000*%
%ADD14R,1.000000X0.250000*%
%ADD15R,0.900000X0.500000*%
%ADD16R,0.600000X1.500000*%
%ADD17R,0.700000X3.000000*%
%ADD18R,3.400000X6.040000*%
%ADD19R,0.800000X0.750000*%
%ADD20R,1.000000X1.600000*%
%ADD21R,0.750000X0.800000*%
%ADD22R,0.500000X0.900000*%
%ADD23R,0.797560X0.797560*%
%ADD24R,1.300000X1.500000*%
%ADD25R,1.500000X1.300000*%
%ADD26R,0.800000X0.800000*%
%ADD27R,1.800000X1.200000*%
%ADD28R,0.500000X1.000000*%
%ADD29R,0.700000X1.000000*%
%ADD30R,1.501140X1.950720*%
%ADD31R,0.599440X1.000760*%
%ADD32R,1.500000X0.350000*%
%ADD33C,1.524000*%
%ADD34R,1.200000X0.400000*%
%ADD35R,1.000760X0.599440*%
%ADD36R,0.450000X0.300000*%
%ADD37R,1.550000X0.600000*%
G04 APERTURE END LIST*
D10*
D11*
X148876500Y-115151500D03*
X149376500Y-115151500D03*
X149876500Y-115151500D03*
X150376500Y-115151500D03*
X150876500Y-115151500D03*
X151376500Y-115151500D03*
X151876500Y-115151500D03*
X152376500Y-115151500D03*
X152876500Y-115151500D03*
X153376500Y-115151500D03*
X153876500Y-115151500D03*
X154376500Y-115151500D03*
X154876500Y-115151500D03*
X155376500Y-115151500D03*
X155876500Y-115151500D03*
X156376500Y-115151500D03*
X156876500Y-115151500D03*
X157376500Y-115151500D03*
X157876500Y-115151500D03*
X158376500Y-115151500D03*
X158876500Y-115151500D03*
X159376500Y-115151500D03*
X159876500Y-115151500D03*
X160376500Y-115151500D03*
X160876500Y-115151500D03*
D12*
X162776500Y-113251500D03*
X162776500Y-112751500D03*
X162776500Y-112251500D03*
X162776500Y-111751500D03*
X162776500Y-111251500D03*
X162776500Y-110751500D03*
X162776500Y-110251500D03*
X162776500Y-109751500D03*
X162776500Y-109251500D03*
X162776500Y-108751500D03*
X162776500Y-108251500D03*
X162776500Y-107751500D03*
X162776500Y-107251500D03*
X162776500Y-106751500D03*
X162776500Y-106251500D03*
X162776500Y-105751500D03*
X162776500Y-105251500D03*
X162776500Y-104751500D03*
X162776500Y-104251500D03*
X162776500Y-103751500D03*
X162776500Y-103251500D03*
X162776500Y-102751500D03*
X162776500Y-102251500D03*
X162776500Y-101751500D03*
X162776500Y-101251500D03*
D11*
X160876500Y-99351500D03*
X160376500Y-99351500D03*
X159876500Y-99351500D03*
X159376500Y-99351500D03*
X158876500Y-99351500D03*
X158376500Y-99351500D03*
X157876500Y-99351500D03*
X157376500Y-99351500D03*
X156876500Y-99351500D03*
X156376500Y-99351500D03*
X155876500Y-99351500D03*
X155376500Y-99351500D03*
X154876500Y-99351500D03*
X154376500Y-99351500D03*
X153876500Y-99351500D03*
X153376500Y-99351500D03*
X152876500Y-99351500D03*
X152376500Y-99351500D03*
X151876500Y-99351500D03*
X151376500Y-99351500D03*
X150876500Y-99351500D03*
X150376500Y-99351500D03*
X149876500Y-99351500D03*
X149376500Y-99351500D03*
X148876500Y-99351500D03*
D12*
X146976500Y-101251500D03*
X146976500Y-101751500D03*
X146976500Y-102251500D03*
X146976500Y-102751500D03*
X146976500Y-103251500D03*
X146976500Y-103751500D03*
X146976500Y-104251500D03*
X146976500Y-104751500D03*
X146976500Y-105251500D03*
X146976500Y-105751500D03*
X146976500Y-106251500D03*
X146976500Y-106751500D03*
X146976500Y-107251500D03*
X146976500Y-107751500D03*
X146976500Y-108251500D03*
X146976500Y-108751500D03*
X146976500Y-109251500D03*
X146976500Y-109751500D03*
X146976500Y-110251500D03*
X146976500Y-110751500D03*
X146976500Y-111251500D03*
X146976500Y-111751500D03*
X146976500Y-112251500D03*
X146976500Y-112751500D03*
X146976500Y-113251500D03*
D13*
X161484000Y-79898000D03*
X160984000Y-79898000D03*
X160484000Y-79898000D03*
X159984000Y-79898000D03*
X159484000Y-79898000D03*
X158984000Y-79898000D03*
X158484000Y-79898000D03*
X157984000Y-79898000D03*
X157484000Y-79898000D03*
X156984000Y-79898000D03*
X156484000Y-79898000D03*
X155984000Y-79898000D03*
X155484000Y-79898000D03*
X154984000Y-79898000D03*
X154484000Y-79898000D03*
X153984000Y-79898000D03*
D14*
X152034000Y-81848000D03*
X152034000Y-82348000D03*
X152034000Y-82848000D03*
X152034000Y-83348000D03*
X152034000Y-83848000D03*
X152034000Y-84348000D03*
X152034000Y-84848000D03*
X152034000Y-85348000D03*
X152034000Y-85848000D03*
X152034000Y-86348000D03*
X152034000Y-86848000D03*
X152034000Y-87348000D03*
X152034000Y-87848000D03*
X152034000Y-88348000D03*
X152034000Y-88848000D03*
X152034000Y-89348000D03*
D13*
X153984000Y-91298000D03*
X154484000Y-91298000D03*
X154984000Y-91298000D03*
X155484000Y-91298000D03*
X155984000Y-91298000D03*
X156484000Y-91298000D03*
X156984000Y-91298000D03*
X157484000Y-91298000D03*
X157984000Y-91298000D03*
X158484000Y-91298000D03*
X158984000Y-91298000D03*
X159484000Y-91298000D03*
X159984000Y-91298000D03*
X160484000Y-91298000D03*
X160984000Y-91298000D03*
X161484000Y-91298000D03*
D14*
X163434000Y-89348000D03*
X163434000Y-88848000D03*
X163434000Y-88348000D03*
X163434000Y-87848000D03*
X163434000Y-87348000D03*
X163434000Y-86848000D03*
X163434000Y-86348000D03*
X163434000Y-85848000D03*
X163434000Y-85348000D03*
X163434000Y-84848000D03*
X163434000Y-84348000D03*
X163434000Y-83848000D03*
X163434000Y-83348000D03*
X163434000Y-82848000D03*
X163434000Y-82348000D03*
X163434000Y-81848000D03*
D15*
X173990000Y-84062000D03*
X173990000Y-82562000D03*
D14*
X144539000Y-66798000D03*
X144539000Y-66298000D03*
X144539000Y-65798000D03*
X144539000Y-67298000D03*
X142989000Y-67298000D03*
X142989000Y-65798000D03*
X142989000Y-66298000D03*
X142989000Y-66798000D03*
D16*
X94678500Y-111291000D03*
X95948500Y-111291000D03*
X97218500Y-111291000D03*
X98488500Y-111291000D03*
X99758500Y-111291000D03*
X101028500Y-111291000D03*
X102298500Y-111291000D03*
X103568500Y-111291000D03*
X103568500Y-101991000D03*
X102298500Y-101991000D03*
X101028500Y-101991000D03*
X99758500Y-101991000D03*
X98488500Y-101991000D03*
X97218500Y-101991000D03*
X95948500Y-101991000D03*
X94678500Y-101991000D03*
D17*
X97745000Y-133176000D03*
X98995000Y-133176000D03*
X100245000Y-133176000D03*
X101495000Y-133176000D03*
D18*
X92695000Y-139676000D03*
X106695000Y-139676000D03*
D19*
X150737000Y-96012000D03*
X149237000Y-96012000D03*
D20*
X148566000Y-87122000D03*
X145566000Y-87122000D03*
D19*
X147816000Y-85090000D03*
X146316000Y-85090000D03*
D21*
X146431000Y-83427000D03*
X146431000Y-81927000D03*
D22*
X139585000Y-77216000D03*
X141085000Y-77216000D03*
X139585000Y-78867000D03*
X141085000Y-78867000D03*
D19*
X147332000Y-65786000D03*
X148832000Y-65786000D03*
D22*
X147332000Y-67564000D03*
X148832000Y-67564000D03*
D19*
X167525000Y-86741000D03*
X169025000Y-86741000D03*
D21*
X148209000Y-83427000D03*
X148209000Y-81927000D03*
D19*
X147816000Y-89154000D03*
X146316000Y-89154000D03*
X167525000Y-84328000D03*
X169025000Y-84328000D03*
D21*
X155511500Y-121400000D03*
X155511500Y-119900000D03*
X163639500Y-119900000D03*
X163639500Y-121400000D03*
X165227000Y-112256000D03*
X165227000Y-110756000D03*
X166751000Y-112256000D03*
X166751000Y-110756000D03*
D19*
X150737000Y-97536000D03*
X149237000Y-97536000D03*
D21*
X143129000Y-105398000D03*
X143129000Y-103898000D03*
X144653000Y-105398000D03*
X144653000Y-103898000D03*
X151511000Y-117106000D03*
X151511000Y-118606000D03*
X153035000Y-117106000D03*
X153035000Y-118606000D03*
D19*
X94500000Y-113379000D03*
X96000000Y-113379000D03*
X94500000Y-114903000D03*
X96000000Y-114903000D03*
D21*
X108458000Y-131306000D03*
X108458000Y-129806000D03*
D19*
X99326000Y-129032000D03*
X100826000Y-129032000D03*
X97397000Y-129032000D03*
X95897000Y-129032000D03*
X94500000Y-99663000D03*
X96000000Y-99663000D03*
D21*
X115824000Y-96381000D03*
X115824000Y-94881000D03*
X103505000Y-122377000D03*
X103505000Y-120877000D03*
D19*
X94500000Y-97885000D03*
X96000000Y-97885000D03*
D21*
X117475000Y-96381000D03*
X117475000Y-94881000D03*
X92710000Y-119741000D03*
X92710000Y-121241000D03*
X126238000Y-94476000D03*
X126238000Y-92976000D03*
D23*
X107873800Y-119087000D03*
X106375200Y-119087000D03*
D24*
X109921000Y-134747000D03*
X111821000Y-134747000D03*
D25*
X106172000Y-129606000D03*
X106172000Y-131506000D03*
X114236500Y-92707500D03*
X114236500Y-90807500D03*
D24*
X111953000Y-115824000D03*
X113853000Y-115824000D03*
D26*
X121666000Y-93012000D03*
X123698000Y-93012000D03*
D15*
X165227000Y-115836000D03*
X165227000Y-117336000D03*
X149098000Y-118757000D03*
X149098000Y-120257000D03*
D22*
X156833000Y-117284500D03*
X155333000Y-117284500D03*
D15*
X167005000Y-116320000D03*
X167005000Y-114820000D03*
X166306500Y-105779000D03*
X166306500Y-104279000D03*
X92710000Y-65075500D03*
X92710000Y-63575500D03*
X90932000Y-65062800D03*
X90932000Y-63562800D03*
X94297500Y-58178000D03*
X94297500Y-59678000D03*
X99568000Y-58178000D03*
X99568000Y-59678000D03*
X97917000Y-65075500D03*
X97917000Y-63575500D03*
X95948500Y-65075500D03*
X95948500Y-63575500D03*
D22*
X159651000Y-96647000D03*
X161151000Y-96647000D03*
D15*
X101015800Y-124649800D03*
X101015800Y-126149800D03*
X95834200Y-124649800D03*
X95834200Y-126149800D03*
X90932000Y-119487000D03*
X90932000Y-120987000D03*
D22*
X104826500Y-119087000D03*
X103326500Y-119087000D03*
D27*
X161575500Y-119513500D03*
X157575500Y-119513500D03*
X161575500Y-121913500D03*
X157575500Y-121913500D03*
D28*
X178962000Y-64786000D03*
X178962000Y-66786000D03*
X178162000Y-64786000D03*
X178162000Y-66786000D03*
D29*
X179812000Y-64786000D03*
X177312000Y-64786000D03*
X177312000Y-66786000D03*
X179812000Y-66786000D03*
D28*
X138322000Y-64786000D03*
X138322000Y-66786000D03*
X137522000Y-64786000D03*
X137522000Y-66786000D03*
D29*
X139172000Y-64786000D03*
X136672000Y-64786000D03*
X136672000Y-66786000D03*
X139172000Y-66786000D03*
D28*
X112541000Y-64659000D03*
X112541000Y-66659000D03*
X111741000Y-64659000D03*
X111741000Y-66659000D03*
D29*
X113391000Y-64659000D03*
X110891000Y-64659000D03*
X110891000Y-66659000D03*
X113391000Y-66659000D03*
D30*
X108458000Y-125072140D03*
X108458000Y-122323860D03*
D31*
X90741500Y-61762640D03*
X91694000Y-59649360D03*
X92646500Y-61762640D03*
X95948500Y-61762640D03*
X96901000Y-59649360D03*
X97853500Y-61762640D03*
D15*
X109474000Y-115836000D03*
X109474000Y-117336000D03*
D32*
X136822000Y-62626000D03*
X136822000Y-61976000D03*
X136822000Y-61326000D03*
X139022000Y-61326000D03*
X139022000Y-61976000D03*
X139022000Y-62626000D03*
X139022000Y-62626000D03*
X139022000Y-61976000D03*
X139022000Y-61326000D03*
X136822000Y-61326000D03*
X136822000Y-61976000D03*
X136822000Y-62626000D03*
X177462000Y-62626000D03*
X177462000Y-61976000D03*
X177462000Y-61326000D03*
X179662000Y-61326000D03*
X179662000Y-61976000D03*
X179662000Y-62626000D03*
X179662000Y-62626000D03*
X179662000Y-61976000D03*
X179662000Y-61326000D03*
X177462000Y-61326000D03*
X177462000Y-61976000D03*
X177462000Y-62626000D03*
D33*
X117792500Y-120650000D03*
X112395000Y-112776000D03*
X105600500Y-88836500D03*
X124650500Y-82042000D03*
X132461000Y-97536000D03*
D32*
X117559000Y-61199000D03*
X117559000Y-61849000D03*
X117559000Y-62499000D03*
X115359000Y-62499000D03*
X115359000Y-61849000D03*
X115359000Y-61199000D03*
X115359000Y-61199000D03*
X115359000Y-61849000D03*
X115359000Y-62499000D03*
X117559000Y-62499000D03*
X117559000Y-61849000D03*
X117559000Y-61199000D03*
D34*
X95825000Y-118452000D03*
X95825000Y-119087000D03*
X95825000Y-119722000D03*
X95825000Y-120357000D03*
X95825000Y-120992000D03*
X95825000Y-121627000D03*
X95825000Y-122262000D03*
X95825000Y-122897000D03*
X101025000Y-122897000D03*
X101025000Y-122262000D03*
X101025000Y-121627000D03*
X101025000Y-120992000D03*
X101025000Y-120357000D03*
X101025000Y-119722000D03*
X101025000Y-119087000D03*
X101025000Y-118452000D03*
D35*
X121371360Y-94599500D03*
X121371360Y-96504500D03*
X121371360Y-95552000D03*
X123484640Y-96504500D03*
X123484640Y-94599500D03*
D36*
X99100000Y-125747400D03*
X99100000Y-124747400D03*
X99100000Y-125247400D03*
X97750000Y-124747400D03*
X97750000Y-125747400D03*
D13*
X117217000Y-64884000D03*
X116717000Y-64884000D03*
X116217000Y-64884000D03*
X117717000Y-64884000D03*
X117717000Y-66434000D03*
X116217000Y-66434000D03*
X116717000Y-66434000D03*
X117217000Y-66434000D03*
D14*
X184925000Y-66671000D03*
X184925000Y-66171000D03*
X184925000Y-65671000D03*
X184925000Y-67171000D03*
X183375000Y-67171000D03*
X183375000Y-65671000D03*
X183375000Y-66171000D03*
X183375000Y-66671000D03*
D15*
X173990000Y-92595000D03*
X173990000Y-94095000D03*
X173990000Y-91301000D03*
X173990000Y-89801000D03*
X173990000Y-85229000D03*
X173990000Y-86729000D03*
D22*
X184773000Y-87122000D03*
X183273000Y-87122000D03*
X184773000Y-84074000D03*
X183273000Y-84074000D03*
X184773000Y-93345000D03*
X183273000Y-93345000D03*
X184773000Y-90424000D03*
X183273000Y-90424000D03*
D19*
X172605000Y-88265000D03*
X174105000Y-88265000D03*
D21*
X174625000Y-95897000D03*
X174625000Y-97397000D03*
D37*
X181389000Y-87630000D03*
X181389000Y-86360000D03*
X181389000Y-85090000D03*
X181389000Y-83820000D03*
X175989000Y-83820000D03*
X175989000Y-85090000D03*
X175989000Y-86360000D03*
X175989000Y-87630000D03*
X181389000Y-93853000D03*
X181389000Y-92583000D03*
X181389000Y-91313000D03*
X181389000Y-90043000D03*
X175989000Y-90043000D03*
X175989000Y-91313000D03*
X175989000Y-92583000D03*
X175989000Y-93853000D03*
D19*
X174129000Y-78359000D03*
X175629000Y-78359000D03*
X169025000Y-90551000D03*
X167525000Y-90551000D03*
X174129000Y-79883000D03*
X175629000Y-79883000D03*
X168033000Y-79121000D03*
X169533000Y-79121000D03*
M02*
