G04 #@! TF.FileFunction,Profile,NP*
%FSLAX46Y46*%
G04 Gerber Fmt 4.6, Leading zero omitted, Abs format (unit mm)*
G04 Created by KiCad (PCBNEW 4.0.2-stable) date 19/05/2017 15:30:42*
%MOMM*%
G01*
G04 APERTURE LIST*
%ADD10C,0.100000*%
%ADD11C,0.150000*%
G04 APERTURE END LIST*
D10*
D11*
X189230000Y-96012000D02*
X182880000Y-96012000D01*
X189230000Y-82042000D02*
X189230000Y-96012000D01*
X182880000Y-82042000D02*
X189230000Y-82042000D01*
X182880000Y-80772000D02*
X182880000Y-82042000D01*
X190500000Y-80772000D02*
X182880000Y-80772000D01*
X190500000Y-97282000D02*
X190500000Y-80772000D01*
X182880000Y-97282000D02*
X190500000Y-97282000D01*
X182880000Y-96012000D02*
X182880000Y-97282000D01*
X179705000Y-82296000D02*
X177673000Y-82296000D01*
X179705000Y-82804000D02*
X179705000Y-82296000D01*
X179705000Y-95504000D02*
X179705000Y-82804000D01*
X177673000Y-95504000D02*
X179705000Y-95504000D01*
X177673000Y-82296000D02*
X177673000Y-95504000D01*
X89000000Y-144000000D02*
X89000000Y-46000000D01*
X113000000Y-144000000D02*
X89000000Y-144000000D01*
X209000000Y-144000000D02*
X209000000Y-46000000D01*
X209000000Y-144000000D02*
X113000000Y-144000000D01*
X209000000Y-46000000D02*
X89000000Y-46000000D01*
X90170000Y-108045000D02*
X90170000Y-105505000D01*
X107950000Y-108045000D02*
X90170000Y-108045000D01*
X107950000Y-105505000D02*
X107950000Y-108045000D01*
X90170000Y-105505000D02*
X107950000Y-105505000D01*
M02*
