M48
;DRILL file {KiCad 4.0.2-stable} date 19/05/2017 15:30:08
;FORMAT={3:3/ absolute / metric / suppress leading zeros}
FMAT,2
METRIC,TZ
T1C0.300
T2C0.500
T3C0.800
T4C0.900
T5C1.000
T6C1.300
T7C1.700
T8C2.500
T9C3.500
%
G90
G05
M71
T1
X94107Y-120396
X97485Y-121564
X98298Y-120396
X119126Y-63500
X134874Y-62484
X134874Y-64770
X136652Y-68199
X137541Y-68199
X140716Y-60452
X140843Y-66167
X141351Y-62738
X141351Y-64770
X141605Y-65532
X152146Y-96774
X152908Y-96012
X153797Y-96774
X154432Y-93218
X154813Y-96774
X155448Y-93980
X156464Y-96012
X157480Y-96012
X175006Y-62103
X175006Y-64770
X177292Y-67945
X178181Y-67945
X181483Y-66040
X181610Y-62738
X181610Y-64770
X182118Y-65405
T2
X90043Y-74295
X90043Y-83312
X90043Y-92075
X90043Y-102235
X90170Y-112776
X90170Y-114554
X90170Y-116205
X90170Y-117348
X90361Y-125476
X90361Y-134938
X91440Y-112776
X91440Y-114554
X91440Y-116205
X91440Y-117348
X92583Y-116205
X92583Y-117348
X93091Y-114173
X93599Y-74168
X93726Y-116205
X93726Y-117348
X94869Y-116205
X94869Y-117348
X94996Y-66802
X95758Y-95631
X95758Y-96647
X96012Y-116205
X96012Y-117348
X96647Y-92075
X96774Y-74676
X96837Y-76264
X97155Y-95631
X97155Y-96647
X98349Y-122682
X98552Y-95631
X99123Y-97218
X99949Y-95631
X100267Y-98171
X100584Y-64262
X101092Y-114173
X101092Y-116205
X101346Y-95631
X102743Y-95631
X103505Y-123673
X104140Y-95631
X104140Y-113030
X105156Y-99822
X105156Y-101092
X105156Y-102362
X105410Y-111760
X105410Y-113030
X105410Y-114300
X106553Y-99822
X106553Y-101092
X106553Y-102362
X106680Y-111760
X106680Y-113030
X106680Y-114300
X107950Y-99822
X107950Y-101092
X107950Y-102362
X107950Y-111760
X107950Y-113030
X107950Y-114300
X109347Y-99822
X109347Y-101092
X109347Y-102362
X109347Y-111760
X109347Y-113030
X110681Y-111760
X113284Y-142621
X117094Y-111125
X120078Y-93027
X120078Y-95568
X123063Y-142621
X123825Y-102235
X125095Y-91313
X125222Y-119126
X130112Y-106680
X131826Y-86868
X132588Y-126365
X132588Y-134112
X132715Y-142621
X136525Y-91313
X136525Y-91313
X136652Y-113030
X137605Y-97473
X139573Y-112776
X140462Y-120142
X140970Y-111697
X142240Y-142240
X142558Y-109855
X143510Y-109157
X143574Y-112776
X144653Y-68517
X144844Y-97473
X145542Y-116332
X146431Y-117348
X149606Y-121666
X149860Y-93218
X150622Y-142240
X150876Y-113030
X151130Y-66802
X151130Y-77978
X151257Y-103116
X151765Y-109982
X152146Y-101346
X153162Y-113411
X154305Y-86741
X154432Y-122682
X156591Y-89535
X158369Y-101346
X158750Y-142240
X159068Y-83629
X159893Y-84709
X160020Y-108458
X160147Y-93218
X160655Y-85852
X161163Y-106807
X161290Y-86868
X162433Y-96647
X163068Y-93218
X164846Y-91186
X165100Y-87630
X165354Y-102870
X165608Y-85471
X166243Y-82677
X166370Y-89154
X167386Y-106807
X167513Y-85471
X167513Y-93218
X167640Y-142240
X167894Y-81026
X167894Y-104267
X169164Y-75946
X169164Y-80645
X169545Y-92837
X170434Y-80264
X170434Y-115951
X170688Y-101854
X170815Y-77978
X172212Y-89662
X172339Y-79375
X172339Y-96012
X173228Y-81534
X175514Y-81534
X175768Y-88773
X176530Y-98679
X177546Y-123952
X177800Y-142240
X179832Y-75946
X181102Y-59944
X183388Y-98679
X184150Y-94869
X188849Y-51181
X189611Y-108712
X189611Y-116205
X189611Y-125857
X189611Y-134747
X189611Y-142240
X189738Y-98679
X189738Y-100584
X192278Y-75946
X192278Y-85344
X192278Y-96266
X192278Y-100584
X192278Y-108712
X192278Y-116205
X192278Y-125857
X192278Y-134747
X192278Y-142240
X207518Y-47752
X207518Y-56642
X207518Y-64516
X207518Y-75692
X207518Y-84836
X207518Y-100584
X207518Y-113030
X207518Y-125857
X207645Y-134620
X207645Y-142240
T3
X167513Y-126492
X167513Y-129032
X168783Y-123952
X168783Y-131572
X170053Y-126492
X170053Y-129032
X171323Y-123952
X171323Y-131572
X172593Y-126492
X172593Y-129032
X197866Y-129032
X197866Y-131572
X200406Y-129032
X200406Y-131572
T4
X121666Y-129032
X121666Y-131572
T5
X91430Y-55182
X93970Y-55182
X96510Y-55182
X142240Y-116332
X142240Y-118872
X142240Y-121412
X142240Y-123952
X142240Y-126492
X142240Y-129032
X142240Y-131572
X142240Y-134112
X147320Y-70612
X149860Y-70612
X152400Y-70612
X154940Y-70612
X157480Y-70612
X160020Y-70612
X162560Y-70612
X165100Y-70612
X167640Y-70612
X170180Y-70612
X171069Y-111379
X173609Y-111379
X176149Y-111379
X182190Y-139700
X183000Y-119500
X183000Y-122040
X183000Y-124580
X183007Y-104521
X183007Y-107061
X183007Y-109601
X183007Y-112141
X183007Y-114681
X186690Y-139700
X186944Y-83820
X186944Y-86360
X186944Y-88900
X186944Y-91440
X186944Y-93980
T6
X106500Y-47800
X111500Y-47800
X120182Y-47886
X125182Y-47886
X130342Y-47886
X135342Y-47886
X140502Y-47886
X145502Y-47886
X150662Y-47886
X155662Y-47886
X160822Y-47886
X165822Y-47886
X170982Y-47886
X175982Y-47886
X180930Y-137210
X181142Y-47886
X186142Y-47886
X187940Y-137210
X191302Y-47886
X196302Y-47886
T7
X109000Y-58000
X122682Y-58086
X132842Y-58086
X143002Y-58086
X153162Y-58086
X163322Y-58086
X173482Y-58086
X183642Y-58086
X193802Y-58086
T8
X92000Y-130000
X99000Y-81000
X152000Y-130000
X187000Y-130000
X199000Y-81000
T9
X101000Y-52000
X101000Y-73000
X204000Y-52000
X204000Y-73000
T0
M30
