G04 #@! TF.FileFunction,Paste,Top*
%FSLAX46Y46*%
G04 Gerber Fmt 4.6, Leading zero omitted, Abs format (unit mm)*
G04 Created by KiCad (PCBNEW 4.0.2-stable) date 15/05/2017 14:24:20*
%MOMM*%
G01*
G04 APERTURE LIST*
%ADD10C,0.100000*%
%ADD11R,0.500000X1.000000*%
%ADD12R,0.700000X1.000000*%
%ADD13R,1.500000X0.350000*%
%ADD14R,1.000000X0.250000*%
%ADD15R,0.250000X1.000000*%
G04 APERTURE END LIST*
D10*
D11*
X178962000Y-64786000D03*
X178962000Y-66786000D03*
X178162000Y-64786000D03*
X178162000Y-66786000D03*
D12*
X179812000Y-64786000D03*
X177312000Y-64786000D03*
X177312000Y-66786000D03*
X179812000Y-66786000D03*
D11*
X138322000Y-64786000D03*
X138322000Y-66786000D03*
X137522000Y-64786000D03*
X137522000Y-66786000D03*
D12*
X139172000Y-64786000D03*
X136672000Y-64786000D03*
X136672000Y-66786000D03*
X139172000Y-66786000D03*
D11*
X112541000Y-64659000D03*
X112541000Y-66659000D03*
X111741000Y-64659000D03*
X111741000Y-66659000D03*
D12*
X113391000Y-64659000D03*
X110891000Y-64659000D03*
X110891000Y-66659000D03*
X113391000Y-66659000D03*
D13*
X177462000Y-62626000D03*
X177462000Y-61976000D03*
X177462000Y-61326000D03*
X179662000Y-61326000D03*
X179662000Y-61976000D03*
X179662000Y-62626000D03*
X179662000Y-62626000D03*
X179662000Y-61976000D03*
X179662000Y-61326000D03*
X177462000Y-61326000D03*
X177462000Y-61976000D03*
X177462000Y-62626000D03*
X136822000Y-62626000D03*
X136822000Y-61976000D03*
X136822000Y-61326000D03*
X139022000Y-61326000D03*
X139022000Y-61976000D03*
X139022000Y-62626000D03*
X139022000Y-62626000D03*
X139022000Y-61976000D03*
X139022000Y-61326000D03*
X136822000Y-61326000D03*
X136822000Y-61976000D03*
X136822000Y-62626000D03*
D14*
X144539000Y-66798000D03*
X144539000Y-66298000D03*
X144539000Y-65798000D03*
X144539000Y-67298000D03*
X142989000Y-67298000D03*
X142989000Y-65798000D03*
X142989000Y-66298000D03*
X142989000Y-66798000D03*
X184925000Y-66671000D03*
X184925000Y-66171000D03*
X184925000Y-65671000D03*
X184925000Y-67171000D03*
X183375000Y-67171000D03*
X183375000Y-65671000D03*
X183375000Y-66171000D03*
X183375000Y-66671000D03*
D13*
X117559000Y-61199000D03*
X117559000Y-61849000D03*
X117559000Y-62499000D03*
X115359000Y-62499000D03*
X115359000Y-61849000D03*
X115359000Y-61199000D03*
X115359000Y-61199000D03*
X115359000Y-61849000D03*
X115359000Y-62499000D03*
X117559000Y-62499000D03*
X117559000Y-61849000D03*
X117559000Y-61199000D03*
D15*
X117217000Y-64884000D03*
X116717000Y-64884000D03*
X116217000Y-64884000D03*
X117717000Y-64884000D03*
X117717000Y-66434000D03*
X116217000Y-66434000D03*
X116717000Y-66434000D03*
X117217000Y-66434000D03*
M02*
