G04 #@! TF.FileFunction,Soldermask,Top*
%FSLAX46Y46*%
G04 Gerber Fmt 4.6, Leading zero omitted, Abs format (unit mm)*
G04 Created by KiCad (PCBNEW 4.0.2-stable) date 15/05/2017 14:24:20*
%MOMM*%
G01*
G04 APERTURE LIST*
%ADD10C,0.100000*%
%ADD11R,2.127200X2.432000*%
%ADD12O,2.127200X2.432000*%
%ADD13R,0.900000X1.400000*%
%ADD14R,1.100000X1.400000*%
%ADD15R,1.900000X0.750000*%
%ADD16R,1.400000X0.650000*%
%ADD17R,0.650000X1.400000*%
%ADD18C,2.600000*%
%ADD19C,3.400000*%
G04 APERTURE END LIST*
D10*
D11*
X147320000Y-70612000D03*
D12*
X149860000Y-70612000D03*
X152400000Y-70612000D03*
X154940000Y-70612000D03*
X157480000Y-70612000D03*
X160020000Y-70612000D03*
X162560000Y-70612000D03*
X165100000Y-70612000D03*
X167640000Y-70612000D03*
X170180000Y-70612000D03*
D13*
X178962000Y-64786000D03*
X178962000Y-66786000D03*
X178162000Y-64786000D03*
X178162000Y-66786000D03*
D14*
X179812000Y-64786000D03*
X177312000Y-64786000D03*
X177312000Y-66786000D03*
X179812000Y-66786000D03*
D13*
X138322000Y-64786000D03*
X138322000Y-66786000D03*
X137522000Y-64786000D03*
X137522000Y-66786000D03*
D14*
X139172000Y-64786000D03*
X136672000Y-64786000D03*
X136672000Y-66786000D03*
X139172000Y-66786000D03*
D13*
X112541000Y-64659000D03*
X112541000Y-66659000D03*
X111741000Y-64659000D03*
X111741000Y-66659000D03*
D14*
X113391000Y-64659000D03*
X110891000Y-64659000D03*
X110891000Y-66659000D03*
X113391000Y-66659000D03*
D15*
X177462000Y-62626000D03*
X177462000Y-61976000D03*
X177462000Y-61326000D03*
X179662000Y-61326000D03*
X179662000Y-61976000D03*
X179662000Y-62626000D03*
X179662000Y-62626000D03*
X179662000Y-61976000D03*
X179662000Y-61326000D03*
X177462000Y-61326000D03*
X177462000Y-61976000D03*
X177462000Y-62626000D03*
X136822000Y-62626000D03*
X136822000Y-61976000D03*
X136822000Y-61326000D03*
X139022000Y-61326000D03*
X139022000Y-61976000D03*
X139022000Y-62626000D03*
X139022000Y-62626000D03*
X139022000Y-61976000D03*
X139022000Y-61326000D03*
X136822000Y-61326000D03*
X136822000Y-61976000D03*
X136822000Y-62626000D03*
D16*
X144539000Y-66798000D03*
X144539000Y-66298000D03*
X144539000Y-65798000D03*
X144539000Y-67298000D03*
X142989000Y-67298000D03*
X142989000Y-65798000D03*
X142989000Y-66298000D03*
X142989000Y-66798000D03*
X184925000Y-66671000D03*
X184925000Y-66171000D03*
X184925000Y-65671000D03*
X184925000Y-67171000D03*
X183375000Y-67171000D03*
X183375000Y-65671000D03*
X183375000Y-66171000D03*
X183375000Y-66671000D03*
D15*
X117559000Y-61199000D03*
X117559000Y-61849000D03*
X117559000Y-62499000D03*
X115359000Y-62499000D03*
X115359000Y-61849000D03*
X115359000Y-61199000D03*
X115359000Y-61199000D03*
X115359000Y-61849000D03*
X115359000Y-62499000D03*
X117559000Y-62499000D03*
X117559000Y-61849000D03*
X117559000Y-61199000D03*
D17*
X117217000Y-64884000D03*
X116717000Y-64884000D03*
X116217000Y-64884000D03*
X117717000Y-64884000D03*
X117717000Y-66434000D03*
X116217000Y-66434000D03*
X116717000Y-66434000D03*
X117217000Y-66434000D03*
D18*
X106500000Y-47800000D03*
D19*
X109000000Y-58000000D03*
D18*
X111500000Y-47800000D03*
X120182000Y-47886000D03*
D19*
X122682000Y-58086000D03*
D18*
X125182000Y-47886000D03*
X130342000Y-47886000D03*
D19*
X132842000Y-58086000D03*
D18*
X135342000Y-47886000D03*
X140502000Y-47886000D03*
D19*
X143002000Y-58086000D03*
D18*
X145502000Y-47886000D03*
X150662000Y-47886000D03*
D19*
X153162000Y-58086000D03*
D18*
X155662000Y-47886000D03*
X160822000Y-47886000D03*
D19*
X163322000Y-58086000D03*
D18*
X165822000Y-47886000D03*
X170982000Y-47886000D03*
D19*
X173482000Y-58086000D03*
D18*
X175982000Y-47886000D03*
X181142000Y-47886000D03*
D19*
X183642000Y-58086000D03*
D18*
X186142000Y-47886000D03*
X191302000Y-47886000D03*
D19*
X193802000Y-58086000D03*
D18*
X196302000Y-47886000D03*
M02*
