G04 #@! TF.FileFunction,Soldermask,Bot*
%FSLAX46Y46*%
G04 Gerber Fmt 4.6, Leading zero omitted, Abs format (unit mm)*
G04 Created by KiCad (PCBNEW 4.0.1-stable) date 30/05/2016 15:34:53*
%MOMM*%
G01*
G04 APERTURE LIST*
%ADD10C,0.100000*%
%ADD11C,1.800000*%
%ADD12O,2.127200X2.432000*%
%ADD13R,2.432000X2.127200*%
%ADD14O,2.432000X2.127200*%
%ADD15R,2.127200X2.432000*%
%ADD16C,2.500000*%
%ADD17C,2.150000*%
%ADD18C,2.200000*%
%ADD19C,3.400000*%
%ADD20C,1.670000*%
%ADD21C,2.400000*%
G04 APERTURE END LIST*
D10*
D11*
X96945000Y-142309600D03*
X102445000Y-142309600D03*
D12*
X91450000Y-49950000D03*
X93990000Y-49950000D03*
X96530000Y-49950000D03*
D13*
X142240000Y-134112000D03*
D14*
X142240000Y-131572000D03*
X142240000Y-129032000D03*
X142240000Y-126492000D03*
X142240000Y-123952000D03*
X142240000Y-121412000D03*
X142240000Y-118872000D03*
X142240000Y-116332000D03*
D15*
X171069000Y-111379000D03*
D12*
X173609000Y-111379000D03*
X176149000Y-111379000D03*
D13*
X179768500Y-89090500D03*
D14*
X179768500Y-86550500D03*
X179768500Y-84010500D03*
X179768500Y-81470500D03*
X179768500Y-78930500D03*
D13*
X183000000Y-119500000D03*
D14*
X183000000Y-122040000D03*
X183000000Y-124580000D03*
D13*
X183007000Y-114681000D03*
D14*
X183007000Y-112141000D03*
X183007000Y-109601000D03*
X183007000Y-107061000D03*
X183007000Y-104521000D03*
D15*
X147320000Y-70612000D03*
D12*
X149860000Y-70612000D03*
X152400000Y-70612000D03*
X154940000Y-70612000D03*
X157480000Y-70612000D03*
X160020000Y-70612000D03*
X162560000Y-70612000D03*
X165100000Y-70612000D03*
X167640000Y-70612000D03*
X170180000Y-70612000D03*
D16*
X150450000Y-137210000D03*
D17*
X151710000Y-139700000D03*
X156210000Y-139700000D03*
D16*
X157460000Y-137210000D03*
D18*
X160822000Y-47886000D03*
D19*
X163322000Y-58086000D03*
D18*
X165822000Y-47886000D03*
X106500000Y-47800000D03*
D19*
X109000000Y-58000000D03*
D18*
X111500000Y-47800000D03*
X120182000Y-47886000D03*
D19*
X122682000Y-58086000D03*
D18*
X125182000Y-47886000D03*
X130342000Y-47886000D03*
D19*
X132842000Y-58086000D03*
D18*
X135342000Y-47886000D03*
X150662000Y-47886000D03*
D19*
X153162000Y-58086000D03*
D18*
X155662000Y-47886000D03*
X140502000Y-47886000D03*
D19*
X143002000Y-58086000D03*
D18*
X145502000Y-47886000D03*
X181142000Y-47886000D03*
D19*
X183642000Y-58086000D03*
D18*
X186142000Y-47886000D03*
X191302000Y-47886000D03*
D19*
X193802000Y-58086000D03*
D18*
X196302000Y-47886000D03*
X170982000Y-47886000D03*
D19*
X173482000Y-58086000D03*
D18*
X175982000Y-47886000D03*
D20*
X124206000Y-129921000D03*
D21*
X117221000Y-128651000D03*
X117221000Y-137541000D03*
X128651000Y-137541000D03*
X128651000Y-128651000D03*
D20*
X121666000Y-129921000D03*
X169926000Y-131191000D03*
X169926000Y-128651000D03*
X171196000Y-127381000D03*
X171196000Y-129921000D03*
X172466000Y-131191000D03*
X171196000Y-132461000D03*
X167386000Y-131191000D03*
X168656000Y-129921000D03*
X168656000Y-132461000D03*
D21*
X164211000Y-128651000D03*
X164211000Y-137541000D03*
X175641000Y-137541000D03*
X175641000Y-128651000D03*
D20*
X168656000Y-127381000D03*
X200660000Y-132461000D03*
X198120000Y-132461000D03*
X200660000Y-129921000D03*
D21*
X193675000Y-128651000D03*
X193675000Y-137541000D03*
X205105000Y-137541000D03*
X205105000Y-128651000D03*
D20*
X198120000Y-129921000D03*
M02*
