M48
;DRILL file {KiCad 4.0.2-stable} date 18/05/2017 14:25:09
;FORMAT={3:3/ absolute / metric / suppress leading zeros}
FMAT,2
METRIC,TZ
T1C0.200
T2C0.500
T3C0.800
T4C0.990
T5C1.016
T6C1.300
T7C1.700
T8C2.500
T9C3.500
%
G90
G05
M71
T1
X94107Y-120396
X94488Y-116586
X97485Y-121564
X98298Y-120396
X99187Y-119380
X100584Y-116459
X119126Y-63500
X134874Y-62484
X134874Y-64770
X136652Y-68199
X137541Y-68199
X137795Y-49530
X140716Y-60452
X140843Y-66167
X141351Y-62738
X141351Y-64770
X141605Y-65532
X144653Y-68326
X145542Y-116332
X146431Y-117348
X149606Y-121666
X149860Y-93218
X150876Y-113030
X151257Y-103116
X152146Y-96774
X152146Y-101346
X152908Y-96012
X153797Y-96774
X154432Y-93218
X154432Y-122682
X154686Y-97028
X155448Y-93980
X156845Y-95758
X158369Y-95123
X158369Y-101346
X160147Y-93218
X160147Y-106807
X165100Y-87376
X167386Y-106807
X167894Y-104267
X169926Y-102870
X175006Y-62103
X175006Y-64770
X177292Y-67945
X178181Y-67945
X181483Y-66040
X181610Y-62738
X181610Y-64770
X182118Y-65405
X188849Y-51181
T2
X91567Y-92075
X93599Y-74168
X93980Y-54483
X96774Y-74676
X96837Y-76264
X98349Y-122682
X99123Y-97218
X100267Y-98171
X100584Y-64262
X101219Y-92075
X102235Y-96393
X103505Y-123673
X108585Y-100457
X120078Y-93027
X120078Y-95568
X125095Y-91567
X130048Y-104775
X131826Y-86868
X136779Y-97790
X139573Y-112776
X140462Y-120142
X140970Y-111697
X142558Y-109855
X143510Y-109157
X143574Y-112776
X145034Y-97917
X151130Y-66802
X151130Y-77978
X151765Y-109982
X153162Y-113030
X154305Y-86741
X156591Y-89027
X159068Y-83629
X159957Y-84836
X160020Y-108458
X160655Y-85852
X161290Y-86868
X162433Y-96647
X163068Y-92964
X163830Y-91694
X165608Y-85471
X166370Y-89154
X166853Y-82626
X167513Y-85471
X170434Y-115951
X177546Y-123952
T3
X117221Y-128651
X117221Y-137541
X121666Y-129921
X124206Y-129921
X128651Y-128651
X128651Y-137541
X164211Y-128651
X164211Y-137541
X167386Y-131191
X168656Y-127381
X168656Y-129921
X168656Y-132461
X169926Y-128651
X169926Y-131191
X171196Y-127381
X171196Y-129921
X171196Y-132461
X172466Y-131191
X175641Y-128651
X175641Y-137541
X193675Y-128651
X193675Y-137541
X198120Y-129921
X198120Y-132461
X200660Y-129921
X200660Y-132461
X205105Y-128651
X205105Y-137541
T4
X151710Y-139700
X156210Y-139700
T5
X91450Y-49950
X93990Y-49950
X96530Y-49950
X142240Y-116332
X142240Y-118872
X142240Y-121412
X142240Y-123952
X142240Y-126492
X142240Y-129032
X142240Y-131572
X142240Y-134112
X147320Y-70612
X149860Y-70612
X152400Y-70612
X154940Y-70612
X157480Y-70612
X160020Y-70612
X162560Y-70612
X165100Y-70612
X167640Y-70612
X170180Y-70612
X171069Y-111379
X173609Y-111379
X176149Y-111379
X179769Y-78931
X179769Y-81471
X179769Y-84011
X179769Y-86551
X179769Y-89091
X183000Y-119500
X183000Y-122040
X183000Y-124580
X183007Y-104521
X183007Y-107061
X183007Y-109601
X183007Y-112141
X183007Y-114681
T6
X106500Y-47800
X111500Y-47800
X120182Y-47886
X125182Y-47886
X130342Y-47886
X135342Y-47886
X140502Y-47886
X145502Y-47886
X150450Y-137210
X150662Y-47886
X155662Y-47886
X157460Y-137210
X160822Y-47886
X165822Y-47886
X170982Y-47886
X175982Y-47886
X181142Y-47886
X186142Y-47886
X191302Y-47886
X196302Y-47886
T7
X109000Y-58000
X122682Y-58086
X132842Y-58086
X143002Y-58086
X153162Y-58086
X163322Y-58086
X173482Y-58086
X183642Y-58086
X193802Y-58086
T8
X92000Y-130000
X99000Y-81000
X152000Y-130000
X187000Y-130000
X199000Y-81000
T9
X101000Y-52000
X101000Y-73000
X204000Y-52000
X204000Y-73000
T0
M30
